<?xml version="1.0" encoding="utf-8"?>
<!-- Generator: Adobe Illustrator 16.0.0, SVG Export Plug-In . SVG Version: 6.00 Build 0)  -->
<!DOCTYPE svg PUBLIC "-//W3C//DTD SVG 1.1//EN" "http://www.w3.org/Graphics/SVG/1.1/DTD/svg11.dtd">
<svg version="1.1" id="图层_1" xmlns="http://www.w3.org/2000/svg" xmlns:xlink="http://www.w3.org/1999/xlink" x="0px" y="0px"
	 width="1000px" height="1000px" viewBox="0 0 1000 1000" enable-background="new 0 0 1000 1000" xml:space="preserve">
<g id="图层_11_2_">
	<g>
		<path d="M808.865,299.436c0,141.969,0,283.938,0,427.064c-205.738,0-411.479,0-620.03,0c0-206.441,0-414.063,0-621.702
			c43.089,0,88.26,0,133.433,0c10.045,92.244,20.101,184.488,30.583,280.762c46.692-32.503,87.501-60.901,136.303-94.868
			c6.149,40.012,10.179,66.242,15.358,99.962c47.853-35.126,88.215-64.779,137.604-101.046
			c7.624,39.878,12.688,66.375,17.698,92.566C710.225,354.196,759.538,326.807,808.865,299.436z"/>
		<path d="M237.833,55.928c9.605,8.585,15.764,18.991,16.666,32.068c0.158,2.301-0.327,4.649-0.661,8.792
			c-2.792-2.766-4.33-4.26-5.833-5.786c-8.015-8.135-15.793-16.516-24.084-24.355c-9.976-9.433-19.284-9.386-30.101-0.825
			c-4.611,3.651-9.098,7.857-14.354,10.23c-21.621,9.759-43.399,0.561-52.29-21.957c-2.137-5.413-2.847-11.414-3.947-17.195
			c-0.315-1.659,0.302-3.495,0.669-6.899c2.594,2.568,3.995,3.955,5.395,5.338c6.227,6.155,12.201,12.593,18.74,18.396
			c9.578,8.496,20.911,9.393,32.852,6.25c6.275-1.652,12.539-3.347,18.803-5.039c10.156-2.748,20.382-4.622,30.933-2.548
			C233.025,53.574,235.429,54.75,237.833,55.928z"/>
	</g>
</g>
<g>
	<path d="M200.622,831.383c6.835,3.979,16.326,10.205,28.471,18.673l-12.398,16.687c-6.736-5.816-16.023-12.348-27.86-19.594
		L200.622,831.383z M209.806,873.937c6.021,2.96,12.705,5.613,20.052,7.958c-7.961,25.001-13.675,44.339-17.145,58.016
		c-7.247-2.758-14.186-5.155-20.817-7.194C198.53,914.961,204.5,895.365,209.806,873.937z M205.521,792.043
		c8.571,6.123,17.397,12.908,26.482,20.359l-13.011,15c-6.839-6.53-15.411-13.673-25.717-21.43L205.521,792.043z M231.389,835.208
		h111.438v18.368h-70.261l-3.825,16.225h64.289c-0.664,11.327-1.415,22.019-2.257,32.068c-0.842,10.053-1.836,16.826-2.985,20.321
		c-1.149,3.494-2.82,6.429-5.011,8.804c-2.195,2.371-5.448,4.171-9.758,5.396c-4.313,1.225-10.04,1.834-17.182,1.834
		c-7.654,0-17.094-0.254-28.318-0.763c-1.124-6.432-2.449-13.268-3.98-20.514c15.715,1.329,26.022,1.99,30.921,1.99
		c5.356,0,9.005-0.714,10.944-2.144c1.939-1.427,3.187-3.968,3.75-7.614c0.561-3.648,1.172-10.754,1.837-21.315h-67.353
		l7.883-34.288h-20.128v-18.368H231.389z M241.033,798.166h93.527v18.063h-93.527V798.166z"/>
	<path d="M405.889,823.882v18.521c-7.247,35.512-23.472,64.086-48.677,85.72c-3.776-8.775-7.348-15.972-10.715-21.585
		c18.571-15.815,31.635-36.633,39.186-62.452h-33.981V823.88h54.187V823.882z M496.201,825.718
		c-11.531,11.532-24.721,23.218-39.568,35.055c11.633,17.448,25.895,31.788,42.785,43.012c-3.982,5.614-8.268,12.857-12.859,21.736
		c-20.969-15.151-38.063-37.143-51.278-65.973v54.951c0,7.092-1.544,12.682-4.63,16.763s-7.424,6.593-13.011,7.538
		c-5.586,0.943-15.524,1.417-29.809,1.417c-1.533-8.572-3.369-16.533-5.512-23.88c7.346,0.817,14.643,1.225,21.89,1.225
		c6.531,0,9.795-3.982,9.795-11.939V791.583h21.277v25.64c3.164,9.029,6.785,17.553,10.869,25.561
		c12.5-11.121,23.367-21.861,32.605-32.221L496.201,825.718z"/>
	<path d="M528.04,790.205l19.744,2.449c-1.63,8.42-3.393,16.483-5.279,24.185h37.427v18.368c0,5.714-1.535,15.039-4.594,27.975
		c-3.061,12.933-8.14,25.294-15.229,37.08c13.317,11.328,34.057,16.992,62.222,16.992c12.297,0,23.728-0.406,34.289-1.225
		c-2.654,6.02-5.206,13.571-7.655,22.656c-24.287-0.309-40.819-0.883-49.595-1.722c-8.776-0.843-17.782-3.023-27.017-6.544
		c-9.235-3.521-17.196-8.241-23.879-14.16c-8.625,10.05-19.008,18.853-31.149,26.404c-6.227-8.368-10.87-14.032-13.932-16.99
		c12.705-7.146,23.265-15.561,31.686-25.259c-4.796-7.602-8.981-16.86-12.551-27.78c-2.909,5.816-5.97,11.249-9.186,16.301
		c-3.164-8.063-6.685-15.767-10.562-23.113C513.907,847.455,522.326,822.25,528.04,790.205z M546.792,883.732
		c7.807-13.98,12.171-29.951,13.091-47.911h-22.734c-0.969,3.164-1.987,6.276-3.059,9.338
		C536.995,860.823,541.23,873.681,546.792,883.732z M592.331,791.736h20.816v120.467h-20.816V791.736z M628.915,825.564
		c8.979,11.021,18.111,23.218,27.399,36.586l-17.909,12.397c-7.247-12.549-15.612-25.407-25.103-38.573L628.915,825.564z"/>
	<path d="M664.734,933.634l-4.287-21.737l18.216-4.134v-37.655h-14.695v-18.98h14.695v-32.146h-15.306v-19.285h50.205v19.287
		h-15.306v32.146h14.234v18.98h-14.234v32.681c5.458-1.479,10.764-2.982,15.919-4.516c-0.406,7.245-0.459,14.235-0.152,20.97h37.963
		v-13.315h-34.901v-17.451h34.901v-11.021h-34.134v-79.445h87.859v79.445h-34.135v11.021h34.902v17.451h-34.902v13.315h41.638v17.45
		H708.204v-16.147C694.734,924.27,680.241,928.632,664.734,933.634z M736.981,829.698h15.002v-14.542h-15.002V829.698z
		 M736.981,860.313h15.002v-14.694h-15.002V860.313z M786.576,815.156h-15.002v14.542h15.002V815.156z M786.576,860.313v-14.694
		h-15.002v14.694H786.576z"/>
</g>
</svg>
