<?xml version="1.0" encoding="utf-8"?>
<!-- Generator: Adobe Illustrator 16.0.0, SVG Export Plug-In . SVG Version: 6.00 Build 0)  -->
<!DOCTYPE svg PUBLIC "-//W3C//DTD SVG 1.1//EN" "http://www.w3.org/Graphics/SVG/1.1/DTD/svg11.dtd">
<svg version="1.1" id="图层_1" xmlns="http://www.w3.org/2000/svg" xmlns:xlink="http://www.w3.org/1999/xlink" x="0px" y="0px"
	 width="1000px" height="1000px" viewBox="0 0 1000 1000" enable-background="new 0 0 1000 1000" xml:space="preserve">
<g id="图层_19_2_">
	<path fill="#1E1E1E" d="M740.165,291.175C740.165,158.535,632.639,51.01,500,51.01c-132.641,0-240.166,107.525-240.166,240.165
		h87.757l-47.73,363.727h400.276l-47.73-363.727H740.165L740.165,291.175z"/>
</g>
<g>
	<path d="M359.602,768.929v27.027c-10.574,51.828-34.252,93.525-71.038,125.097c-5.51-12.808-10.721-23.307-15.638-31.498
		c27.103-23.08,46.167-53.462,57.188-91.141h-49.592v-29.487h79.079V768.929z M491.398,771.608
		c-16.83,16.832-36.076,33.883-57.746,51.157c16.977,25.466,37.789,46.391,62.438,62.771c-5.812,8.196-12.063,18.764-18.764,31.724
		c-30.606-22.114-55.55-54.207-74.838-96.278v80.191c0,10.35-2.251,18.506-6.755,24.465c-4.506,5.957-10.833,9.622-18.988,11.002
		c-8.154,1.376-22.655,2.064-43.504,2.064c-2.235-12.511-4.917-24.128-8.044-34.85c10.724,1.193,21.371,1.788,31.946,1.788
		c9.531,0,14.295-5.809,14.295-17.425V721.794h31.051v37.418c4.617,13.178,9.904,25.614,15.864,37.304
		c18.241-16.231,34.102-31.903,47.581-47.024L491.398,771.608z"/>
	<path d="M508.377,916.586l-5.812-32.611c8.194-1.938,16.159-3.869,23.905-5.809v-70.59h-20.555V777.42h20.555v-55.402h29.037
		v55.402h18.766v30.156h-18.766v62.772c7.001-1.938,13.778-3.869,20.329-5.812c-0.597,9.386-0.597,19.662,0,30.83
		C549.925,902.813,527.437,909.886,508.377,916.586z M685.745,844.657h-77.738v-13.403c-8.936,6.254-18.54,12.435-28.816,18.541
		c-4.467-7.894-9.604-16.68-15.415-26.362c33.212-15.04,56.89-32.018,71.039-50.929h30.604c-1.045,1.787-2.16,3.5-3.351,5.138
		c13.7,16.382,35.367,30.977,65.005,43.782c-5.658,9.086-10.649,17.798-14.966,26.137c-9.533-5.063-18.317-10.348-26.361-15.858
		V844.657L685.745,844.657z M570.255,739.442h27.029v-17.427h27.253v17.427h44.897v-17.427h27.255v17.427h27.029v24.126h-27.029
		v16.974h-27.251v-16.974h-44.899v16.974h-27.253v-16.974h-27.029v-24.126H570.255z M587.01,941.384v-83.101h119.063v83.101h-27.702
		v-9.604h-63.665v9.604H587.01z M678.374,883.304h-63.665v23.455h63.665V883.304z M646.654,797.521
		c-7.296,8.043-15.861,16.011-25.689,23.902h51.155C662.586,813.83,654.098,805.862,646.654,797.521z"/>
</g>
</svg>
