<?xml version="1.0" encoding="utf-8"?>
<!-- Generator: Adobe Illustrator 16.0.0, SVG Export Plug-In . SVG Version: 6.00 Build 0)  -->
<!DOCTYPE svg PUBLIC "-//W3C//DTD SVG 1.1//EN" "http://www.w3.org/Graphics/SVG/1.1/DTD/svg11.dtd">
<svg version="1.1" id="图层_1" xmlns="http://www.w3.org/2000/svg" xmlns:xlink="http://www.w3.org/1999/xlink" x="0px" y="0px"
	 width="1000px" height="1000px" viewBox="0 0 1000 1000" enable-background="new 0 0 1000 1000" xml:space="preserve">
<g id="图层_10_2_">
	<g>
		<path d="M681.414,74.895c8.577,2.41,15.565,6.997,20.103,14.843c0.8,1.381,1.211,2.986,2.264,5.661
			c-2.574-0.869-3.984-1.329-5.382-1.818c-7.45-2.614-14.83-5.452-22.363-7.798c-9.063-2.824-14.827,0.037-18.94,8.643
			c-1.754,3.67-3.258,7.646-5.801,10.718c-10.458,12.637-26.779,13.549-39.147,2.271c-2.973-2.711-5.238-6.221-7.682-9.476
			c-0.7-0.934-0.875-2.262-1.682-4.487c2.393,0.806,3.684,1.24,4.974,1.673c5.738,1.928,11.406,4.109,17.233,5.723
			c8.531,2.362,15.841-0.528,22.298-6.112c3.395-2.935,6.769-5.892,10.143-8.848c5.472-4.795,11.252-9.07,18.433-10.991
			C677.713,74.895,679.564,74.895,681.414,74.895z"/>
		<path d="M769.84,433.128c17.246,0,33.887,0,51.072,0c0,32.061,0,63.413,0,95.595c9.073,0,17.623,0,26.666,0
			c0,55.9,0,110.973,0,166.497c-231.475,0-463.063,0-695.045,0c0-55.124,0-110.185,0-165.974c15.417,0,30.601,0,46.763,0
			c0-3.08,0-5.449,0-7.818c0-57.467,0.018-114.934-0.046-172.399c-0.005-3.464,0.382-6.05,3.68-8.344
			c42.388-29.507,84.649-59.196,126.957-88.821c0.947-0.662,2.05-1.104,3.931-2.1c0,30.81,0,60.864,0,92.765
			c44.928-31.467,88.536-62.008,133.28-93.345c0,31.423,0,61.592,0,93.45c45.017-31.531,88.701-62.126,133.532-93.525
			c0,61.872,0,122.456,0,183.485c15.348,0,29.893,0,45.152,0c0.58-6.548,1.234-13.042,1.724-19.548
			c2.353-31.302,4.603-62.612,7-93.911c2.352-30.672,4.889-61.329,7.254-91.998c2.858-37.062,5.725-74.124,8.315-111.206
			c0.396-5.66,1.444-8.292,8.107-8.136c21.28,0.496,42.581,0.35,63.87,0.062c5.047-0.069,6.346,1.882,6.622,6.384
			c2.55,41.637,5.119,83.273,7.909,124.896c2.846,42.46,5.981,84.9,8.912,127.355C767.003,388.327,768.35,410.172,769.84,433.128z
			 M550.42,554.07c0.245-1.128,0.485-1.717,0.485-2.308c0.032-29.542-0.052-59.084,0.144-88.624c0.033-5.116-2.793-4.963-6.33-4.958
			c-30.576,0.047-61.152,0.14-91.724-0.082c-5.183-0.038-6.625,1.533-6.581,6.654c0.231,27.888,0.102,55.778,0.124,83.668
			c0.002,1.802,0.221,3.599,0.354,5.649C481.559,554.07,515.786,554.07,550.42,554.07z M266.581,458.595c0,32.035,0,63.68,0,95.308
			c34.645,0,68.806,0,103.158,0c0-31.95,0-63.447,0-95.308C335.174,458.595,301.01,458.595,266.581,458.595z M733.56,554.037
			c0-32.086,0-63.577,0-95.3c-34.697,0-69.006,0-103.474,0c0,32.018,0,63.501,0,95.3C664.641,554.037,698.83,554.037,733.56,554.037
			z"/>
	</g>
</g>
<g>
	<path d="M162.361,889.843h72.391v-29.23h-50.897V837.4h50.897v-28.545h-41.612c-7.509,14.788-15.937,28.604-25.277,41.44
		c-3.553-9.511-7.453-19.373-11.692-29.574c11.806-15.701,21.836-36.626,30.092-62.762l25.619,6.362
		c-2.522,7.279-5.217,14.387-8.082,21.321h30.951v-34.045h25.793v34.045h57.087v23.21h-57.087v28.545h50.381v23.212h-50.381v29.231
		h63.274v23.9H162.361V889.843z"/>
	<path d="M348.754,821.751h33.014c-4.759-5.849-10.373-12.494-16.851-19.945l17.884-10.661h-45.395v-21.668h68.606
		c-1.833-5.158-3.726-10.201-5.675-15.13l27.168-4.127l4.899,19.255h66.974v21.668H451.75l22.008,10.661l-17.624,19.945h40.323
		v21.664H371.451v4.127c0,25.336-7.508,50.154-22.525,74.454c-4.24-4.7-10.318-10.604-18.228-17.709
		c11.463-19.028,17.482-38.918,18.056-59.666V821.751L348.754,821.751z M408.077,816.421l-8.597,5.33h28.628
		c6.706-9.23,13.669-19.431,20.892-30.606h-62.245L408.077,816.421z"/>
	<path d="M509.699,867.488h77.033v-18.052h-61.044v-19.773c7.277-12.556,13.898-24.933,19.861-37.142h-31.036V771.2h40.838
		c3.035-6.991,5.873-13.929,8.513-20.807l25.447,3.784l-7.735,17.022h87.691v21.321h-98.01
		c-5.789,11.464-12.037,23.328-18.743,35.594h34.22v-27.169h24.072v27.169h49.176v21.321h-49.176v18.052h65.339v21.323h-65.339
		v32.67h-24.072v-32.67h-77.033v-21.323H509.699z"/>
	<path d="M690.415,773.434h23.9v146.5h-23.9V773.434z M710.878,758.646l22.524-7.91c5.386,8.483,10.889,17.769,16.508,27.856
		l-23.9,9.112C720.85,776.816,715.805,767.128,710.878,758.646z M730.135,794.068h76.86v90.444h-55.194v9.456h-21.666V794.068z
		 M785.329,813.325h-33.53v16.338h33.53V813.325z M785.329,865.254v-16.338h-33.53v16.338H785.329z M847.576,888.295
		c0,8.312-1.393,14.959-4.17,19.946c-2.782,4.986-7.21,8.27-13.282,9.844c-6.078,1.574-19.575,2.363-40.493,2.363
		c-1.376-8.483-3.212-16.506-5.503-24.071c7.336,0.458,16.678,0.688,28.027,0.688c7.681,0,11.522-3.382,11.522-10.145V780.14
		h-67.922V758.99h91.822v129.305H847.576z"/>
</g>
</svg>
