<?xml version="1.0" encoding="utf-8"?>
<!-- Generator: Adobe Illustrator 16.0.0, SVG Export Plug-In . SVG Version: 6.00 Build 0)  -->
<!DOCTYPE svg PUBLIC "-//W3C//DTD SVG 1.1//EN" "http://www.w3.org/Graphics/SVG/1.1/DTD/svg11.dtd">
<svg version="1.1" id="图层_1" xmlns="http://www.w3.org/2000/svg" xmlns:xlink="http://www.w3.org/1999/xlink" x="0px" y="0px"
	 width="1000px" height="1000px" viewBox="0 0 1000 1000" enable-background="new 0 0 1000 1000" xml:space="preserve">
<g id="图层_8_2_">
	<g>
		<polyline points="360.782,69 442.638,69 442.638,394.113 225.894,394.113 225.894,339.928 362.633,339.928 		"/>
		<path d="M469.043,149.907v244.206c0,0,54.223,2.736,54.583,83.12c0.359,80.388,0,215.134,0,215.134h270.433V452.945
			C794.059,452.945,805.621,152.799,469.043,149.907z"/>
	</g>
</g>
<g>
	<path d="M225.894,864.069c7.292-12.643,12.69-25.428,16.195-38.354h-15.201v-18.609h16.337v-24.858h17.473v24.858h13.638v18.609
		h-13.638v16.406c6.109,3.409,11.933,6.748,17.473,10.016l-8.808,16.052c-1.988-1.704-4.877-3.835-8.665-6.393v60.089h-17.473
		v-58.527c-3.6,9.283-7.861,18.183-12.786,26.707C228.83,880.216,227.316,871.553,225.894,864.069z M286.125,852.563l16.907,4.83
		c-5.778,18.374-11.698,34.235-17.759,47.589c-5.965-3.031-11.554-5.305-16.763-6.819
		C274.761,885.376,280.633,870.177,286.125,852.563z M274.761,825.146h91.341v18.467h-35.797v60.798
		c0,5.066-1.397,8.963-4.191,11.684c-2.795,2.724-6.808,4.249-12.04,4.582c-5.232,0.33-12.37,0.497-21.415,0.497
		c-1.326-7.669-2.604-14.252-3.835-19.745c5.018,0.476,9.517,0.71,13.496,0.71c5.492,0,8.24-2.558,8.24-7.671v-50.855h-35.799
		V825.146z M280.444,789.633h80.259V808.1h-80.259V789.633z M351.045,853.698c5.965,14.301,11.695,29.312,17.188,45.031
		l-17.473,6.677c-5.493-16.763-11.033-31.962-16.62-45.599L351.045,853.698z"/>
	<path d="M386.417,788.639c7.102,9.092,14.44,19.036,22.019,29.832l-16.905,11.506c-6.535-10.607-13.496-20.977-20.882-31.11
		L386.417,788.639z M390.82,846.597c6.344,3.505,12.5,6.631,18.467,9.375l-20.74,60.657c-5.208-3.883-11.129-7.671-17.757-11.365
		C377.325,888.977,384.001,869.42,390.82,846.597z M428.748,781.678l18.465,4.831c-2.367,6.676-4.948,13.115-7.741,19.318h29.192
		c-3.789-4.782-8.096-9.897-12.928-15.342l14.206-10.086c6.251,6.345,12.075,12.738,17.474,19.176l-9.02,6.25h31.892v15.342h-28.979
		v15.342h27.842v14.632h-27.842v15.342h27.842v14.633h-27.842v15.626h30.54v15.058h-74.721v10.228h-19.318v-78.058
		c-2.604,3.599-5.304,7.127-8.098,10.582c-3.125-7.293-6.156-13.638-9.09-19.036C413.217,820.363,422.592,802.418,428.748,781.678z
		 M437.128,836.511h24.861v-15.342h-24.861V836.511z M437.128,866.484h24.861v-15.342h-24.861V866.484z M437.128,896.741h24.861
		v-15.626h-24.861V896.741z"/>
	<path d="M517.816,808.385h14.203v-25.001h18.042v25.001h10.651v17.614h-10.651v17.757c3.454-1.278,6.534-2.46,9.233-3.55
		c0.663,7.481,1.326,13.777,1.989,18.892l-11.223,4.618v39.135c0,5.257-0.949,9.34-2.841,12.251
		c-1.896,2.912-4.913,4.652-9.056,5.223c-4.145,0.566-9.885,0.853-17.225,0.853c-0.948-5.495-2.13-11.649-3.551-18.467h11.08
		c2.366,0,3.55-1.896,3.55-5.685v-25.5l-10.796,4.904l-3.692-20.457l14.488-5.397v-24.576h-14.203V808.385z M557.165,872.877h24.575
		v-15.058h-17.614v-18.183h17.614v-14.772h-17.899v-18.184h17.899v-24.717h18.752v140.064H581.74v-30.968h-24.575V872.877z
		 M612.991,781.962h18.183v24.717h24.717v18.183h-24.717v14.774h22.16v18.182h-22.16v15.058h27.132v18.183h-27.132v30.968h-18.183
		V781.962z"/>
	<path d="M672.938,918.05V794.035h121.169V918.05h-21.308v-10.088h-78.557v10.088H672.938z M772.802,813.498h-78.557v75.005h78.557
		V813.498z"/>
</g>
</svg>
