<?xml version="1.0" encoding="utf-8"?>
<!-- Generator: Adobe Illustrator 16.0.0, SVG Export Plug-In . SVG Version: 6.00 Build 0)  -->
<!DOCTYPE svg PUBLIC "-//W3C//DTD SVG 1.1//EN" "http://www.w3.org/Graphics/SVG/1.1/DTD/svg11.dtd">
<svg version="1.1" id="图层_1" xmlns="http://www.w3.org/2000/svg" xmlns:xlink="http://www.w3.org/1999/xlink" x="0px" y="0px"
	 width="1000px" height="1000px" viewBox="0 0 1000 1000" enable-background="new 0 0 1000 1000" xml:space="preserve">
<g id="图层_9_2_">
	<g>
		<polyline points="333.236,46 431.335,46 431.335,435.631 171.581,435.631 171.581,370.691 335.455,370.691 		"/>
		<path d="M462.98,142.962v292.667l395.134,113.05C858.114,548.682,866.349,146.428,462.98,142.962z"/>
		<path d="M563.97,487.261c7.169,12.144,14.172,23.853,21.008,35.655c3.563,6.151,7.257,12.281,10.139,18.757
			c4.413,9.918,9.181,19.849,8.653,31.183c-0.479,10.359-4.365,19.011-12.206,26.029c-8.646,7.737-18.783,11.679-30.13,11.177
			c-5.662-0.253-11.391-2.486-16.779-4.606c-9.156-3.597-15.354-10.775-19.173-19.495c-2.895-6.609-3.571-13.813-2.086-21.234
			c2.874-14.367,9.565-27.076,16.632-39.585c6.512-11.527,13.666-22.691,20.588-33.985
			C561.304,490.027,562.352,489.117,563.97,487.261z"/>
		<path d="M684.641,589.96c7.17,12.145,14.174,23.853,21.008,35.655c3.563,6.15,7.258,12.282,10.141,18.756
			c4.412,9.918,9.178,19.851,8.652,31.184c-0.479,10.358-4.366,19.013-12.207,26.028c-8.646,7.737-18.782,11.679-30.13,11.177
			c-5.662-0.251-11.389-2.486-16.779-4.604c-9.154-3.598-15.352-10.774-19.171-19.497c-2.894-6.607-3.573-13.812-2.088-21.233
			c2.875-14.366,9.568-27.076,16.634-39.586c6.511-11.526,13.664-22.691,20.586-33.984
			C681.975,592.727,683.024,591.815,684.641,589.96z"/>
		<path d="M784.341,564.285c4.423,7.493,8.743,14.713,12.962,21.996c2.197,3.794,4.476,7.576,6.256,11.57
			c2.724,6.118,5.661,12.246,5.338,19.237c-0.296,6.391-2.692,11.728-7.531,16.058c-5.335,4.773-11.587,7.205-18.588,6.894
			c-3.492-0.154-7.027-1.533-10.352-2.839c-5.648-2.221-9.473-6.648-11.827-12.028c-1.786-4.076-2.204-8.521-1.288-13.099
			c1.772-8.863,5.901-16.703,10.259-24.421c4.018-7.11,8.431-13.996,12.7-20.965C782.697,565.993,783.344,565.429,784.341,564.285z"
			/>
	</g>
</g>
<g>
	<path d="M209.063,788.424c9.153,6.203,20.156,14.03,33.001,23.48l-16.833,22.15c-7.235-6.204-17.573-14.693-31.011-25.473
		L209.063,788.424z M212.164,850.888c8.417,3.393,16.019,6.277,22.815,8.639l-16.171,84.834c-7.532-3.544-15.503-6.575-23.922-9.083
		C200.646,912.392,206.404,884.263,212.164,850.888z M215.044,729.506c14.469,10.632,24.439,18.237,29.901,22.813l-18.605,20.157
		c-9.748-9.894-19.049-18.386-27.91-25.473L215.044,729.506z M291.018,945.025h-23.48v-92.034
		c-3.912,33.965-11.369,64.124-22.369,90.483c-7.384-9.009-14.472-16.687-21.266-23.037c15.652-30.417,23.552-67.924,23.703-112.519
		v-72.653H404.87v58.035H275.072c0,3.396-0.042,6.867-0.11,10.408h139.656v22.594h-64.236v10.857h57.589v81.287
		c0,17.867-6.866,26.803-20.6,26.803c-7.386,0-16.246-0.148-26.582-0.444c-1.179-9.154-2.435-16.539-3.764-22.149
		c9.451,1.034,15.8,1.551,19.05,1.551c4.724,0,7.086-2.736,7.086-8.195v-57.813h-32.78v84.167H323.8v-84.167h-32.783V945.025z
		 M273.85,837.154h49.948v-10.856h-49.397C274.257,830.437,274.072,834.055,273.85,837.154z M377.404,772.919v-14.175H275.072
		v14.175H377.404z M291.461,913.35l10.411-15.725c7.088,4.134,14.026,8.568,20.821,13.289l-11.076,16.834
		C305.86,922.875,299.137,918.073,291.461,913.35z M291.684,879.017l10.41-15.503c7.088,4.134,14.025,8.568,20.822,13.29
		l-11.076,16.612C306.08,888.543,299.359,883.743,291.684,879.017z M350.822,907.148l10.411-15.505
		c8.271,4.579,15.356,8.787,21.265,12.626l-10.63,16.39C367.286,917.41,360.273,912.908,350.822,907.148z M351.266,877.467
		l10.408-15.725c8.271,4.577,15.357,8.79,21.268,12.627l-10.632,16.608C366.55,886.993,359.535,882.49,351.266,877.467z"/>
	<path d="M422.589,769.377h22.149v-38.986h28.134v38.986h16.609v27.464h-16.609v27.688c5.39-1.993,10.189-3.835,14.396-5.535
		c1.033,11.666,2.067,21.483,3.101,29.457l-17.497,7.203v61.019c0,8.197-1.479,14.564-4.431,19.105
		c-2.955,4.541-7.662,7.255-14.121,8.142c-6.462,0.885-15.412,1.329-26.856,1.329c-1.478-8.566-3.322-18.165-5.538-28.796h17.277
		c3.69,0,5.536-2.953,5.536-8.859v-39.762l-16.833,7.644l-5.757-31.895l22.591-8.417v-38.322h-22.149V769.377L422.589,769.377z
		 M483.943,869.938h38.32v-23.481h-27.465v-28.349h27.465v-23.036h-27.911v-28.354h27.911V728.18h29.239v218.398h-29.239V898.29
		h-38.32V869.938z M570.996,728.178h28.351v38.537h38.538v28.353h-38.538v23.038h34.553v28.348h-34.553v23.482h42.303v28.348
		h-42.303v48.29h-28.351V728.178z"/>
	<path d="M664.468,940.375V747.004h188.938v193.371h-33.226v-15.728H697.691v15.728H664.468z M820.183,777.351H697.691V894.3
		h122.491V777.351z"/>
</g>
</svg>
