<?xml version="1.0" encoding="utf-8"?>
<!-- Generator: Adobe Illustrator 16.0.0, SVG Export Plug-In . SVG Version: 6.00 Build 0)  -->
<!DOCTYPE svg PUBLIC "-//W3C//DTD SVG 1.1//EN" "http://www.w3.org/Graphics/SVG/1.1/DTD/svg11.dtd">
<svg version="1.1" id="图层_1" xmlns="http://www.w3.org/2000/svg" xmlns:xlink="http://www.w3.org/1999/xlink" x="0px" y="0px"
	 width="1000px" height="1000px" viewBox="0 0 1000 1000" enable-background="new 0 0 1000 1000" xml:space="preserve">
<g id="图层_13_2_">
	<g>
		<rect x="97.475" y="116.948" width="92.995" height="367.48"/>
		<rect x="358.462" y="190.445" width="560.971" height="347.981"/>
		<rect x="97.475" y="518.928" width="227.989" height="92.995"/>
		<rect x="232.468" y="116.948" width="92.995" height="494.976"/>
	</g>
</g>
<g>
	<path d="M165.719,889.16h24.241V750.636h72.496v-15.239h-91.89V710.23h91.89v-15.468h32.786v15.468h94.428v25.166h-94.428v15.239
		h75.034V889.16h23.779v25.166H165.719V889.16L165.719,889.16z M339.336,775.107H221.127v13.618h118.209V775.107z M221.129,822.207
		h118.21v-13.623h-118.21V822.207z M221.129,855.684h118.21v-13.62h-118.21V855.684z M221.129,889.16h118.21v-13.621h-118.21V889.16
		z"/>
	<path d="M402.135,738.631h23.088v-40.637h29.322v40.637h17.314v28.626h-17.314v28.859c5.617-2.078,10.62-3.996,15.008-5.77
		c1.077,12.16,2.152,22.394,3.229,30.705l-18.237,7.508v63.602c0,8.544-1.54,15.184-4.616,19.914
		c-3.082,4.733-7.985,7.562-14.719,8.486c-6.735,0.922-16.065,1.384-27.996,1.384c-1.54-8.928-3.461-18.931-5.772-30.013h18.009
		c3.849,0,5.772-3.08,5.772-9.236v-41.443l-17.547,7.968l-6.003-33.246l23.55-8.772v-39.945h-23.088V738.631z M466.09,843.447h39.94
		v-24.475h-28.629v-29.548h28.629v-24.013h-29.092v-29.551h29.092v-40.172h30.476v227.644H506.03v-50.332h-39.94V843.447z
		 M556.821,695.688h29.551v40.171h40.174v29.551h-40.174v24.013h36.021v29.549h-36.021v24.475h44.097v29.551h-44.097v50.332h-29.551
		V695.688z"/>
	<path d="M654.253,916.867V715.312h196.936v201.556h-34.63v-16.393H688.883v16.393H654.253z M816.559,746.941H688.883v121.9h127.676
		V746.941z"/>
</g>
</svg>
