<?xml version="1.0" encoding="utf-8"?>
<!-- Generator: Adobe Illustrator 16.0.0, SVG Export Plug-In . SVG Version: 6.00 Build 0)  -->
<!DOCTYPE svg PUBLIC "-//W3C//DTD SVG 1.1//EN" "http://www.w3.org/Graphics/SVG/1.1/DTD/svg11.dtd">
<svg version="1.1" id="图层_1" xmlns="http://www.w3.org/2000/svg" xmlns:xlink="http://www.w3.org/1999/xlink" x="0px" y="0px"
	 width="1000px" height="1000px" viewBox="0 0 1000 1000" enable-background="new 0 0 1000 1000" xml:space="preserve">
<g id="图层_12_2_">
	<path d="M511.268,195.069c19.315,32.723,38.18,64.263,56.596,96.06c9.6,16.568,19.554,33.085,27.314,50.529
		c11.89,26.719,24.726,53.477,23.314,84.011c-1.292,27.909-11.764,51.218-32.886,70.125c-23.294,20.848-50.602,31.464-81.171,30.106
		c-15.253-0.679-30.682-6.697-45.205-12.405c-24.667-9.691-41.361-29.028-51.652-52.525c-7.796-17.8-9.624-37.209-5.624-57.202
		c7.745-38.704,25.771-72.943,44.807-106.645c17.544-31.054,36.813-61.133,55.461-91.556
		C504.086,202.524,506.911,200.068,511.268,195.069z"/>
	<path d="M677.123,121.787c11.374,19.271,22.484,37.845,33.328,56.569c5.653,9.757,11.516,19.484,16.086,29.757
		c7.002,15.734,14.562,31.492,13.729,49.474c-0.76,16.435-6.928,30.162-19.366,41.295c-13.718,12.277-29.8,18.529-47.802,17.729
		c-8.981-0.4-18.068-3.944-26.621-7.306c-14.525-5.707-24.357-17.093-30.418-30.932c-4.59-10.482-5.667-21.912-3.312-33.686
		c4.563-22.792,15.177-42.957,26.388-62.802c10.332-18.287,21.68-36,32.661-53.917C672.894,126.178,674.559,124.732,677.123,121.787
		z"/>
	<path d="M370.081,72c8.593,14.558,16.984,28.59,25.179,42.735c4.27,7.371,8.697,14.72,12.152,22.48
		c5.29,11.886,11,23.792,10.373,37.376c-0.575,12.416-5.232,22.786-14.631,31.197c-10.363,9.275-22.512,13.998-36.112,13.394
		c-6.786-0.302-13.65-2.979-20.11-5.519c-10.973-4.312-18.401-12.913-22.979-23.368c-3.468-7.919-4.282-16.553-2.502-25.449
		c3.446-17.219,11.465-32.452,19.935-47.445c7.804-13.815,16.377-27.197,24.673-40.732C366.886,75.317,368.143,74.225,370.081,72z"
		/>
	<rect x="136.04" y="574.284" width="731.92" height="107.079"/>
</g>
<g>
	<path d="M150.08,889.427h-16.259v-87.126h45.99v-10.193h-50.48v-15.53h117.947v15.53h-50.481v10.193h45.99v69.046
		c0,4.69-0.86,8.404-2.579,11.133c-1.72,2.73-4.329,4.632-7.828,5.704c-3.499,1.07-11.477,1.608-23.935,1.608
		c-0.646-3.722-1.739-9.021-3.276-15.896c5.42,0.324,9.99,0.484,13.712,0.484c5.097,0,7.645-2.426,7.645-7.28v-6.067l-9.101,11.406
		c-6.068-4.771-12.944-9.665-20.629-14.682v30.215h-16.986v-24.634l-9.102,11.65c-7.362-5.782-14.238-10.618-20.628-14.5V889.427
		L150.08,889.427z M157.604,820.867c6.633,3.559,14.035,7.968,22.207,13.227v-16.746h-29.73v14.137L157.604,820.867z
		 M158.333,848.412c7.604,4.693,14.764,9.426,21.479,14.198v-27.242l-8.13,11.588c-6.553-4.813-13.753-9.426-21.6-13.833v25.786
		L158.333,848.412z M204.321,820.383c7.241,3.883,14.643,8.272,22.207,13.166v-16.201h-29.73v13.651L204.321,820.383z
		 M204.806,845.864c6.633,3.883,13.875,8.634,21.721,14.257v-25.3l-8.13,11.527c-7.079-4.975-14.279-9.544-21.6-13.71v23.723
		L204.806,845.864z"/>
	<path d="M298.729,797.205v14.681c-5.745,28.153-18.607,50.804-38.589,67.953c-2.993-6.957-5.824-12.66-8.495-17.109
		c14.724-12.538,25.078-29.041,31.064-49.509h-26.937v-16.018h42.956V797.205z M370.321,798.66
		c-9.141,9.144-19.598,18.405-31.366,27.789c9.222,13.833,20.527,25.199,33.916,34.097c-3.154,4.452-6.553,10.193-10.193,17.232
		c-16.625-12.013-30.175-29.445-40.651-52.299v43.561c0,5.622-1.225,10.053-3.671,13.29c-2.448,3.235-5.885,5.227-10.314,5.976
		c-4.429,0.747-12.306,1.121-23.631,1.121c-1.214-6.795-2.669-13.106-4.368-18.93c5.824,0.647,11.607,0.971,17.352,0.971
		c5.177,0,7.767-3.155,7.767-9.465v-90.402h16.865v20.325c2.509,7.159,5.38,13.915,8.617,20.265
		c9.91-8.817,18.524-17.33,25.846-25.544L370.321,798.66z"/>
	<path d="M376.995,833.485h27.849c0.202-2.101,0.305-10.031,0.305-23.783h-23.906v-15.775h23.906v-22.69h17.593v22.69h32.158v-22.69
		h17.593v22.69h20.386v15.775h-20.386v23.783h24.635v15.774h-24.635v39.802h-17.593V849.26h-34.705
		c-4.126,17.353-13.349,31.388-27.667,42.106c-4.208-3.639-9.303-7.766-15.289-12.376c11.89-7.929,19.979-17.838,24.269-29.73
		h-24.513V833.485z M422.499,833.485h32.4v-23.783H422.74C422.742,820.786,422.66,828.714,422.499,833.485z"/>
	<path d="M503.192,826.206h49.025v-9.829h5.643c-3.236-5.864-7.059-12.135-11.469-18.808l10.133-5.34l-46.413,1.457
		c-1.133-5.016-2.469-10.314-4.005-15.896c43.604-0.566,78.348-1.78,104.235-3.642l5.339,15.533l-55.211,2.425
		c4.975,6.957,8.938,12.823,11.889,17.596l-12.679,6.673h9.647v9.83h49.63v15.411H579.58c11.689,11.933,25.989,21.194,42.896,27.787
		c-3.562,3.964-7.201,8.776-10.92,14.439c-18.001-9.464-32.075-20.789-42.229-33.976v40.286h-17.109v-40.165
		c-10.397,13.226-24.188,24.755-41.379,34.583c-3.075-4.773-6.674-9.627-10.799-14.562c16.097-6.833,29.828-16.3,41.195-28.394
		h-38.041v-15.41H503.192z M521.273,795.142c5.662,5.988,11.202,12.298,16.625,18.932l-12.984,9.465
		c-4.854-6.636-10.071-13.188-15.653-19.658L521.273,795.142z M597.721,792.107l13.229,8.739
		c-5.906,7.278-12.459,14.644-19.66,22.082l-11.648-9.706C586.273,806.266,592.3,799.228,597.721,792.107z"/>
	<path d="M626.479,792.837h13.955v-21.479h15.41v21.479h11.529v15.896h-11.529v8.858c6.591,4.288,11.973,8.171,16.139,11.649
		l-8.738,13.59c-2.425-2.589-4.893-5.056-7.4-7.401v55.211h-15.41v-49.874c-3.603,9.307-7.485,17.395-11.65,24.271
		c-0.971-5.259-2.508-12.701-4.611-22.329c6.066-9.585,11.041-20.91,14.926-33.975h-12.621v-15.896H626.479z M665.916,850.354
		h30.822v-14.561h-23.542V821.23h23.542v-14.076h-25.847v-14.56h16.745c-3.074-4.977-6.309-9.788-9.708-14.441l11.77-7.887
		c4.206,5.096,8.616,10.759,13.229,16.988l-7.828,5.339h14.742c4.893-7.847,9.182-15.248,12.862-22.207l14.44,6.433
		c-3.438,5.542-6.794,10.798-10.071,15.774h13.834v14.56h-27.183v14.076h24.998v14.562h-24.998v14.561h31.793v14.562h-31.793v25.726
		h-16.988v-25.726h-30.822v-14.56H665.916z"/>
	<path d="M764.083,856.178l14.927,6.309c-3.884,8.495-8.899,18.324-15.047,29.487l-14.197-7.523
		C755.347,874.582,760.119,865.157,764.083,856.178z M763.477,806.427h35.919v-35.189h17.231v10.193h50.845v15.288h-50.845v9.709
		h41.014v46.111h-94.161v-46.112H763.477z M839.923,821.23h-58.729v16.504h58.729V821.23z M798.666,858.241
		c3.803,10.031,6.877,18.727,9.225,26.089l-15.776,4.005c-3.316-10.761-6.188-19.416-8.615-25.969L798.666,858.241z
		 M827.304,857.027c3.561,7.847,7.12,16.342,10.678,25.482l-15.896,4.854c-2.991-8.819-6.228-17.352-9.705-25.604L827.304,857.027z
		 M855.213,855.207c5.099,9.627,9.788,19.334,14.077,29.123l-15.17,5.946c-4.854-11.003-9.342-20.667-13.468-29.001L855.213,855.207
		z"/>
</g>
</svg>
