<?xml version="1.0" encoding="utf-8"?>
<!-- Generator: Adobe Illustrator 16.0.0, SVG Export Plug-In . SVG Version: 6.00 Build 0)  -->
<!DOCTYPE svg PUBLIC "-//W3C//DTD SVG 1.1//EN" "http://www.w3.org/Graphics/SVG/1.1/DTD/svg11.dtd">
<svg version="1.1" id="图层_1" xmlns="http://www.w3.org/2000/svg" xmlns:xlink="http://www.w3.org/1999/xlink" x="0px" y="0px"
	 width="1000px" height="1000px" viewBox="0 0 1000 1000" enable-background="new 0 0 1000 1000" xml:space="preserve">
<g id="图层_6_2_">
	<g>
		<path d="M780.588,136.556c-0.176,63.283-0.648,126.569-0.27,189.849c0.07,11.908-2.863,17.964-15.459,18.706
			c-6.354,0.378-14.926-0.587-15.414,10.48c-0.078,1.657-6.615,3.607-10.381,4.416c-13.729,2.943-27.551,5.461-43.021,8.467
			c21.268,21.71,40.736,41.731,60.469,61.484c1.904,1.903,5.451,3.028,8.242,3.04c40.234,0.19,80.469,0.132,122.646,0.132
			c0-16.078,0-31.057,0-47.004c16.949,0,31.959,0,48.127,0c0,46.012,0,91.581,0,138.044c-15.512,0-30.535,0-47.197,0
			c0-14.168,0-27.706,0-43.333c-14.209,0-26.816,0-39.426,0c-31.137,0-62.275-0.417-93.393,0.219
			c-11.523,0.232-20.01-2.824-28.23-11.321c-26.617-27.5-54.385-53.883-81.076-81.313c-6.941-7.133-13.297-8.787-22.855-6.952
			c-74.139,14.237-148.348,28.098-222.632,41.54c-7.001,1.27-15.657,0.88-21.88-2.157
			c-102.241-49.87-204.22-100.284-306.245-150.602c-2.22-1.095-4.313-2.446-10.119-5.766c15.457-3.129,27.403-5.712,39.413-7.955
			c196.054-36.622,392.102-73.268,588.217-109.542c7.77-1.439,17.713-8.65,24.102,3.695c0.41,0.786,3.881,0.424,5.764-0.051
			c18.186-4.614,36.336-9.365,54.494-14.078C776.506,136.556,778.545,136.556,780.588,136.556z"/>
		<path d="M182.294,341.806c55.375,28.995,107.453,56.266,164.013,85.879c-14.153,2.823-23.714,4.867-33.323,6.621
			c-21.513,3.922-42.919,9.08-64.615,11.186c-26.23,2.545-44.113-9.104-51.207-33.554
			C190.858,390.194,187.615,367.563,182.294,341.806z"/>
	</g>
</g>
<g>
	<path d="M136.259,824.996h23.888V755.24h189.671v69.756h23.889v29.857H136.259V824.996L136.259,824.996z M153.459,637.711h32.965
		v105.107h-32.965V637.711z M193.828,824.996h20.065v-40.609h-20.065V824.996z M270.27,626.244l34.162,5.258
		c-1.835,8.281-3.864,16.404-6.094,24.363h71.785v30.58h-82.175c-7.011,17.836-15.449,34.875-25.323,51.117
		c-7.486-4.938-15.768-9.711-24.845-14.33v28.662h-33.443V627.441h33.443v84.803C253.788,685.488,264.619,656.822,270.27,626.244z
		 M244.95,824.996h20.068v-40.609H244.95V824.996z M306.583,690.742c20.065,14.971,35.83,27.711,47.295,38.223l-23.889,25.08
		c-12.581-12.42-27.55-25.561-44.907-39.418L306.583,690.742z M316.138,784.387h-20.066v40.609h20.066V784.387z"/>
	<path d="M382.544,672.111h21.977v-42.52h28.906v42.52h16.246v30.574h-16.246v35.951l17.916-4.422
		c-1.275,10.83-1.594,21.662-0.955,32.486l-16.961,4.658v61.988c0,7.963-1.354,14.113-4.059,18.453
		c-2.71,4.338-6.554,6.945-11.527,7.824c-4.979,0.873-14.992,1.512-30.039,1.912c-1.278-9.398-3.426-19.828-6.451-31.295
		c4.14,0.479,9.713,0.715,16.719,0.715c4.141,0,6.288-3.344,6.451-10.031v-41.924l-22.691,5.852l-1.911-34.398
		c7.884-1.51,16.083-3.223,24.603-5.137V702.68h-21.977V672.111L382.544,672.111z M465.2,758.348h137.597v29.143h-53.512v36.307
		h65.928v29.146H450.865v-29.146h67.844V787.49H465.2V758.348L465.2,758.348z M527.309,715.826l-54.467,40.129L453.254,733.5
		c15.768-10.35,33.283-23.168,52.554-38.459L527.309,715.826z M459.466,655.15h57.571l-6.211-20.785l33.922-6.449
		c2.785,9.24,5.217,18.318,7.287,27.234h59.838v48.256h-30.102v-19.111h-92.208v19.111h-30.098V655.15z M541.162,716.066
		l20.305-20.305c14.973,10.352,32.729,23.252,53.273,38.697l-20.785,22.455C587.426,751.658,569.828,738.043,541.162,716.066z"/>
	<path d="M654.631,794.896l29.383,12.418c-7.645,16.723-17.518,36.072-29.619,58.049l-27.949-14.811
		C637.434,831.127,646.83,812.572,654.631,794.896z M653.438,696.955h70.713v-69.271h33.92v20.064h100.092v30.096H758.07v19.111
		h80.74v90.777H653.441v-90.777H653.438z M803.932,726.098H688.314v32.488h115.617V726.098z M722.713,798.957
		c7.484,19.748,13.533,36.867,18.156,51.359l-31.057,7.885c-6.529-21.184-12.182-38.225-16.959-51.123L722.713,798.957z
		 M779.09,796.564c7.008,15.451,14.014,32.172,21.023,50.17l-31.295,9.555c-5.893-17.361-12.264-34.162-19.107-50.404
		L779.09,796.564z M834.031,792.984c10.037,18.949,19.27,38.061,27.711,57.332l-29.861,11.707
		c-9.555-21.662-18.393-40.689-26.514-57.094L834.031,792.984z"/>
</g>
</svg>
