<?xml version="1.0" encoding="utf-8"?>
<!-- Generator: Adobe Illustrator 16.0.0, SVG Export Plug-In . SVG Version: 6.00 Build 0)  -->
<!DOCTYPE svg PUBLIC "-//W3C//DTD SVG 1.1//EN" "http://www.w3.org/Graphics/SVG/1.1/DTD/svg11.dtd">
<svg version="1.1" id="图层_1" xmlns="http://www.w3.org/2000/svg" xmlns:xlink="http://www.w3.org/1999/xlink" x="0px" y="0px"
	 width="1000px" height="1000px" viewBox="0 0 1000 1000" enable-background="new 0 0 1000 1000" xml:space="preserve">
<g id="图层_17_2_">
	<rect x="207.427" y="212.46" width="582.269" height="86.206"/>
	<path d="M258.849,70.296V212.46h479.427V70.296H258.849z M396.476,188.262h-89.23V99.031h89.23V188.262z M548.47,188.262h-89.23
		V99.031h89.23V188.262z M700.466,188.262h-89.231V99.031h89.231V188.262z"/>
	<g>
		<path d="M611.209,318.945c10.24,17.35,20.243,34.074,30.007,50.933c5.091,8.785,10.368,17.542,14.483,26.792
			c6.305,14.166,13.11,28.353,12.361,44.544c-0.686,14.797-6.236,27.157-17.437,37.181c-12.351,11.054-26.831,16.683-43.038,15.963
			c-8.087-0.36-16.269-3.552-23.969-6.578c-13.078-5.138-21.93-15.39-27.386-27.849c-4.134-9.438-5.104-19.729-2.983-30.329
			c4.109-20.522,13.665-38.677,23.759-56.544c9.303-16.465,19.52-32.414,29.407-48.545
			C607.399,322.898,608.899,321.597,611.209,318.945z"/>
		<path d="M490.742,464.135c13.581,23.008,26.843,45.183,39.792,67.538c6.75,11.65,13.749,23.263,19.205,35.526
			c8.359,18.786,17.385,37.6,16.391,59.067c-0.908,19.623-8.271,36.012-23.121,49.305c-16.377,14.658-35.579,22.123-57.071,21.168
			c-10.724-0.477-21.573-4.71-31.784-8.722c-17.343-6.814-29.082-20.407-36.316-36.93c-5.481-12.517-6.767-26.162-3.954-40.221
			c5.446-27.211,18.12-51.285,31.505-74.981c12.334-21.833,25.884-42.982,38.995-64.372
			C485.692,469.376,487.679,467.648,490.742,464.135z"/>
		<path d="M367.39,336.286c6.657,11.279,13.158,22.148,19.505,33.108c3.308,5.71,6.739,11.402,9.413,17.414
			c4.099,9.208,8.523,18.432,8.035,28.955c-0.445,9.619-4.053,17.653-11.333,24.169c-8.028,7.185-17.44,10.844-27.976,10.377
			c-5.257-0.235-10.575-2.31-15.581-4.276c-8.501-3.34-14.256-10.003-17.802-18.103c-2.687-6.134-3.317-12.824-1.938-19.714
			c2.669-13.34,8.882-25.14,15.443-36.755c6.046-10.702,12.688-21.069,19.115-31.555
			C364.914,338.854,365.889,338.008,367.39,336.286z"/>
	</g>
</g>
<g>
	<path d="M212.281,857.114l25.475,8.632c-6.848,19.721-13.422,37.118-19.721,52.182l-24.86-10.888
		C200.432,891.424,206.803,874.785,212.281,857.114z M219.882,761.79h34.412c-4.999-8.422-10.031-16.434-15.1-24.034l25.475-9.656
		c6.301,8.354,13.081,17.736,20.34,28.143l-14.073,5.548h34.412c7.531-10.203,14.998-21.021,22.393-32.461l30.611,6.163
		l-20.854,26.296h34.412v82.998h-71.801c7.872,7.262,16.126,15.407,24.753,24.45l-20.953,18.281
		c-9.726-11.505-19.176-22.117-28.351-31.844l12.839-10.888h-68.514V761.79H219.882z M332.874,874.371
		c10.956,6.029,19.859,10.617,26.709,13.766c-5.066,19.653-10.906,31.347-17.512,35.079c-6.611,3.73-14.397,5.598-23.368,5.598
		h-46.636c-20.544,0-30.815-9.93-30.815-29.788v-43.555h27.118v36.363c0,7.259,4.382,10.89,13.146,10.89h31.023
		c4.381,0,8.062-0.839,11.042-2.519c2.98-1.675,4.895-4.397,5.751-8.166C330.186,888.275,331.369,882.384,332.874,874.371z
		 M341.503,787.265h-91.216v32.049h91.216V787.265z M378.481,857.525c7.259,16.986,13.899,33.42,19.929,49.307l-26.503,9.861
		c-5.889-17.804-12.19-34.376-18.9-49.718L378.481,857.525z"/>
	<path d="M404.367,767.955h20.544v-36.159h26.092v36.159h15.408v25.473h-15.408v25.681c4.999-1.85,9.45-3.559,13.355-5.135
		c0.956,10.82,1.915,19.927,2.873,27.322l-16.228,6.681v56.595c0,7.603-1.37,13.508-4.107,17.72
		c-2.743,4.212-7.106,6.729-13.097,7.551c-5.993,0.821-14.295,1.232-24.912,1.232c-1.37-7.944-3.079-16.848-5.137-26.707h16.025
		c3.425,0,5.136-2.74,5.136-8.218v-36.878l-15.613,7.09l-5.342-29.585l20.955-7.805v-35.544h-20.544V767.955L404.367,767.955z
		 M461.276,861.225h35.54v-21.778h-25.475v-26.293h25.475v-21.367H470.93v-26.298h25.887v-35.743h27.118v202.563h-27.118v-44.786
		h-35.54V861.225z M542.012,729.743h26.295v35.743h35.748v26.298h-35.748v21.367h32.05v26.293h-32.05v21.778h39.238v26.293h-39.238
		v44.788h-26.295V729.743z"/>
	<path d="M628.709,926.555V747.206h175.239v179.349h-30.815v-14.587H659.523v14.587H628.709z M773.133,775.351H659.523v108.471
		h113.609V775.351z"/>
</g>
</svg>
