<?xml version="1.0" encoding="utf-8"?>
<!-- Generator: Adobe Illustrator 16.0.0, SVG Export Plug-In . SVG Version: 6.00 Build 0)  -->
<!DOCTYPE svg PUBLIC "-//W3C//DTD SVG 1.1//EN" "http://www.w3.org/Graphics/SVG/1.1/DTD/svg11.dtd">
<svg version="1.1" id="图层_1" xmlns="http://www.w3.org/2000/svg" xmlns:xlink="http://www.w3.org/1999/xlink" x="0px" y="0px"
	 width="1000px" height="1000px" viewBox="0 0 1000 1000" enable-background="new 0 0 1000 1000" xml:space="preserve">
<g id="图层_18_2_">
	<g>
		<rect x="198.559" y="147.717" fill="#1E1E1E" width="592" height="59.952"/>
		<rect x="198.559" y="529.42" fill="#1E1E1E" width="592" height="59.951"/>
		<rect x="273.731" y="73.21" fill="#1E1E1E" width="59.95" height="592"/>
		<rect x="665.518" y="73.21" fill="#1E1E1E" width="59.95" height="592"/>
		<rect x="447.746" y="313.362" fill="#1E1E1E" width="103.707" height="103.708"/>
	</g>
</g>
<g>
	<path d="M108.337,799.929c9.321,6.703,17.908,13.459,25.764,20.264l-14.767,16.339c-6.389-6.389-14.61-13.668-24.666-21.837
		L108.337,799.929z M112.578,843.602c6.284,3.353,12.934,6.232,19.952,8.641l-16.339,58.126c-6.912-2.829-13.824-5.291-20.736-7.384
		C101.528,885.809,107.237,866.016,112.578,843.602z M113.364,758.298c7.959,5.762,16.547,12.674,25.764,20.736l-14.14,15.553
		c-8.903-8.796-17.122-16.231-24.663-22.307L113.364,758.298z M135.357,807.47h33.619c1.99-2.619,3.873-5.368,5.655-8.248
		l-29.063,1.178l-6.282-15.71c10.891-3.456,24.453-13.354,40.688-29.688l18.693,10.523c-11.101,8.168-19.95,14.295-26.549,18.38
		l35.032-1.177c-2.514-2.042-5.081-4.056-7.696-6.048l13.353-11.155c11.834,8.379,22.829,17.123,32.989,26.236l-14.139,13.038
		c-2.565-2.565-5.185-5.079-7.854-7.543l-26.079,1.021c-1.675,3.142-3.455,6.205-5.342,9.19h53.883v16.18h-27.334
		c7.96,7.752,18.957,13.461,32.989,17.124c-4.294,4.924-8.694,10.369-13.196,16.339c-17.28-7.227-30.946-18.381-41.001-33.463
		h-17.281c-7.75,8.694-15.212,15.503-22.387,20.423c14.503-4.293,26.679-9.109,36.524-14.453l9.74,12.883
		c-14.873,8.169-30.582,14.296-47.131,18.381c-2.669-5.027-4.844-8.928-6.519-11.704c-3.928,2.565-8.091,5.105-12.491,7.621
		c-4.085-6.075-8.17-11.416-12.253-16.026c11.833-5.653,21.077-11.361,27.728-17.124h-18.301V807.47H135.357z M242.027,878.319
		c-31.315,17.385-63.52,28.75-96.615,34.092c-1.885-4.713-4.504-10.266-7.854-16.651c34.455-5.655,65.611-15.867,93.473-30.635
		L242.027,878.319z M210.451,848.314l10.682,12.097c-20.213,11.101-44.093,19.794-71.636,26.077
		c-2.307-4.818-5.081-9.949-8.326-15.397C167.878,865.962,190.971,858.369,210.451,848.314z"/>
	<path d="M260.563,896.544l-5.341-21.364c5.97-1.257,11.834-2.514,17.595-3.771v-57.026h-16.338V793.33h16.338v-36.917h20.736
		v36.917h15.553v21.053h-15.553v52.156c5.552-1.362,10.945-2.723,16.182-4.087c0.104,7.438,0.26,14.507,0.471,21.209
		C291.146,888.374,274.596,892.667,260.563,896.544z M395.353,850.671c6.7,2.723,12.2,4.922,16.494,6.599
		c-0.628,10.473-1.518,20.107-2.671,28.905c-1.257,15.08-8.169,22.621-20.737,22.621h-5.654c-13.302,0-19.95-7.122-19.95-21.364
		v-55.456H342.88c0,2.097-0.155,8.641-0.47,19.638c-0.524,27.335-8.537,47.393-24.036,60.169
		c-3.771-4.295-9.164-9.794-16.182-16.496c12.987-9.74,19.325-25.291,19.009-46.655c0.316-8.589,0.472-20.843,0.472-36.762h62.683
		v70.85c-0.107,4.295,1.046,6.336,3.454,6.127h0.787c2.932,0,4.557-2.723,4.869-8.17
		C394.41,872.403,395.038,862.402,395.353,850.671z M312.404,777.936h34.403c-1.884-4.609-4.137-10.002-6.754-16.184l22.623-6.127
		c3.454,8.694,6.282,16.13,8.482,22.311h33.617v19.951h-92.372V777.936L312.404,777.936z"/>
	<path d="M467.146,895.678l-16.261,15.947c-7.75-8.537-18.146-18.722-31.183-30.556l15.396-14.769
		C444.313,873.371,454.996,883.163,467.146,895.678z"/>
	<path d="M590.938,799.929c9.321,6.703,17.908,13.459,25.766,20.264l-14.77,16.339c-6.388-6.389-14.609-13.668-24.664-21.837
		L590.938,799.929z M595.181,843.602c6.282,3.353,12.933,6.232,19.95,8.641l-16.337,58.126c-6.912-2.829-13.825-5.291-20.737-7.384
		C584.13,885.809,589.839,866.016,595.181,843.602z M595.966,758.298c7.959,5.762,16.548,12.674,25.766,20.736l-14.14,15.553
		c-8.903-8.796-17.122-16.231-24.663-22.307L595.966,758.298z M617.959,807.47h33.616c1.99-2.619,3.875-5.368,5.655-8.248
		l-29.063,1.178l-6.284-15.71c10.89-3.456,24.453-13.354,40.687-29.688l18.695,10.523c-11.103,8.168-19.952,14.295-26.549,18.38
		l35.034-1.177c-2.514-2.042-5.081-4.056-7.7-6.048l13.354-11.155c11.835,8.379,22.83,17.123,32.992,26.236l-14.14,13.038
		c-2.565-2.565-5.184-5.079-7.856-7.543l-26.077,1.021c-1.675,3.142-3.455,6.205-5.342,9.19h53.885v16.18h-27.334
		c7.96,7.752,18.956,13.461,32.992,17.124c-4.296,4.924-8.693,10.369-13.197,16.339c-17.281-7.227-30.947-18.381-41.002-33.463
		h-17.279c-7.752,8.694-15.215,15.503-22.388,20.423c14.505-4.293,26.681-9.109,36.526-14.453l9.739,12.883
		c-14.871,8.169-30.58,14.296-47.128,18.381c-2.671-5.027-4.843-8.928-6.52-11.704c-3.928,2.565-8.091,5.105-12.49,7.621
		c-4.086-6.075-8.169-11.416-12.254-16.026c11.835-5.653,21.075-11.361,27.728-17.124h-18.301V807.47z M724.628,878.319
		c-31.315,17.385-63.521,28.75-96.616,34.092c-1.884-4.713-4.503-10.266-7.855-16.651c34.455-5.655,65.613-15.867,93.475-30.635
		L724.628,878.319z M693.051,848.314l10.681,12.097c-20.215,11.101-44.091,19.794-71.636,26.077
		c-2.305-4.818-5.079-9.949-8.326-15.397C650.478,865.962,673.571,858.369,693.051,848.314z"/>
	<path d="M738.923,837.16h36.053c0.263-2.72,0.396-12.986,0.396-30.79h-30.949v-20.424h30.949V756.57h22.777v29.376h41.63V756.57
		h22.782v29.376h26.388v20.424h-26.388v30.79h31.889v20.422h-31.889v51.529h-22.782v-51.529h-44.928
		c-5.343,22.466-17.282,40.636-35.818,54.513c-5.447-4.711-12.045-10.053-19.795-16.022c15.396-10.264,25.866-23.093,31.419-38.49
		h-31.733V837.16z M797.834,837.16h41.944v-30.79h-41.633C798.148,820.716,798.042,830.981,797.834,837.16z"/>
</g>
</svg>
