<?xml version="1.0" encoding="utf-8"?>
<!-- Generator: Adobe Illustrator 16.0.0, SVG Export Plug-In . SVG Version: 6.00 Build 0)  -->
<!DOCTYPE svg PUBLIC "-//W3C//DTD SVG 1.1//EN" "http://www.w3.org/Graphics/SVG/1.1/DTD/svg11.dtd">
<svg version="1.1" id="图层_1" xmlns="http://www.w3.org/2000/svg" xmlns:xlink="http://www.w3.org/1999/xlink" x="0px" y="0px"
	 width="1000px" height="1000px" viewBox="0 0 1000 1000" enable-background="new 0 0 1000 1000" xml:space="preserve">
<g>
	
		<rect x="115.983" y="140.676" fill="#FFFFFF" stroke="#000000" stroke-width="18" stroke-miterlimit="10" width="773.506" height="181.566"/>
	
		<rect x="115.983" y="323.313" fill="#FFFFFF" stroke="#000000" stroke-width="18" stroke-miterlimit="10" width="192.273" height="270.526"/>
	
		<rect x="309.736" y="323.313" fill="#FFFFFF" stroke="#000000" stroke-width="18" stroke-miterlimit="10" width="192.264" height="270.526"/>
	
		<rect x="503.472" y="323.313" fill="#FFFFFF" stroke="#000000" stroke-width="18" stroke-miterlimit="10" width="192.266" height="270.526"/>
	
		<rect x="697.216" y="323.313" fill="#FFFFFF" stroke="#000000" stroke-width="18" stroke-miterlimit="10" width="192.273" height="270.526"/>
</g>
<g>
	<path d="M79.983,823.236V710.117h109.508v112.999h-16.847v-4.212H96.829v4.332H79.983z M172.645,724.076H96.831v80.868h75.814
		V724.076z M164.342,757.892v39.353h-59.208v-39.353h21.181v-9.146H100.08v-13.717h26.235v-7.703h16.847v7.703h26.235v13.717
		h-26.235v9.146H164.342z M120.538,783.764h28.401v-12.395h-28.401V783.764z"/>
	<path d="M217.531,705.664l15.524,3.971c-2.688,10.271-5.617,19.837-8.784,28.702v48.917c12.835-13.397,22.362-29.08,28.58-47.053
		H231.13v-15.042h31.41v-19.495h15.884v19.495h34.658v15.042h-25.934c6.098,17.049,16.346,32.131,30.747,45.248
		c-3.449,5.216-6.939,10.912-10.47,17.088c-3.21-3.329-6.218-7.019-9.027-11.07v12.396h-19.976v20.217h-15.883v-20.217h-19.375
		v-12.877c-3.09,4.612-6.459,9.025-10.108,13.236c-2.368-3.85-5.296-8.4-8.784-13.656v33.272H209.83v-52.95
		c-2.569,4.614-5.216,8.906-7.942,12.876c-0.963-7.299-2.248-14.88-3.852-22.741C204.375,749.146,210.873,730.696,217.531,705.664z
		 M244.668,788.698h17.87v-41.697C258.688,762.284,252.73,776.184,244.668,788.698z M278.423,747.662v41.036h18.109
		C289.232,777.548,283.196,763.869,278.423,747.662z"/>
	<path d="M431.012,782.079c-5.094,7.704-10.949,14.441-17.567,20.218c8.181,3.209,17.408,5.174,27.678,5.897
		c-2.968,5.055-5.777,10.146-8.424,15.284c-12.836-1.767-24.127-5.336-33.874-10.71c-8.906,5.254-18.874,9.227-29.904,11.912
		c-2.328-4.813-5.096-9.466-8.303-13.959c9.104-1.925,17.228-4.473,24.368-7.642c-4.212-3.689-8.002-7.861-11.372-12.515
		c-6.419,9.908-13.921,18.391-22.505,25.452c-2.525-4.855-5.154-9.266-7.882-13.238c-1.966,8.182-4.715,15.483-8.244,21.9
		c-3.45-3.368-7.983-7.221-13.6-11.552c6.741-12.116,10.069-29.202,9.989-51.266v-44.767h47.775
		c-1.244-3.129-2.368-5.816-3.371-8.062l17.931-4.573l5.055,12.635h41.155v14.079h-26.895c5.695,3.73,10.531,7.302,14.501,10.711
		l-6.258,6.858h17.69v12.876h-51.265c-0.961,2.689-1.985,5.296-3.068,7.824h46.39V782.079L431.012,782.079z M347.137,764.15
		c0,14.041-1.022,25.751-3.069,35.139c11.874-9.869,20.998-22.423,27.376-37.668h-21.058l5.656-26.233l14.319,1.564
		c-1.525,6.098-2.568,10.029-3.129,11.792h7.823c1.605-6.978,2.606-12.274,3.007-15.885l15.765,1.205
		c-0.72,4.572-1.724,9.467-3.007,14.68h22.984c-3.69-3.207-7.943-6.537-12.755-9.986l7.641-7.583h-61.553V764.15z M412.603,782.079
		h-27.016c4.01,4.975,8.623,9.246,13.837,12.817C404.679,791.127,409.07,786.853,412.603,782.079z"/>
	<path d="M480.714,824.198h-15.162v-37.063c-6.58,1.203-12.837,2.446-18.774,3.729l-2.166-17.448
		c6.459-0.603,13.438-1.443,20.94-2.528V746.82h-7.823c-1.002,5.656-2.165,11.112-3.489,16.367
		c-3.771-2.408-7.021-4.214-9.748-5.417c2.889-12.354,4.772-26.354,5.656-41.998l11.071,1.083
		c-0.322,4.935-0.741,9.747-1.264,14.441h5.595v-25.273h15.162v25.273h8.787v4.813c5.535-10.592,9.866-20.939,12.996-31.05
		c5.777,1.045,11.15,2.086,16.125,3.131c-2.127,5.656-4.232,10.911-6.317,15.765h47.474c-0.118,13.92-0.421,28.961-0.903,45.126
		l-1.081,31.106c-0.241,4.535-1.125,8.414-2.647,11.645c-1.526,3.228-3.891,5.564-7.1,7.009c-3.21,1.443-11.653,1.946-25.333,1.505
		c-1.202-6.581-2.587-12.116-4.151-16.607c-5.618,7.02-12.335,13.358-20.157,19.014c-5.053-5.377-9.347-9.628-12.876-12.758
		c25.351-16.325,39.511-39.71,42.479-70.155h-5.957c-2.888,20.657-11.452,37.146-25.691,49.459
		c-2.368-2.287-4.554-4.332-6.559-6.136l-9.086,1.383V824.198L480.714,824.198z M493.59,756.929
		c-3.249-4.573-5.876-7.94-7.881-10.108h-4.997v21.723c3.491-0.561,7.102-1.183,10.83-1.865c-0.118,1.724-0.22,3.589-0.3,5.595
		c9.748-9.104,16.187-19.917,19.313-32.431h-5.896C500.97,746.699,497.28,752.396,493.59,756.929z M544.854,739.841h-5.293
		c-0.403,25.111-7.203,46.17-20.396,63.178c5.012,0.401,9.686,0.603,14.019,0.603c5.495,0,8.664-2.72,9.506-8.154
		S544.253,771.49,544.854,739.841z"/>
	<path d="M568.201,727.928h12.033v-21.181h15.283v21.181h9.026v14.921h-9.026v15.043c2.929-1.083,5.535-2.085,7.824-3.008
		c0.562,6.338,1.123,11.673,1.685,16.004l-9.509,3.914v33.15c0,4.454-0.803,7.912-2.405,10.38c-1.604,2.468-4.161,3.941-7.67,4.423
		c-3.512,0.481-8.376,0.722-14.594,0.722c-0.803-4.653-1.804-9.869-3.009-15.644h9.388c2.005,0,3.008-1.605,3.008-4.814v-21.602
		l-9.144,4.153l-3.13-17.33l12.273-4.571v-20.82h-12.033L568.201,727.928L568.201,727.928z M601.534,782.562h20.819v-12.757h-14.923
		v-15.401h14.923v-12.517h-15.161v-15.404h15.161v-20.938h15.886V824.2h-15.886v-26.235h-20.819V782.562z M648.828,705.544h15.403
		v20.938h20.94v15.404h-20.94v12.517h18.773v15.401h-18.773v12.756h22.985v15.402h-22.985v26.235h-15.403V705.544z"/>
	<path d="M763.391,704.821l16.487,4.333c-1.364,5.173-2.808,10.068-4.333,14.681h34.9v16.006h-6.924
		c-1.925,21.02-7.119,38.589-15.584,52.708c6.301,6.339,14,11.313,23.105,14.922c-3.451,4.653-6.976,10.028-10.591,16.127
		c-8.703-5.016-16.146-10.953-22.323-17.812c-7.06,7.661-15.462,13.88-25.209,18.653c-3.051-5.857-6.139-11.112-9.267-15.765
		c9.145-4.292,17.247-9.847,24.309-16.667c-5.215-8.865-8.886-18.873-11.01-30.024c-1.286,1.766-2.588,3.41-3.913,4.934
		c-2.245-3.208-4.812-6.537-7.701-9.988l-1.264,32.854c-0.402,10.389-0.943,17.037-1.624,19.946
		c-0.683,2.908-1.968,5.354-3.851,7.34c-1.886,1.985-4.614,3.229-8.184,3.731c-3.571,0.499-8.905,0.752-16.006,0.752
		c-1.203-6.539-2.447-12.014-3.729-16.427c-2.728,7.181-6.259,13.579-10.592,19.195c-2.008-3.933-5.134-9.709-9.386-17.331
		c3.811-5.692,6.679-12.173,8.604-19.434c1.926-7.26,2.927-14.822,3.009-22.684l0.24-24.551h-10.289v-15.766h23.106
		c-2.489-5.413-4.775-10.067-6.859-13.959l15.401-5.896c2.569,4.333,5.575,10.069,9.023,17.207l-6.618,2.647h22.864v15.765h-31.041
		l-0.242,12.877h26.354C752.923,741.164,759.301,725.039,763.391,704.821z M710.741,805.065c4.172,0.319,7.724,0.48,10.65,0.48
		c4.491,0,6.741-2.827,6.741-8.483l1.201-29.302h-11.788C717.062,781.92,714.794,794.354,710.741,805.065z M777.833,779.012
		c5.131-9.708,8.604-22.764,10.409-39.171h-18.773c-0.562,1.283-1.123,2.525-1.685,3.73
		C769.027,757.41,772.377,769.225,777.833,779.012z"/>
	<path d="M822.841,820.829V715.772h102.648v105.057h-18.05v-8.544h-66.549v8.544H822.841z M907.439,732.26h-66.549v63.538h66.549
		V732.26z"/>
</g>
</svg>
