<?xml version="1.0" encoding="utf-8"?>
<!-- Generator: Adobe Illustrator 16.0.0, SVG Export Plug-In . SVG Version: 6.00 Build 0)  -->
<!DOCTYPE svg PUBLIC "-//W3C//DTD SVG 1.1//EN" "http://www.w3.org/Graphics/SVG/1.1/DTD/svg11.dtd">
<svg version="1.1" xmlns="http://www.w3.org/2000/svg" xmlns:xlink="http://www.w3.org/1999/xlink" x="0px" y="0px"
	 width="1000.637px" height="1000.678px" viewBox="0 0 1000.637 1000.678" enable-background="new 0 0 1000.637 1000.678"
	 xml:space="preserve">
<g id="图层_1" display="none">
	<g id="图形" display="inline">
		<polygon fill="#282828" points="513.37,45.963 611.533,368.364 948.488,362.095 672.2,555.08 782.288,873.607 513.37,670.477 
			244.452,873.607 354.539,555.08 78.251,362.095 415.207,368.364 		"/>
	</g>
	<g id="图层_2">
		<path display="inline" fill="#282828" d="M947.604,360.095l-336.955,6.269L512.485,43.963l-98.163,322.401l-336.956-6.269
			L353.654,553.08L243.567,871.607l268.918-203.131l268.918,203.131L671.315,553.08L947.604,360.095z M756.41,835.607
			L513.485,652.112L270.561,835.607l99.446-287.737L120.425,373.538l304.385,5.663l88.676-291.238l88.675,291.238l304.385-5.663
			L656.962,547.869L756.41,835.607z"/>
	</g>
	<g id="图层_3">
		<g display="inline">
			<path d="M167.961,880.376c0-132.183,0-264.366,0-400.065c227.359,0,445.074,0,672.434,0c0,135.713,0,267.896,0,400.065
				c-88.725,0-177.444,0-266.172,0c0-59.388,0-118.79,0-178.849c-50.42,0-94.84,0-140.09,0c0,63.479,0,121.17,0,178.849
				C345.407,880.376,256.688,880.376,167.961,880.376z"/>
			<path d="M952.468,438.077c-288.614,0-577.229,0-865.845,0c-2.867-4.98-5.733-9.946-8.599-14.926
				C219.1,298.753,360.168,174.354,503.747,47.739c54.293,46.61,105.007,90.156,164.32,141.062
				c4.248-36.103,7.523-63.93,11.164-94.875c32.771,0,64.135,0,108.199,0c-38.936,158.56,22.99,266.117,165.037,330.143
				C952.468,428.734,952.468,433.412,952.468,438.077z"/>
		</g>
	</g>
	<g id="图层_4">
		<g display="inline">
			<path d="M951.485,482.102c0.072,241.361-195.874,437.243-437.337,437.184C273.383,919.224,77.534,723.328,77.485,482.51
				C77.44,241.09,273.326,45.231,514.776,45.284C755.574,45.338,951.41,241.223,951.485,482.102z M178.331,482.335
				c0.012,184.929,150.452,335.907,334.907,336.104c186.292,0.195,337.295-150.041,337.4-335.701
				c0.11-185.519-150.354-336.513-335.428-336.607C329.075,146.034,178.323,296.485,178.331,482.335z"/>
			<circle cx="514.485" cy="482.284" r="189.087"/>
		</g>
	</g>
	<g id="图层_5">
		<g display="inline">
			<path d="M513.329,47.917c2.254,0,4.503,0,6.757,0c74.969,61.004,149.755,122.219,224.96,182.941
				c68.142,55.023,136.745,109.515,206.786,165.554c-14.747,17.271-27.465,32.171-40.969,47.984
				c-14.526-9.301-27.03-17.311-44.688-28.62c0,158.097,0,310.786,0,465.14c-231.783,0-459.782,0-691.833,0
				c0-152.04,0-302.406,0-459.449c-22.386,16.481-38.945,28.678-56.508,41.607c-14.028-15.518-27.179-30.06-42.345-46.828
				c52.446-44.594,102.87-87.909,153.787-130.666C323.809,206.188,418.626,127.117,513.329,47.917z M549.689,490.403
				c22.158,33.553,34.792,59.135,53.362,79.623c65.214,71.936,111.882,146.802,55.99,245.268c46.779,0,91.354,0,136.898,0
				c1.313-5.483,3.144-9.556,3.149-13.636c0.226-141.321,0.476-282.635-0.135-423.949c-0.037-8.62-4.657-20.02-11.229-25.389
				c-89.564-73.175-179.854-145.515-271.27-219.113C428.428,206.58,340.91,278.715,254.872,352.475
				c-8.897,7.624-12.553,24.934-12.646,37.792c-0.901,129.265-0.55,258.537-0.55,387.801c0,11.733,0,23.462,0,37.048
				c45.849,0,87.84,0,128.031,0c-8.857-28.53-21.196-55.737-25.245-84.068c-7.243-50.649,4.904-99.926,37.134-139.863
				c75.509-93.572,154.258-184.661,231.052-275.994c6.751,45.505-9.422,88.088-38.582,127.377
				c-26.32,35.467-56.896,68.819-77.318,107.267c-14.763,27.791-19.635,62.141-22.01,94.056
				c-1.733,23.271,14.14,42.993,42.106,41.178c25.631-1.67,36.511-20.156,36.854-43.36c0.257-17.412-3.431-34.844-3.819-52.302
				C549.199,558.618,549.689,527.803,549.689,490.403z"/>
		</g>
	</g>
	<g id="图层_6">
		<g display="inline">
			<path d="M797.333,301.527c-0.177,63.283-0.649,126.569-0.271,189.849c0.071,11.908-2.862,17.964-15.459,18.706
				c-6.353,0.377-14.925-0.587-15.414,10.48c-0.078,1.657-6.615,3.607-10.38,4.416c-13.729,2.943-27.55,5.461-43.021,8.467
				c21.267,21.71,40.736,41.731,60.469,61.484c1.903,1.903,5.451,3.028,8.242,3.04c40.233,0.191,80.469,0.132,122.646,0.132
				c0-16.078,0-31.057,0-47.004c16.949,0,31.959,0,48.127,0c0,46.012,0,91.581,0,138.043c-15.511,0-30.536,0-47.198,0
				c0-14.167,0-27.705,0-43.332c-14.209,0-26.816,0-39.425,0c-31.136,0-62.275-0.417-93.393,0.219
				c-11.523,0.232-20.01-2.824-28.231-11.321c-26.616-27.5-54.383-53.883-81.076-81.313c-6.94-7.133-13.296-8.787-22.855-6.952
				c-74.138,14.237-148.348,28.098-222.632,41.54c-7.001,1.269-15.657,0.88-21.88-2.157
				c-102.241-49.87-204.22-100.284-306.245-150.602c-2.22-1.095-4.314-2.446-10.119-5.766c15.457-3.129,27.403-5.712,39.413-7.955
				c196.054-36.622,392.101-73.268,588.217-109.542c7.769-1.439,17.713-8.65,24.102,3.695c0.409,0.786,3.88,0.424,5.763-0.051
				c18.186-4.614,36.337-9.365,54.495-14.078C793.25,301.527,795.29,301.527,797.333,301.527z"/>
			<path d="M199.039,506.776c55.375,28.995,107.453,56.265,164.013,85.879c-14.154,2.823-23.714,4.867-33.324,6.621
				c-21.512,3.922-42.919,9.08-64.615,11.185c-26.23,2.545-44.113-9.103-51.207-33.553
				C207.602,555.165,204.359,532.533,199.039,506.776z"/>
		</g>
	</g>
	<g id="图层_7">
		<rect x="79.013" y="294.911" display="inline" width="873.258" height="381.615"/>
	</g>
	<g id="图层_8">
		<g display="inline">
			<polyline points="306.508,46.828 421.144,46.828 421.144,502.142 117.601,502.142 117.601,426.256 309.101,426.256 			"/>
			<path d="M458.125,160.136v342.005c0,0,75.938,3.832,76.441,116.407c0.504,112.581,0,301.29,0,301.29h378.734V584.533
				C913.301,584.533,929.493,164.186,458.125,160.136z"/>
		</g>
	</g>
	<g id="图层_9">
		<g display="inline">
			<polyline points="264.527,47.5 379.163,47.5 379.163,502.814 75.62,502.814 75.62,426.928 267.12,426.928 			"/>
			<path d="M416.143,160.808v342.004l461.746,132.109C877.889,634.923,887.511,164.858,416.143,160.808z"/>
			<path d="M534.157,563.148c8.378,14.192,16.561,27.874,24.549,41.666c4.164,7.188,8.481,14.352,11.849,21.918
				c5.157,11.59,10.727,23.195,10.112,36.44c-0.561,12.105-5.102,22.216-14.265,30.417c-10.104,9.042-21.949,13.647-35.209,13.06
				c-6.616-0.294-13.31-2.905-19.608-5.382c-10.699-4.203-17.941-12.591-22.404-22.782c-3.382-7.723-4.175-16.141-2.438-24.813
				c3.358-16.789,11.179-31.641,19.436-46.259c7.609-13.47,15.969-26.517,24.058-39.714
				C531.042,566.381,532.267,565.316,534.157,563.148z"/>
			<path d="M675.171,683.16c8.378,14.192,16.562,27.874,24.549,41.666c4.164,7.188,8.481,14.352,11.85,21.918
				c5.156,11.59,10.726,23.196,10.111,36.44c-0.561,12.105-5.102,22.217-14.265,30.417c-10.104,9.042-21.949,13.647-35.209,13.06
				c-6.616-0.294-13.309-2.905-19.608-5.381c-10.698-4.204-17.94-12.591-22.403-22.783c-3.382-7.722-4.175-16.14-2.439-24.813
				c3.359-16.788,11.18-31.641,19.437-46.259c7.608-13.47,15.968-26.517,24.057-39.714
				C672.056,686.394,673.282,685.328,675.171,683.16z"/>
			<path d="M791.679,653.157c5.168,8.756,10.216,17.194,15.146,25.704c2.567,4.434,5.231,8.854,7.31,13.521
				c3.183,7.149,6.616,14.311,6.238,22.48c-0.346,7.468-3.147,13.705-8.8,18.765c-6.234,5.578-13.541,8.419-21.722,8.056
				c-4.081-0.181-8.211-1.792-12.097-3.318c-6.601-2.595-11.068-7.769-13.821-14.056c-2.087-4.764-2.575-9.957-1.505-15.307
				c2.072-10.357,6.896-19.52,11.989-28.537c4.694-8.31,9.851-16.357,14.841-24.5C789.757,655.152,790.513,654.494,791.679,653.157z
				"/>
		</g>
	</g>
	<g id="图层_10">
		<g display="inline">
			<path d="M743.378,44.287c10.813,3.038,19.625,8.822,25.346,18.715c1.008,1.741,1.527,3.765,2.854,7.137
				c-3.246-1.095-5.023-1.675-6.786-2.293c-9.394-3.296-18.698-6.874-28.196-9.832c-11.427-3.56-18.696,0.047-23.882,10.898
				c-2.211,4.627-4.108,9.641-7.314,13.514c-13.186,15.933-33.764,17.083-49.359,2.863c-3.748-3.418-6.605-7.844-9.685-11.948
				c-0.883-1.178-1.104-2.852-2.121-5.658c3.017,1.016,4.645,1.563,6.271,2.11c7.235,2.431,14.382,5.181,21.728,7.215
				c10.757,2.979,19.974-0.665,28.116-7.706c4.279-3.7,8.533-7.429,12.788-11.156c6.898-6.046,14.186-11.436,23.241-13.858
				C738.711,44.287,741.045,44.287,743.378,44.287z"/>
			<path d="M854.87,495.969c21.744,0,42.727,0,64.395,0c0,40.424,0,79.955,0,120.531c11.44,0,22.22,0,33.622,0
				c0,70.482,0,139.921,0,209.93c-291.858,0-583.857,0-876.354,0c0-69.504,0-138.927,0-209.27c19.438,0,38.583,0,58.962,0
				c0-3.883,0-6.87,0-9.858c0-72.457,0.023-144.915-0.058-217.371c-0.006-4.368,0.482-7.628,4.64-10.521
				c53.445-37.204,106.731-74.638,160.075-111.99c1.194-0.835,2.584-1.393,4.955-2.648c0,38.846,0,76.74,0,116.963
				c56.648-39.675,111.632-78.183,168.048-117.694c0,39.62,0,77.659,0,117.827c56.761-39.756,111.84-78.333,168.364-117.922
				c0,78.012,0,154.4,0,231.349c19.352,0,37.691,0,56.931,0c0.732-8.257,1.557-16.444,2.174-24.648
				c2.966-39.467,5.803-78.944,8.826-118.408c2.965-38.673,6.164-77.326,9.146-115.996c3.604-46.73,7.217-93.46,10.484-140.215
				c0.5-7.136,1.822-10.454,10.223-10.258c26.831,0.625,53.689,0.441,80.531,0.078c6.363-0.087,8.001,2.373,8.35,8.05
				c3.214,52.498,6.454,104.996,9.972,157.475c3.588,53.536,7.541,107.048,11.237,160.577
				C851.293,439.481,852.99,467.025,854.87,495.969z M578.212,648.46c0.31-1.422,0.612-2.165,0.612-2.909
				c0.04-37.248-0.064-74.497,0.181-111.743c0.043-6.45-3.521-6.257-7.981-6.251c-38.552,0.059-77.104,0.176-115.651-0.104
				c-6.535-0.047-8.353,1.933-8.297,8.391c0.291,35.163,0.128,70.329,0.156,105.493c0.003,2.271,0.279,4.538,0.448,7.124
				C491.389,648.46,534.544,648.46,578.212,648.46z M220.331,528.079c0,40.392,0,80.291,0,120.169c43.682,0,86.755,0,130.067,0
				c0-40.284,0-79.998,0-120.169C306.817,528.079,263.741,528.079,220.331,528.079z M809.125,648.419c0-40.457,0-80.162,0-120.16
				c-43.748,0-87.006,0-130.465,0c0,40.37,0,80.066,0,120.16C722.229,648.419,765.337,648.419,809.125,648.419z"/>
		</g>
	</g>
	<g id="图层_11">
		<g display="inline">
			<path d="M903.947,381.397c0,171.083,0,342.166,0,514.644c-247.931,0-495.862,0-747.181,0c0-248.777,0-498.976,0-749.197
				c51.925,0,106.36,0,160.796,0c12.105,111.161,24.223,222.322,36.854,338.339c56.268-39.169,105.445-73.39,164.255-114.323
				c7.41,48.217,12.266,79.826,18.508,120.461c57.666-42.33,106.306-78.063,165.824-121.767
				c9.188,48.056,15.289,79.987,21.326,111.549C785.078,447.387,844.505,414.381,903.947,381.397z"/>
			<path d="M215.811,87.952c11.575,10.346,18.997,22.885,20.083,38.644c0.19,2.773-0.394,5.602-0.796,10.595
				c-3.364-3.333-5.218-5.134-7.03-6.973c-9.657-9.803-19.031-19.903-29.023-29.351c-12.021-11.367-23.238-11.311-36.273-0.993
				c-5.558,4.4-10.963,9.469-17.298,12.327c-26.055,11.761-52.299,0.676-63.013-26.459c-2.575-6.522-3.431-13.754-4.756-20.721
				c-0.379-1.999,0.364-4.211,0.807-8.314c3.126,3.095,4.814,4.765,6.501,6.433c7.504,7.417,14.703,15.176,22.583,22.168
				c11.542,10.238,25.199,11.319,39.589,7.531c7.562-1.991,15.11-4.033,22.658-6.072c12.239-3.311,24.562-5.57,37.277-3.071
				C210.018,85.115,212.915,86.533,215.811,87.952z"/>
		</g>
	</g>
	<g id="图层_12">
		<path display="inline" d="M525.193,253.908c22.997,38.961,45.457,76.514,67.385,114.373c11.43,19.727,23.281,39.393,32.522,60.162
			c14.156,31.813,29.439,63.672,27.759,100.027c-1.539,33.229-14.006,60.982-39.155,83.493
			c-27.735,24.821-60.249,37.462-96.646,35.846c-18.161-0.809-36.531-7.974-53.823-14.771
			c-29.369-11.538-49.246-34.561-61.499-62.538c-9.283-21.194-11.459-44.303-6.696-68.107c9.221-46.083,30.685-86.85,53.349-126.976
			c20.888-36.974,43.831-72.787,66.034-109.011C516.642,262.785,520.006,259.86,525.193,253.908z"/>
		<path display="inline" d="M722.667,166.656c13.543,22.944,26.771,45.059,39.683,67.354c6.73,11.617,13.71,23.198,19.152,35.429
			c8.337,18.734,17.337,37.496,16.347,58.906c-0.905,19.568-8.248,35.912-23.059,49.168c-16.333,14.617-35.48,22.061-56.914,21.109
			c-10.694-0.476-21.514-4.696-31.696-8.698c-17.295-6.795-29.001-20.352-36.217-36.829c-5.466-12.481-6.748-26.089-3.943-40.108
			c5.432-27.138,18.07-51.146,31.418-74.775c12.301-21.773,25.813-42.864,38.888-64.196
			C717.631,171.884,719.613,170.162,722.667,166.656z"/>
		<path display="inline" d="M357.09,107.377c10.231,17.333,20.223,34.04,29.979,50.883c5.084,8.776,10.356,17.525,14.469,26.766
			c6.298,14.152,13.098,28.327,12.35,44.501c-0.685,14.783-6.23,27.13-17.42,37.145c-12.339,11.043-26.804,16.667-42.997,15.947
			c-8.079-0.359-16.252-3.547-23.944-6.571c-13.065-5.134-21.909-15.375-27.36-27.823c-4.129-9.429-5.098-19.709-2.979-30.3
			c4.103-20.502,13.651-38.639,23.735-56.49c9.292-16.449,19.5-32.382,29.377-48.497
			C353.285,111.326,354.782,110.026,357.09,107.377z"/>
		<rect x="78.43" y="705.418" display="inline" width="871.456" height="127.493"/>
	</g>
	<g id="图层_13">
		<g display="inline">
			<rect x="115.928" y="232.944" width="92.995" height="367.481"/>
			<rect x="376.915" y="306.441" width="560.971" height="347.981"/>
			<rect x="115.928" y="634.924" width="227.989" height="92.995"/>
			<rect x="250.921" y="232.944" width="92.995" height="494.976"/>
		</g>
	</g>
	<g id="图层_14">
		<g display="inline">
			<path d="M469.911,515.83c0,15.655-11.455,28.347-25.585,28.347h-343.31c-14.13,0-25.585-12.69-25.585-28.347v-31.803
				c0-15.655,11.455-28.347,25.585-28.347h343.31c14.13,0,25.585,12.691,25.585,28.347V515.83z"/>
			<path d="M952.886,515.83c0,15.655-11.455,28.347-25.586,28.347H583.992c-14.131,0-25.586-12.69-25.586-28.347v-31.803
				c0-15.655,11.455-28.347,25.586-28.347H927.3c14.131,0,25.586,12.691,25.586,28.347V515.83z"/>
			<circle cx="513.909" cy="499.929" r="25.499"/>
		</g>
	</g>
	<g id="图层_15">
		<path display="inline" d="M909.396,635.713c-22.523,44.995-54.077,85.482-83.483,130.658
			c-22.547-23.143-38.808-39.83-56.729-58.229c68.742-72.609,108.237-158.546,108.208-260.231
			c-0.031-101.752-39.165-187.856-110.56-262.367c17.745-17.077,34.031-32.739,52.354-50.363
			c59.076,57.322,89.044,127.942,119.212,203.277c19.957,49.838,12.937,156.763,4.73,195.779
			C934.865,573.545,919.216,616.087,909.396,635.713z"/>
		<path display="inline" d="M77.535,394.266c4.744-32.905,14.534-64.244,27.521-94.232c23.85-55.073,51.867-107.891,94.657-152.721
			c17.789,17.731,33.538,33.419,49.958,49.788c-129.758,167.087-129.4,334.476,1.629,505.062
			c-16.913,14.741-34.531,30.103-54.189,47.239c-57.364-59.886-92.93-131.901-110.493-213.587
			C84.274,524.932,68.272,475.506,77.535,394.266z"/>
		<path display="inline" d="M473.802,539.847c26.234,0,49.904,0,75.725,0c3.175,9.136,6.876,18.504,9.693,28.134
			c28.039,95.794,55.938,191.632,84.663,290.16c-88.438,0-173.213,0-262.947,0C412.388,750.344,443.094,645.096,473.802,539.847z"/>
		<path display="inline" d="M713.42,657.099c-12.288-12.163-24.895-24.649-37.242-36.875c93.409-109.84,91.358-234.894,0-340.263
			c13.422-14.061,27.058-28.354,40.553-42.501C837.158,336.843,835.895,558.558,713.42,657.099z"/>
		<path display="inline" d="M344.83,607.959c-13.99,12.845-26.446,24.282-38.928,35.748
			c-105.412-88.14-107.714-294.252-3.039-392.521c12.913,13.346,25.885,26.76,39.734,41.073
			C265.997,395.58,264.968,500.188,344.83,607.959z"/>
		<path display="inline" d="M575.861,380.725c15.823-14.854,32.024-30.069,48.28-45.33c67.975,56.573,69.117,164.499,1.236,227.693
			c-15.418-15.85-30.884-31.758-46.633-47.947C611.652,455.666,611.524,441.839,575.861,380.725z"/>
		<path display="inline" d="M444.639,517.704c-15.812,14.842-32,30.045-48.242,45.294c-67.92-56.528-69.063-164.368-1.235-227.512
			c15.405,15.837,30.858,31.732,46.595,47.909C408.876,442.823,409.004,456.64,444.639,517.704z"/>
		<path display="inline" d="M77.376,503.517"/>
		<circle display="inline" cx="515.485" cy="446.564" r="45.824"/>
	</g>
	<g id="图层_16">
		<g display="inline">
			<path d="M939.861,473.963c-93.38,0-186.761,0-271.172,0c5.5-35.667,1.183-60.359-13.199-85.979
				c-12.594-22.435-30.276-46.305-69.715-61.715c39.693-69.48,86.259-150.979,134.056-234.648
				c84.233,40.945,141.753,103.688,179.736,184.236C916.172,311.056,944.558,445.964,939.861,473.963z"/>
			<path d="M306.027,798.536c45.489-81.55,90.979-163.101,132.101-236.82c28.469,22.179,52.137,30.438,81.517,30.357
				c25.729-0.067,55.188-3.883,87.858-30.817c41.34,68.513,89.831,148.881,139.616,231.382
				c-76.792,53.616-159.607,73.284-248.455,67.218C459.835,857.209,328.19,816.28,306.027,798.536z"/>
			<path d="M322.281,77.494c47.009,80.684,94.019,161.367,136.516,234.304c-33.586,13.202-52.75,29.364-67.645,54.688
				c-13.046,22.174-24.768,49.469-18.229,91.305c-80.016,0.679-173.876,1.474-270.231,2.297
				c-7.027-93.394,18.228-174.679,68.703-248.048C193.448,179.973,295.723,87.531,322.281,77.494z"/>
			<path d="M601.156,451.941c-0.432,46.811-36.854,83.232-83.51,83.51c-47.679,0.276-86.301-38.233-85.633-85.394
				c0.65-45.692,38.552-83.576,84.151-84.112C563.251,365.39,601.591,404.186,601.156,451.941z"/>
		</g>
	</g>
	<g id="图层_17">
		<rect x="127.446" y="257.741" display="inline" width="770" height="114"/>
		<path display="inline" d="M195.446,69.741v188h634v-188H195.446z M377.446,225.741h-118v-118h118V225.741z M578.446,225.741h-118
			v-118h118V225.741z M779.446,225.741h-118v-118h118V225.741z"/>
		<g display="inline">
			<path d="M661.412,398.559c13.543,22.944,26.77,45.06,39.683,67.354c6.73,11.617,13.71,23.198,19.152,35.429
				c8.337,18.734,17.337,37.496,16.347,58.906c-0.906,19.568-8.248,35.912-23.059,49.169c-16.333,14.617-35.48,22.062-56.914,21.109
				c-10.694-0.477-21.514-4.696-31.696-8.698c-17.295-6.795-29.001-20.353-36.217-36.828c-5.466-12.481-6.748-26.09-3.943-40.108
				c5.432-27.138,18.07-51.146,31.418-74.774c12.301-21.773,25.813-42.864,38.888-64.196
				C656.375,403.786,658.357,402.064,661.412,398.559z"/>
			<path d="M502.106,590.559c17.958,30.427,35.497,59.751,52.62,89.315c8.926,15.405,18.182,30.762,25.397,46.979
				c11.056,24.844,22.99,49.724,21.677,78.113c-1.202,25.949-10.938,47.622-30.577,65.201
				c-21.657,19.384-47.05,29.255-75.472,27.992c-14.182-0.63-28.528-6.229-42.031-11.534c-22.935-9.011-38.458-26.987-48.025-48.836
				c-7.248-16.552-8.949-34.597-5.229-53.188c7.202-35.985,23.962-67.821,41.663-99.156c16.31-28.873,34.229-56.841,51.566-85.128
				C495.427,597.49,498.055,595.206,502.106,590.559z"/>
			<path d="M338.982,421.49c8.803,14.915,17.4,29.29,25.794,43.782c4.375,7.551,8.911,15.078,12.448,23.028
				c5.42,12.177,11.271,24.374,10.626,38.291c-0.589,12.72-5.36,23.344-14.988,31.961c-10.617,9.501-23.063,14.34-36.996,13.723
				c-6.952-0.311-13.984-3.054-20.604-5.654c-11.242-4.417-18.852-13.229-23.542-23.939c-3.553-8.112-4.386-16.959-2.563-26.07
				c3.53-17.641,11.746-33.246,20.423-48.605c7.995-14.153,16.778-27.863,25.277-41.729
				C335.708,424.887,336.997,423.768,338.982,421.49z"/>
		</g>
	</g>
	<g id="图层_18">
		<g display="inline">
			<rect x="100.818" y="152.839" fill="#1E1E1E" width="822" height="83.243"/>
			<rect x="100.818" y="682.839" fill="#1E1E1E" width="822" height="83.242"/>
			<rect x="205.197" y="49.385" fill="#1E1E1E" width="83.242" height="822"/>
			<rect x="749.197" y="49.385" fill="#1E1E1E" width="83.242" height="822"/>
			<rect x="446.818" y="382.839" fill="#1E1E1E" width="144" height="144"/>
		</g>
	</g>
	<g id="图层_19">
		<path display="inline" fill="#1E1E1E" d="M791.818,396.006c0-152.431-123.569-276-276-276c-152.432,0-276,123.569-276,276h100.851
			l-54.851,417.998h460l-54.852-417.998H791.818L791.818,396.006z"/>
	</g>
	<g id="图层_20">
		<g display="inline">
			<path fill="#1E1E1E" d="M516.095,216.287c-95.517,0-172.949,77.432-172.949,172.949s77.433,172.948,172.949,172.948
				c95.518,0,172.948-77.431,172.948-172.948C689.043,293.719,611.612,216.287,516.095,216.287z M516.094,546.15
				c-86.661,0-156.914-70.253-156.914-156.915s70.252-156.913,156.914-156.913s156.913,70.251,156.913,156.913
				S602.756,546.15,516.094,546.15z"/>
			
				<rect x="346.871" y="382.643" transform="matrix(-0.7194 -0.6945 0.6945 -0.7194 610.447 1034.7737)" fill="#1E1E1E" width="334.689" height="22.906"/>
			
				<rect x="342.954" y="377.789" transform="matrix(-0.6945 0.7194 -0.7194 -0.6945 1144.7657 292.4555)" fill="#1E1E1E" width="334.691" height="22.907"/>
		</g>
		<path display="inline" fill="#1E1E1E" d="M698.256,385.089v16.49v66.661v76.906c0,96.201-82.394,174.188-184.034,174.188
			c-101.639,0-184.032-77.987-184.032-174.188V401.578h0.62v-16.49h-28.176v176.546c0,102.774,94.732,186.09,211.589,186.09
			c116.858,0,211.589-83.314,211.589-186.09V385.089H698.256z"/>
		<rect x="316.968" y="579.692" display="inline" fill="#1E1E1E" width="397.034" height="26.568"/>
		<rect x="47.583" y="380.853" display="inline" fill="#1E1E1E" width="935.806" height="26.57"/>
	</g>
	<g id="图层_21">
		<g display="inline">
			<path fill="#1E1E1E" d="M507.592,311.058c-95.517,0-172.949,77.432-172.949,172.949c0,95.518,77.433,172.948,172.949,172.948
				c95.518,0,172.948-77.431,172.948-172.948C680.54,388.49,603.109,311.058,507.592,311.058z M507.591,640.92
				c-86.661,0-156.914-70.253-156.914-156.914c0-86.662,70.252-156.913,156.914-156.913s156.913,70.251,156.913,156.913
				C664.504,570.667,594.253,640.92,507.591,640.92z"/>
			
				<rect x="338.372" y="477.408" transform="matrix(-0.7194 -0.6945 0.6945 -0.7194 530.0178 1191.8162)" fill="#1E1E1E" width="334.69" height="22.906"/>
			
				<rect x="334.446" y="472.555" transform="matrix(-0.6945 0.7194 -0.7194 -0.6945 1198.5278 459.1622)" fill="#1E1E1E" width="334.692" height="22.906"/>
		</g>
		<rect x="75.67" y="464.292" display="inline" fill="#1E1E1E" width="265.487" height="30.735"/>
		<rect x="674.14" y="464.292" display="inline" fill="#1E1E1E" width="265.486" height="30.735"/>
		<rect x="710.138" y="396.032" display="inline" fill="#1E1E1E" width="229.488" height="30.734"/>
	</g>
	<g id="图层_22">
		<path display="inline" fill="#1E1E1E" d="M515.485,104.701c-207.926,0-376.481,168.556-376.481,376.479
			c0,207.925,168.556,376.482,376.481,376.482c207.925,0,376.48-168.557,376.48-376.481
			C891.966,273.258,723.41,104.701,515.485,104.701z M515.485,806.666C339.039,806.667,196,664.3,196,488.683h638.969
			C834.969,664.3,691.931,806.666,515.485,806.666z"/>
	</g>
	<g id="图层_23">
		<g display="inline">
			<path d="M562.599,108.418c32.139,16.71,40.596,43.352,40.351,78.73c-1.34,199.763-0.646,399.543-0.652,599.318
				c0,6.954-0.07,13.913-0.059,20.872c0.035,23.068-9.617,40.975-30.92,49.979c-21.378,9.033-40.956,3.239-57.334-12.935
				c-43.824-43.293-89.151-85.211-130.761-130.538c-24.252-26.427-49.71-36.952-85.561-35.956
				c-31.025,0.862-63.979-3.666-93.173-14.022c-57.556-20.405-95.219-62.859-112.966-121.994
				c-3.969-13.23-8.23-26.368-12.356-39.546c0-11.938,0-23.873,0-35.811c3.678-10.095,8.038-19.998,10.928-30.313
				c18.942-67.639,62.766-112.774,129.006-132.13c30.657-8.958,64.643-8.375,97.136-8.515c21.635-0.093,36.939-6.592,52.176-21.769
				c56.046-55.848,113.433-110.355,170.313-165.37C546.681,108.418,554.643,108.418,562.599,108.418z M539.198,189.649
				c-13.627,12.811-21.489,19.898-29.015,27.33c-39.574,39.062-78.117,79.254-119.19,116.673
				c-11.873,10.824-30.459,17.451-46.785,19.52c-29.381,3.724-59.671,0.233-89.07,3.888
				c-68.362,8.492-114.873,67.65-111.626,138.693c2.979,65.214,57.486,119.478,123.603,122.111
				c24.789,0.989,49.916-2.093,74.382,0.855c16.203,1.946,35.017,7.479,46.586,18.058c42.46,38.829,82.297,80.52,123.329,120.928
				c7.257,7.146,15.498,13.301,27.784,23.728C539.198,582.425,539.198,390.385,539.198,189.649z"/>
			<path d="M952.491,492.942c-0.734,153.904-118.626,275.976-256.695,277.421c-20.702,0.216-40.006-2.319-41.229-27.329
				c-1.189-24.398,16.202-29.999,37.731-31.563c112.052-8.105,197.152-93.614,199.601-199.4
				c2.646-114.436-75.128-203.452-190.217-217.633c-5.916-0.723-11.89-1.014-17.841-1.317c-19.11-0.967-33.028-12.123-28.326-29.684
				c3.072-11.458,21.781-28.583,30.554-26.991c43.346,7.868,89.401,14.023,127.684,33.91
				C906.283,318.422,948.585,401.028,952.491,492.942z"/>
			<path d="M823.415,501.498c0.198,80.7-63.739,148.834-141.706,151.306c-19.799,0.629-37.302-3.509-38.729-26.612
				c-1.383-22.225,14.033-30.08,34.178-32.728c53.702-7.052,85.042-40.285,85.211-89.14c0.175-50.421-32.487-86.458-85.532-92.485
				c-20.784-2.354-35.454-10.725-33.799-32.639c1.714-22.737,19.257-26.898,39.148-26.374
				C758.417,354.838,823.216,422.814,823.415,501.498z"/>
		</g>
	</g>
	<g id="图层_24">
		<path display="inline" d="M828.392,170.522H204.423L79.93,797.49h874.457L828.392,170.522z M202.923,517.005l60.442-285.722
			h503.027l54.498,285.722H202.923z"/>
	</g>
	<g id="图层_25">
		<rect x="142.926" y="109.95" display="inline" width="748.462" height="748.462"/>
	</g>
	<g id="图层_26">
		<circle display="inline" cx="516.407" cy="486.431" r="374.981"/>
	</g>
	<g id="图层_27">
		<g display="inline">
			<path d="M515.486,109.025c-207.098,0-374.982,167.885-374.982,374.981s167.885,374.981,374.982,374.981
				c207.096,0,374.979-167.886,374.979-374.981S722.582,109.025,515.486,109.025z M515.486,789.99
				c-168.992,0-305.986-136.994-305.986-305.984c0-168.991,136.994-305.984,305.986-305.984
				c168.989,0,305.983,136.993,305.983,305.984C821.47,652.996,684.476,789.99,515.486,789.99z"/>
			<path d="M515.486,268.767c-118.874,0-215.24,96.366-215.24,215.239s96.366,215.239,215.24,215.239
				c118.873,0,215.237-96.366,215.237-215.239S634.359,268.767,515.486,268.767z M515.486,659.641
				c-97.001,0-175.637-78.635-175.637-175.635c0-97.001,78.636-175.635,175.637-175.635c97,0,175.635,78.634,175.635,175.635
				C691.121,581.006,612.486,659.641,515.486,659.641z"/>
		</g>
	</g>
	<g id="图层_28">
		<path display="inline" d="M515.283,79.226L132.801,829.19h749.963L515.283,79.226z M513.717,156.323l290.801,624.769H211.046
			L513.717,156.323z"/>
	</g>
	<g id="图层_29">
		<polygon display="inline" points="884.775,866.194 130.194,866.194 515.031,71.819 		"/>
	</g>
</g>
<g id="图层_2_1_" display="none">
	<g id="图层_2_2_" display="inline">
		<path fill="#282828" d="M935.604,403.095l-336.955,6.269L500.485,86.963l-98.163,322.401l-336.956-6.269L341.654,596.08
			L231.567,914.607l268.918-203.131l268.918,203.131L659.315,596.08L935.604,403.095z M744.41,878.607L501.485,695.112
			L258.561,878.607l99.446-287.737L108.425,416.538l304.385,5.663l88.676-291.238l88.675,291.238l304.385-5.663L644.962,590.869
			L744.41,878.607z"/>
	</g>
</g>
<g id="图层_24_1_" display="none">
	<g id="图层_24_2_" display="inline">
		<path d="M811.392,186.522H187.423L62.93,813.49h874.457L811.392,186.522z M185.923,533.005l60.442-285.722h503.027l54.498,285.722
			H185.923z"/>
	</g>
</g>
<g id="图层_25_1_" display="none">
	<g id="图层_25_2_" display="inline">
		<rect x="125.926" y="125.95" width="748.462" height="748.462"/>
	</g>
</g>
<g id="图层_26_1_" display="none">
	<g id="图层_26_2_" display="inline">
		<circle cx="500.407" cy="500.431" r="374.981"/>
	</g>
</g>
<g id="图层_27_1_">
	<g id="图层_27_2_">
		<g>
			<path d="M500.486,125.025c-207.098,0-374.982,167.885-374.982,374.981s167.885,374.981,374.982,374.981
				c207.096,0,374.979-167.886,374.979-374.981S707.582,125.025,500.486,125.025z M500.486,805.99
				c-168.992,0-305.986-136.994-305.986-305.984c0-168.991,136.994-305.984,305.986-305.984
				c168.989,0,305.983,136.993,305.983,305.984C806.47,668.996,669.476,805.99,500.486,805.99z"/>
			<path d="M500.486,284.767c-118.874,0-215.24,96.366-215.24,215.239s96.366,215.239,215.24,215.239
				c118.873,0,215.237-96.366,215.237-215.239S619.359,284.767,500.486,284.767z M500.486,675.641
				c-97.001,0-175.637-78.635-175.637-175.635c0-97.001,78.636-175.635,175.637-175.635c97,0,175.635,78.634,175.635,175.635
				C676.121,597.006,597.486,675.641,500.486,675.641z"/>
		</g>
	</g>
</g>
<g id="图层_28_1_" display="none">
	<g id="图层_28_2_" display="inline">
		<path d="M508.283,125.226L125.801,875.19h749.963L508.283,125.226z M506.717,202.323l290.801,624.769H204.046L506.717,202.323z"/>
	</g>
</g>
<g id="图层_28_x5F_复制" display="none">
	<polygon display="inline" points="508.283,108.727 125.801,858.691 875.764,858.691 	"/>
</g>
<g id="图层_14_1_" display="none">
	<g id="图层_14_2_" display="inline">
		<g>
			<path d="M455.911,515.83c0,15.655-11.455,28.347-25.585,28.347H87.016c-14.13,0-25.585-12.69-25.585-28.347v-31.803
				c0-15.655,11.455-28.347,25.585-28.347h343.31c14.13,0,25.585,12.691,25.585,28.347V515.83z"/>
			<path d="M938.886,515.83c0,15.655-11.455,28.347-25.586,28.347H569.992c-14.131,0-25.586-12.69-25.586-28.347v-31.803
				c0-15.655,11.455-28.347,25.586-28.347H913.3c14.131,0,25.586,12.691,25.586,28.347V515.83z"/>
			<circle cx="499.909" cy="499.929" r="25.499"/>
		</g>
	</g>
</g>
<g id="图层_15_1_" display="none">
	<g id="图层_15_2_" display="inline">
		<path d="M896.396,639.713c-22.523,44.995-54.077,85.482-83.483,130.658c-22.547-23.143-38.808-39.83-56.729-58.229
			c68.742-72.609,108.237-158.546,108.208-260.231c-0.031-101.752-39.165-187.856-110.56-262.367
			c17.745-17.077,34.031-32.739,52.354-50.363c59.076,57.322,89.044,127.942,119.212,203.277
			c19.957,49.838,12.937,156.763,4.73,195.779C921.865,577.545,906.216,620.087,896.396,639.713z"/>
		<path d="M64.535,398.266c4.744-32.905,14.534-64.244,27.521-94.232c23.85-55.073,51.867-107.891,94.657-152.721
			c17.789,17.731,33.538,33.419,49.958,49.788c-129.758,167.087-129.4,334.476,1.629,505.062
			c-16.913,14.741-34.531,30.103-54.189,47.239c-57.364-59.886-92.93-131.901-110.493-213.587
			C71.274,528.932,55.272,479.506,64.535,398.266z"/>
		<path d="M460.802,543.847c26.234,0,49.904,0,75.725,0c3.175,9.136,6.876,18.504,9.693,28.134
			c28.039,95.794,55.938,191.632,84.663,290.16c-88.438,0-173.213,0-262.947,0C399.388,754.344,430.094,649.096,460.802,543.847z"/>
		<path d="M700.42,661.099c-12.288-12.163-24.895-24.649-37.242-36.875c93.409-109.84,91.358-234.894,0-340.263
			c13.422-14.061,27.058-28.354,40.553-42.501C824.158,340.843,822.895,562.558,700.42,661.099z"/>
		<path d="M331.83,611.959c-13.99,12.845-26.446,24.282-38.928,35.748c-105.412-88.14-107.714-294.252-3.039-392.521
			c12.913,13.346,25.885,26.76,39.734,41.073C252.997,399.58,251.968,504.188,331.83,611.959z"/>
		<path d="M562.861,384.725c15.823-14.854,32.024-30.069,48.28-45.33c67.975,56.573,69.117,164.499,1.236,227.693
			c-15.418-15.85-30.884-31.758-46.633-47.947C598.652,459.666,598.524,445.839,562.861,384.725z"/>
		<path d="M431.639,521.704c-15.812,14.842-32,30.045-48.242,45.294c-67.92-56.528-69.063-164.368-1.235-227.512
			c15.405,15.837,30.858,31.732,46.595,47.909C395.876,446.823,396.004,460.64,431.639,521.704z"/>
		<path d="M64.376,507.517"/>
		<circle cx="502.485" cy="450.564" r="45.824"/>
	</g>
</g>
<g id="图层_16_1_" display="none">
	<g id="图层_16_2_" display="inline">
		<g>
			<path d="M919.861,502.963c-93.38,0-186.761,0-271.172,0c5.5-35.667,1.183-60.359-13.199-85.979
				c-12.594-22.435-30.276-46.305-69.715-61.715c39.693-69.48,86.259-150.979,134.056-234.648
				c84.233,40.945,141.753,103.688,179.736,184.236C896.172,340.056,924.558,474.964,919.861,502.963z"/>
			<path d="M286.027,827.536c45.489-81.55,90.979-163.101,132.101-236.82c28.469,22.179,52.137,30.438,81.517,30.357
				c25.729-0.067,55.188-3.883,87.858-30.817c41.34,68.513,89.831,148.881,139.616,231.382
				c-76.792,53.616-159.607,73.284-248.455,67.218C439.835,886.209,308.19,845.28,286.027,827.536z"/>
			<path d="M302.281,106.494c47.009,80.684,94.019,161.367,136.516,234.304c-33.586,13.202-52.75,29.364-67.645,54.688
				c-13.046,22.174-24.768,49.469-18.229,91.305c-80.016,0.679-173.876,1.474-270.231,2.297
				c-7.027-93.394,18.228-174.679,68.703-248.048C173.448,208.973,275.723,116.531,302.281,106.494z"/>
			<path d="M581.156,480.941c-0.432,46.811-36.854,83.232-83.51,83.51c-47.679,0.276-86.301-38.233-85.633-85.394
				c0.65-45.692,38.552-83.576,84.151-84.112C543.251,394.39,581.591,433.186,581.156,480.941z"/>
		</g>
	</g>
</g>
<g id="图层_32" display="none">
	<g display="inline">
		<polygon points="610.746,901.579 382.515,901.579 448.027,400.736 553.689,400.736 		"/>
		<path d="M502.975,385.939c0,0-8.458-95.097,78.188-112.001c0,0,82.418-44.375,71.852-137.361
			c-10.564-92.985-88.756-57.058-88.756-57.058s-23.245,8.454-10.566,38.039c12.68,29.584,27.471,82.417-14.793,92.982
			c-42.264,10.565-63.401,44.375-59.172,99.322s8.454,76.077,8.454,76.077H502.975z"/>
	</g>
</g>
<g id="图层_33" display="none">
	<g display="inline">
		<path d="M411.511,34.697L122.087,528.288h572.12L411.511,34.697z M410.957,75.345L647.09,505.552H169.201L410.957,75.345z"/>
		<rect x="261.849" y="528.288" width="311.859" height="420.119"/>
		<path d="M573.708,667.391v281.017h311.858V667.391H573.708z M864.344,929.289H594.929v-242.78h269.415V929.289z"/>
		<polygon points="874.074,927.974 604.714,676.038 593.497,688.03 862.857,939.958 		"/>
		<polygon points="859.068,673.9 589.022,925.109 600.206,937.128 870.244,685.92 		"/>
	</g>
</g>
<g id="图层_34" display="none">
	<g display="inline">
		<rect x="97.247" y="450.983" width="806.142" height="324.926"/>
		<polygon points="648.388,447.338 352.254,447.338 230.92,224.769 769.716,224.769 		"/>
	</g>
</g>
<g id="图层_35" display="none">
	<polygon display="inline" points="701.045,334.595 294.596,334.595 104.696,666.084 895.941,666.084 	"/>
</g>
<g id="图层_36" display="none">
	<g display="inline">
		<path d="M500.318,83.843c-230.014,0-416.496,186.472-416.496,416.496c0,230.025,186.482,416.496,416.496,416.496
			c230.036,0,416.496-186.471,416.496-416.496C916.814,270.314,730.354,83.843,500.318,83.843z M500.318,883.065
			c-211.37,0-382.726-171.346-382.726-382.727s171.356-382.726,382.726-382.726c211.37,0,382.727,171.345,382.727,382.726
			S711.688,883.065,500.318,883.065z"/>
		
			<rect x="120.392" y="488.143" transform="matrix(0.7071 0.7071 -0.7071 0.7071 506.3019 -221.6439)" width="800.614" height="24.392"/>
		
			<rect x="100.012" y="488.143" transform="matrix(0.7071 -0.7071 0.7071 0.7071 -207.2535 500.3245)" width="800.613" height="24.392"/>
	</g>
</g>
<g id="图层_37" display="none">
	
		<rect x="145.586" y="362.342" transform="matrix(0.7071 0.7071 -0.7071 0.7071 446.905 -249.2448)" display="inline" width="757.463" height="104.995"/>
	
		<rect x="121.588" y="334.342" transform="matrix(0.7071 -0.7071 0.7071 0.7071 -126.9967 467.0825)" display="inline" width="757.463" height="104.995"/>
	<text transform="matrix(1 0 0 1 409.4492 853.2959)" display="inline" font-family="'MicrosoftYaHei-Bold'" font-size="90.8706">关闭</text>
</g>
<g id="仓库" display="none">
	<g id="图层_3_2_" display="inline">
		<g>
			<path d="M155.961,832.637c0-132.183,0-264.366,0-400.065c227.359,0,445.074,0,672.434,0c0,135.713,0,267.896,0,400.065
				c-88.725,0-177.444,0-266.172,0c0-59.388,0-118.79,0-178.849c-50.42,0-94.84,0-140.09,0c0,63.479,0,121.17,0,178.849
				C333.407,832.637,244.688,832.637,155.961,832.637z"/>
			<path d="M940.468,390.338c-288.614,0-577.229,0-865.845,0c-2.867-4.98-5.733-9.946-8.599-14.926
				C207.1,251.014,348.168,126.615,491.747,0c54.293,46.61,105.007,90.156,164.32,141.062c4.248-36.103,7.523-63.93,11.164-94.875
				c32.771,0,64.135,0,108.199,0c-38.936,158.56,22.99,266.117,165.037,330.143C940.468,380.995,940.468,385.673,940.468,390.338z"
				/>
		</g>
	</g>
	<text transform="matrix(1 0 0 1 411.4111 957.5713)" display="inline" font-family="'MicrosoftYaHei-Bold'" font-size="90.8706">仓库</text>
</g>
<g id="采样点" display="none">
	<g id="图层_4_2_" display="inline">
		<g>
			<path d="M937.485,436.817c0.072,241.361-195.874,437.243-437.337,437.184C259.383,873.939,63.534,678.044,63.485,437.226
				C63.44,195.806,259.326-0.053,500.776,0C741.574,0.054,937.41,195.939,937.485,436.817z M164.331,437.051
				c0.012,184.929,150.452,335.907,334.907,336.104c186.292,0.195,337.295-150.041,337.4-335.701
				c0.11-185.519-150.354-336.513-335.428-336.607C315.075,100.75,164.323,251.201,164.331,437.051z"/>
			<circle cx="500.485" cy="437" r="189.087"/>
		</g>
	</g>
	<text transform="matrix(1 0 0 1 364.0127 973.0547)" display="inline" font-family="'MicrosoftYaHei-Bold'" font-size="90.8706">采样点</text>
</g>
<g id="锅炉房" display="none">
	<g id="图层_5_2_" display="inline">
		<g>
			<path d="M500.329,0c2.254,0,4.503,0,6.757,0c74.969,61.004,149.755,122.219,224.96,182.941
				c68.142,55.023,136.745,109.515,206.786,165.554c-14.747,17.271-27.465,32.171-40.969,47.984
				c-14.526-9.301-27.03-17.311-44.688-28.62c0,158.097,0,310.786,0,465.14c-231.783,0-459.782,0-691.833,0
				c0-152.04,0-302.406,0-459.449c-22.386,16.481-38.945,28.678-56.508,41.607c-14.028-15.518-27.179-30.06-42.345-46.828
				c52.446-44.594,102.87-87.909,153.787-130.666C310.809,158.271,405.626,79.2,500.329,0z M536.689,442.486
				c22.158,33.553,34.792,59.135,53.362,79.623c65.214,71.936,111.882,146.802,55.99,245.268c46.779,0,91.354,0,136.898,0
				c1.313-5.483,3.144-9.556,3.149-13.636c0.226-141.321,0.476-282.635-0.135-423.949c-0.037-8.62-4.657-20.02-11.229-25.389
				c-89.564-73.175-179.854-145.515-271.27-219.113c-88.029,73.373-175.547,145.508-261.585,219.268
				c-8.897,7.624-12.553,24.934-12.646,37.792c-0.901,129.265-0.55,258.537-0.55,387.801c0,11.733,0,23.462,0,37.048
				c45.849,0,87.84,0,128.031,0c-8.857-28.53-21.196-55.737-25.245-84.068c-7.243-50.649,4.904-99.926,37.134-139.863
				c75.509-93.572,154.258-184.661,231.052-275.994c6.751,45.505-9.422,88.088-38.582,127.377
				c-26.32,35.467-56.896,68.819-77.318,107.267c-14.763,27.791-19.635,62.141-22.01,94.056
				c-1.733,23.271,14.14,42.993,42.106,41.178c25.631-1.67,36.511-20.156,36.854-43.36c0.257-17.412-3.431-34.844-3.819-52.302
				C536.199,510.701,536.689,479.886,536.689,442.486z"/>
		</g>
	</g>
	<text transform="matrix(1 0 0 1 364.0127 950.5361)" display="inline" font-family="'MicrosoftYaHei-Bold'" font-size="90.8706">锅炉房</text>
</g>
<g id="监控点" display="none">
	<g id="图层_6_2_" display="inline">
		<g>
			<path d="M782.333,220.842c-0.177,63.283-0.649,126.569-0.271,189.849c0.071,11.908-2.862,17.964-15.459,18.706
				c-6.353,0.377-14.925-0.587-15.414,10.48c-0.078,1.657-6.615,3.607-10.38,4.416c-13.729,2.943-27.55,5.461-43.021,8.467
				c21.267,21.71,40.736,41.731,60.469,61.484c1.903,1.903,5.451,3.028,8.242,3.04c40.233,0.191,80.469,0.132,122.646,0.132
				c0-16.078,0-31.057,0-47.004c16.949,0,31.959,0,48.127,0c0,46.012,0,91.581,0,138.043c-15.511,0-30.536,0-47.198,0
				c0-14.167,0-27.705,0-43.332c-14.209,0-26.816,0-39.425,0c-31.136,0-62.275-0.417-93.393,0.219
				c-11.523,0.232-20.01-2.824-28.231-11.321c-26.616-27.5-54.383-53.883-81.076-81.313c-6.94-7.133-13.296-8.787-22.855-6.952
				c-74.138,14.237-148.348,28.098-222.632,41.54c-7.001,1.269-15.657,0.88-21.88-2.157
				c-102.241-49.87-204.22-100.284-306.245-150.602c-2.22-1.095-4.314-2.446-10.119-5.766c15.457-3.129,27.403-5.712,39.413-7.955
				c196.054-36.622,392.101-73.268,588.217-109.542c7.769-1.439,17.713-8.65,24.102,3.695c0.409,0.786,3.88,0.424,5.763-0.051
				c18.186-4.614,36.337-9.365,54.495-14.078C778.25,220.842,780.29,220.842,782.333,220.842z"/>
			<path d="M184.039,426.092c55.375,28.995,107.453,56.265,164.013,85.879c-14.154,2.823-23.714,4.867-33.324,6.621
				c-21.512,3.922-42.919,9.08-64.615,11.185c-26.23,2.545-44.113-9.103-51.207-33.553
				C192.602,474.48,189.359,451.849,184.039,426.092z"/>
		</g>
	</g>
	<text transform="matrix(1 0 0 1 349.5117 731.8389)" display="inline" font-family="'MicrosoftYaHei-Bold'" font-size="90.8706">监控点</text>
</g>
<g id="图层_7_1_" display="none">
	<g id="图层_7_2_" display="inline">
		<rect x="64.013" y="309.911" width="873.258" height="381.615"/>
	</g>
</g>
<g id="图层_9_1_" display="none">
	<g id="图层_9_2_" display="inline">
		<g>
			<polyline points="283.527,-1 398.163,-1 398.163,454.314 94.62,454.314 94.62,378.428 286.12,378.428 			"/>
			<path d="M435.143,112.308v342.004l461.746,132.109C896.889,586.423,906.511,116.358,435.143,112.308z"/>
			<path d="M553.157,514.648c8.378,14.192,16.561,27.874,24.549,41.666c4.164,7.188,8.481,14.352,11.849,21.918
				c5.157,11.59,10.727,23.195,10.112,36.44c-0.561,12.105-5.102,22.216-14.265,30.417c-10.104,9.042-21.949,13.647-35.209,13.06
				c-6.616-0.294-13.31-2.905-19.608-5.382c-10.699-4.203-17.941-12.591-22.404-22.782c-3.382-7.723-4.175-16.141-2.438-24.813
				c3.358-16.789,11.179-31.641,19.436-46.259c7.609-13.47,15.969-26.517,24.058-39.714
				C550.042,517.881,551.267,516.816,553.157,514.648z"/>
			<path d="M694.171,634.66c8.378,14.192,16.562,27.874,24.549,41.666c4.164,7.188,8.481,14.352,11.85,21.918
				c5.156,11.59,10.726,23.196,10.111,36.44c-0.561,12.105-5.102,22.217-14.265,30.417c-10.104,9.042-21.949,13.647-35.209,13.06
				c-6.616-0.294-13.309-2.905-19.608-5.381c-10.698-4.204-17.94-12.591-22.403-22.783c-3.382-7.722-4.175-16.14-2.439-24.813
				c3.359-16.788,11.18-31.641,19.437-46.259c7.608-13.47,15.968-26.517,24.057-39.714
				C691.056,637.894,692.282,636.828,694.171,634.66z"/>
			<path d="M810.679,604.657c5.168,8.756,10.216,17.194,15.146,25.704c2.567,4.434,5.231,8.854,7.31,13.521
				c3.183,7.149,6.616,14.311,6.238,22.48c-0.346,7.468-3.147,13.705-8.8,18.765c-6.234,5.578-13.541,8.419-21.722,8.056
				c-4.081-0.181-8.211-1.792-12.097-3.318c-6.601-2.595-11.068-7.769-13.821-14.056c-2.087-4.764-2.575-9.957-1.505-15.307
				c2.072-10.357,6.896-19.52,11.989-28.537c4.694-8.31,9.851-16.357,14.841-24.5C808.757,606.652,809.513,605.994,810.679,604.657z
				"/>
		</g>
	</g>
	<text transform="matrix(1 0 0 1 359.4561 904.8027)" display="inline" font-family="'MicrosoftYaHei-Bold'" font-size="90.8706">漏排口</text>
</g>
<g id="图层_8_1_" display="none">
	<g id="图层_8_2_" display="inline">
		<g>
			<polyline points="283.508,0 398.144,0 398.144,455.313 94.601,455.313 94.601,379.428 286.101,379.428 			"/>
			<path d="M435.125,113.308v342.005c0,0,75.938,3.832,76.441,116.407c0.504,112.581,0,301.29,0,301.29h378.734V537.705
				C890.301,537.705,906.493,117.358,435.125,113.308z"/>
		</g>
	</g>
	<text transform="matrix(1 0 0 1 310.7432 967.8193)" display="inline" font-family="'MicrosoftYaHei-Bold'" font-size="90.8706">标准排口</text>
</g>
<g id="图层_10_1_" display="none">
	<g id="图层_10_2_" display="inline">
		<g>
			<path d="M729.378,0c10.813,3.038,19.625,8.822,25.346,18.715c1.008,1.741,1.527,3.765,2.854,7.137
				c-3.246-1.095-5.023-1.675-6.786-2.293c-9.394-3.296-18.698-6.874-28.196-9.832c-11.427-3.56-18.696,0.047-23.882,10.898
				c-2.211,4.627-4.108,9.641-7.314,13.514c-13.186,15.933-33.764,17.083-49.359,2.863c-3.748-3.418-6.605-7.844-9.685-11.948
				c-0.883-1.178-1.104-2.852-2.121-5.658c3.017,1.016,4.645,1.563,6.271,2.11c7.235,2.431,14.382,5.181,21.728,7.215
				c10.757,2.979,19.974-0.665,28.116-7.706c4.279-3.7,8.533-7.429,12.788-11.156c6.898-6.046,14.186-11.436,23.241-13.858
				C724.711,0,727.045,0,729.378,0z"/>
			<path d="M840.87,451.682c21.744,0,42.727,0,64.395,0c0,40.424,0,79.955,0,120.531c11.44,0,22.22,0,33.622,0
				c0,70.482,0,139.921,0,209.93c-291.858,0-583.857,0-876.354,0c0-69.504,0-138.927,0-209.27c19.438,0,38.583,0,58.962,0
				c0-3.883,0-6.87,0-9.858c0-72.457,0.023-144.915-0.058-217.371c-0.006-4.368,0.482-7.628,4.64-10.521
				c53.445-37.204,106.731-74.638,160.075-111.99c1.194-0.835,2.584-1.393,4.955-2.648c0,38.846,0,76.74,0,116.963
				c56.648-39.675,111.632-78.183,168.048-117.694c0,39.62,0,77.659,0,117.827c56.761-39.756,111.84-78.333,168.364-117.922
				c0,78.012,0,154.4,0,231.349c19.352,0,37.691,0,56.931,0c0.732-8.257,1.557-16.444,2.174-24.648
				c2.966-39.467,5.803-78.944,8.826-118.408c2.965-38.673,6.164-77.326,9.146-115.996c3.604-46.73,7.217-93.46,10.484-140.215
				c0.5-7.136,1.822-10.454,10.223-10.258c26.831,0.625,53.689,0.441,80.531,0.078c6.363-0.087,8.001,2.373,8.35,8.05
				c3.214,52.498,6.454,104.996,9.972,157.475c3.588,53.536,7.541,107.048,11.237,160.577
				C837.293,395.194,838.99,422.738,840.87,451.682z M564.212,604.173c0.31-1.422,0.612-2.165,0.612-2.909
				c0.04-37.248-0.064-74.497,0.181-111.743c0.043-6.45-3.521-6.257-7.981-6.251c-38.552,0.059-77.104,0.176-115.651-0.104
				c-6.535-0.047-8.353,1.933-8.297,8.391c0.291,35.163,0.128,70.329,0.156,105.493c0.003,2.271,0.279,4.538,0.448,7.124
				C477.389,604.173,520.544,604.173,564.212,604.173z M206.331,483.792c0,40.392,0,80.291,0,120.169c43.682,0,86.755,0,130.067,0
				c0-40.284,0-79.998,0-120.169C292.817,483.792,249.741,483.792,206.331,483.792z M795.125,604.132c0-40.457,0-80.162,0-120.16
				c-43.748,0-87.006,0-130.465,0c0,40.37,0,80.066,0,120.16C708.229,604.132,751.337,604.132,795.125,604.132z"/>
		</g>
	</g>
	<text transform="matrix(1 0 0 1 318.9688 925.3008)" display="inline" font-family="'MicrosoftYaHei-Bold'" font-size="90.8706">生产车间</text>
</g>
<g id="图层_11_1_" display="none">
	<g id="图层_11_2_" display="inline">
		<g>
			<path d="M912.643,324.69c0,171.083,0,342.166,0,514.644c-247.931,0-495.863,0-747.182,0c0-248.777,0-498.976,0-749.197
				c51.925,0,106.36,0,160.796,0c12.105,111.161,24.223,222.322,36.854,338.339c56.268-39.169,105.446-73.39,164.255-114.323
				c7.41,48.217,12.266,79.826,18.508,120.461c57.666-42.33,106.306-78.063,165.824-121.767
				c9.188,48.056,15.289,79.987,21.326,111.549C793.773,390.68,853.2,357.674,912.643,324.69z"/>
			<path d="M224.506,31.245c11.575,10.346,18.997,22.885,20.083,38.644c0.19,2.773-0.394,5.602-0.796,10.595
				c-3.364-3.333-5.218-5.134-7.03-6.973c-9.657-9.803-19.031-19.903-29.023-29.351c-12.021-11.367-23.238-11.311-36.273-0.993
				c-5.558,4.4-10.963,9.469-17.298,12.327c-26.055,11.761-52.299,0.676-63.013-26.459c-2.575-6.522-3.431-13.754-4.756-20.721
				C86.021,6.315,86.764,4.103,87.207,0c3.126,3.095,4.814,4.765,6.501,6.433c7.504,7.417,14.703,15.176,22.583,22.168
				c11.542,10.238,25.199,11.319,39.589,7.531c7.562-1.991,15.11-4.033,22.658-6.072c12.239-3.311,24.562-5.57,37.277-3.071
				C218.713,28.408,221.61,29.826,224.506,31.245z"/>
		</g>
	</g>
	<text transform="matrix(1 0 0 1 317.728 954.2852)" display="inline" font-family="'MicrosoftYaHei-Bold'" font-size="90.8706">污水处理</text>
</g>
<g id="图层_12_1_" display="none">
	<g id="图层_12_2_" display="inline">
		<path d="M511.193,146.531c22.997,38.961,45.457,76.514,67.385,114.373c11.43,19.727,23.281,39.393,32.522,60.162
			c14.156,31.813,29.439,63.672,27.759,100.027c-1.539,33.229-14.006,60.982-39.155,83.493
			c-27.735,24.821-60.249,37.462-96.646,35.846c-18.161-0.809-36.531-7.974-53.823-14.771
			c-29.369-11.538-49.246-34.561-61.499-62.538c-9.283-21.194-11.459-44.303-6.696-68.107c9.221-46.083,30.685-86.85,53.349-126.976
			c20.888-36.974,43.831-72.787,66.034-109.011C502.642,155.408,506.006,152.483,511.193,146.531z"/>
		<path d="M708.667,59.279c13.543,22.944,26.771,45.059,39.683,67.354c6.73,11.617,13.71,23.198,19.152,35.429
			c8.337,18.734,17.337,37.496,16.347,58.906c-0.905,19.568-8.248,35.912-23.059,49.168c-16.333,14.617-35.48,22.061-56.914,21.109
			c-10.694-0.476-21.514-4.696-31.696-8.698c-17.295-6.795-29.001-20.352-36.217-36.829c-5.466-12.481-6.748-26.089-3.943-40.108
			c5.432-27.138,18.07-51.146,31.418-74.775c12.301-21.773,25.813-42.864,38.888-64.196
			C703.631,64.507,705.613,62.785,708.667,59.279z"/>
		<path d="M343.09,0c10.231,17.333,20.223,34.04,29.979,50.883c5.084,8.776,10.356,17.525,14.469,26.766
			c6.298,14.152,13.098,28.327,12.35,44.501c-0.685,14.783-6.23,27.13-17.42,37.145c-12.339,11.043-26.804,16.667-42.997,15.947
			c-8.079-0.359-16.252-3.547-23.944-6.571c-13.065-5.134-21.909-15.375-27.36-27.823c-4.129-9.429-5.098-19.709-2.979-30.3
			c4.103-20.502,13.651-38.639,23.735-56.49c9.292-16.449,19.5-32.382,29.377-48.497C339.285,3.949,340.782,2.649,343.09,0z"/>
		<rect x="64.43" y="598.041" width="871.456" height="127.493"/>
	</g>
	<text transform="matrix(1 0 0 1 227.5464 877.8047)" display="inline" font-family="'MicrosoftYaHei-Bold'" font-size="90.8706">雨水井采样点</text>
</g>
<g id="图层_13_1_" display="none">
	<g id="图层_13_2_" display="inline">
		<g>
			<rect x="88.928" y="159.948" width="92.995" height="367.481"/>
			<rect x="349.915" y="233.445" width="560.971" height="347.981"/>
			<rect x="88.928" y="561.928" width="227.989" height="92.995"/>
			<rect x="223.921" y="159.948" width="92.995" height="494.976"/>
		</g>
	</g>
	<text transform="matrix(1 0 0 1 363.6016 828.3076)" display="inline" font-family="'MicrosoftYaHei-Bold'" font-size="90.8706">直排口</text>
</g>
<g id="图层_17_1_" display="none">
	<g id="图层_17_2_" display="inline">
		<rect x="115.446" y="188.296" width="770" height="114"/>
		<path d="M183.446,0.296v188h634v-188H183.446z M365.446,156.296h-118v-118h118V156.296z M566.446,156.296h-118v-118h118V156.296z
			 M767.446,156.296h-118v-118h118V156.296z"/>
		<g>
			<path d="M649.412,329.113c13.543,22.944,26.77,45.06,39.683,67.354c6.73,11.617,13.71,23.198,19.152,35.429
				c8.337,18.734,17.337,37.496,16.347,58.906c-0.906,19.568-8.248,35.912-23.059,49.169c-16.333,14.617-35.48,22.062-56.914,21.109
				c-10.694-0.477-21.514-4.696-31.696-8.698c-17.295-6.795-29.001-20.353-36.217-36.828c-5.466-12.481-6.748-26.09-3.943-40.108
				c5.432-27.138,18.07-51.146,31.418-74.774c12.301-21.773,25.813-42.864,38.888-64.196
				C644.375,334.341,646.357,332.619,649.412,329.113z"/>
			<path d="M490.106,521.113c17.958,30.427,35.497,59.751,52.62,89.315c8.926,15.405,18.182,30.762,25.397,46.979
				c11.056,24.844,22.99,49.724,21.677,78.113c-1.202,25.949-10.938,47.622-30.577,65.201
				c-21.657,19.384-47.05,29.255-75.472,27.992c-14.182-0.63-28.528-6.229-42.031-11.534c-22.935-9.011-38.458-26.987-48.025-48.836
				c-7.248-16.552-8.949-34.597-5.229-53.188c7.202-35.985,23.962-67.821,41.663-99.156c16.31-28.873,34.229-56.841,51.566-85.128
				C483.427,528.045,486.055,525.761,490.106,521.113z"/>
			<path d="M326.982,352.045c8.803,14.915,17.4,29.29,25.794,43.782c4.375,7.551,8.911,15.078,12.448,23.028
				c5.42,12.177,11.271,24.374,10.626,38.291c-0.589,12.72-5.36,23.344-14.988,31.961c-10.617,9.501-23.063,14.34-36.996,13.723
				c-6.952-0.311-13.984-3.054-20.604-5.654c-11.242-4.417-18.852-13.229-23.542-23.939c-3.553-8.112-4.386-16.959-2.563-26.07
				c3.53-17.641,11.746-33.246,20.423-48.605c7.995-14.153,16.778-27.863,25.277-41.729
				C323.708,355.441,324.997,354.322,326.982,352.045z"/>
		</g>
	</g>
	<text transform="matrix(1 0 0 1 364.1406 936.3008)" display="inline" font-family="'MicrosoftYaHei-Bold'" font-size="90.8706">总排口</text>
</g>
<g id="图层_38" display="none">
	<text transform="matrix(1 0 0 1 245.3804 951.3037)" display="inline" font-family="'MicrosoftYaHei-Bold'" font-size="90.8706">电磁辐射源</text>
	<path display="inline" d="M481.417,42.636c-218.17,0-395.031,176.862-395.031,395.048c0,218.17,176.861,395.051,395.031,395.051
		c218.205,0,395.067-176.881,395.067-395.051C876.484,219.498,699.622,42.636,481.417,42.636z M481.417,782.079
		c-190.202,0-344.377-154.191-344.377-344.395c0-190.219,154.175-344.413,344.377-344.413
		c190.238,0,344.413,154.193,344.413,344.413C825.83,627.888,671.655,782.079,481.417,782.079z"/>
	<rect x="125.839" y="426.931" display="inline" width="705.768" height="10.541"/>
	<polygon display="inline" points="667.803,118.688 333.306,740.147 324.033,735.153 658.492,113.695 	"/>
	<polygon display="inline" points="338.193,112.91 648.345,746.853 638.872,751.489 328.705,117.529 	"/>
	<path display="inline" d="M702.598,437.685c0,114.686-92.996,207.664-207.681,207.664c-114.685,0-207.647-92.979-207.647-207.664
		c0-114.685,92.963-207.646,207.647-207.646C609.602,230.039,702.598,323,702.598,437.685z"/>
	<path display="inline" fill="#FFFFFF" d="M681.6,437.686c0,103.089-83.594,186.665-186.681,186.665
		c-103.088,0-186.65-83.576-186.65-186.665c0-103.088,83.563-186.649,186.65-186.649C598.006,251.037,681.6,334.598,681.6,437.686z"
		/>
	
		<rect x="450.993" y="236.143" transform="matrix(0.9412 0.3378 -0.3378 0.9412 140.6362 -134.2444)" display="inline" width="10.073" height="201.624"/>
	
		<rect x="534.889" y="427.825" transform="matrix(0.9412 0.3378 -0.3378 0.9412 212.4515 -151.0616)" display="inline" width="10.719" height="214.098"/>
	<rect x="417.233" y="426.931" display="inline" width="164.224" height="10.755"/>
</g>
<g id="图层_30" display="none">
	<g display="inline">
		<path d="M510.124,2.345c-218.17,0-395.031,176.862-395.031,395.048c0,218.17,176.861,395.051,395.031,395.051
			c218.205,0,395.067-176.881,395.067-395.051C905.191,179.207,728.329,2.345,510.124,2.345z M510.124,741.789
			c-190.202,0-344.377-154.191-344.377-344.396c0-190.219,154.175-344.413,344.377-344.413
			c190.238,0,344.413,154.193,344.413,344.413C854.537,587.598,700.362,741.789,510.124,741.789z"/>
		<path d="M717.806,397.394c0,114.687-92.996,207.665-207.682,207.665c-114.685,0-207.647-92.979-207.647-207.665
			c0-114.685,92.963-207.646,207.647-207.646C624.81,189.748,717.806,282.709,717.806,397.394z"/>
		<rect x="154.546" y="386.639" width="705.768" height="10.542"/>
		<polygon points="696.51,78.397 362.013,699.857 352.74,694.863 687.199,73.404 		"/>
		<polygon points="366.9,72.619 677.052,706.563 667.579,711.199 357.412,77.238 		"/>
	</g>
	<text transform="matrix(1 0 0 1 237.5303 915.3008)" display="inline" font-family="'MicrosoftYaHei-Bold'" font-size="90.8706">放射性污染源</text>
</g>
<g id="图层_31" display="none">
	<g display="inline">
		
			<rect x="117.983" y="163.676" fill="#FFFFFF" stroke="#000000" stroke-width="18" stroke-miterlimit="10" width="773.506" height="181.566"/>
		
			<rect x="117.983" y="346.313" fill="#FFFFFF" stroke="#000000" stroke-width="18" stroke-miterlimit="10" width="192.273" height="270.526"/>
		
			<rect x="311.736" y="346.313" fill="#FFFFFF" stroke="#000000" stroke-width="18" stroke-miterlimit="10" width="192.264" height="270.526"/>
		
			<rect x="505.472" y="346.313" fill="#FFFFFF" stroke="#000000" stroke-width="18" stroke-miterlimit="10" width="192.265" height="270.526"/>
		
			<rect x="699.216" y="346.313" fill="#FFFFFF" stroke="#000000" stroke-width="18" stroke-miterlimit="10" width="192.273" height="270.526"/>
	</g>
	<text transform="matrix(1 0 0 1 186.689 835.3008)" display="inline" font-family="'MicrosoftYaHei-Bold'" font-size="90.8706">固体废物排放口</text>
</g>
<g id="图层_18_1_" display="none">
	<g id="图层_18_2_" display="inline">
		<g>
			<rect x="88.818" y="104.454" fill="#1E1E1E" width="822" height="83.243"/>
			<rect x="88.818" y="634.454" fill="#1E1E1E" width="822" height="83.242"/>
			<rect x="193.197" y="1" fill="#1E1E1E" width="83.242" height="822"/>
			<rect x="737.197" y="1" fill="#1E1E1E" width="83.242" height="822"/>
			<rect x="434.818" y="334.454" fill="#1E1E1E" width="144" height="144"/>
		</g>
	</g>
	<text transform="matrix(1 0 0 1 272.6421 945.3018)" display="inline" font-family="'MicrosoftYaHei-Bold'" font-size="90.8706">渗坑、渗井</text>
</g>
<g id="图层_19_1_" display="none">
	<g id="图层_19_2_" display="inline">
		<path fill="#1E1E1E" d="M775.818,339.01c0-152.431-123.569-276-276-276c-152.432,0-276,123.569-276,276h100.851l-54.851,417.998
			h460L674.967,339.01H775.818L775.818,339.01z"/>
	</g>
	<text transform="matrix(1 0 0 1 408.9478 891.3047)" display="inline" font-family="'MicrosoftYaHei-Bold'" font-size="90.8706">水塔</text>
</g>
<g id="图层_20_1_" display="none">
	<g display="inline">
		<g>
			<path fill="#1E1E1E" d="M501.095,79.54c-95.517,0-172.949,77.432-172.949,172.949s77.433,172.948,172.949,172.948
				c95.518,0,172.948-77.431,172.948-172.948C674.043,156.972,596.612,79.54,501.095,79.54z M501.094,409.403
				c-86.661,0-156.914-70.253-156.914-156.915S414.432,95.576,501.094,95.576s156.913,70.251,156.913,156.913
				S587.756,409.403,501.094,409.403z"/>
			
				<rect x="331.871" y="245.895" transform="matrix(-0.7194 -0.6945 0.6945 -0.7194 679.6331 789.2254)" fill="#1E1E1E" width="334.689" height="22.906"/>
			
				<rect x="327.954" y="241.042" transform="matrix(-0.6945 0.7194 -0.7194 -0.6945 1020.9647 71.5223)" fill="#1E1E1E" width="334.691" height="22.907"/>
		</g>
		<path fill="#1E1E1E" d="M683.256,248.341v16.49v66.661v76.906c0,96.202-82.394,174.188-184.034,174.188
			c-101.639,0-184.032-77.986-184.032-174.188V264.831h0.62v-16.49h-28.176v176.546c0,102.775,94.732,186.089,211.589,186.089
			c116.858,0,211.589-83.314,211.589-186.089V248.341H683.256z"/>
		<rect x="301.968" y="442.945" fill="#1E1E1E" width="397.034" height="26.568"/>
		<rect x="316.818" y="482.105" fill="#1E1E1E" width="360.5" height="26.568"/>
		<rect x="350.818" y="525.604" fill="#1E1E1E" width="292.5" height="26.568"/>
		<rect x="32.583" y="244.105" fill="#1E1E1E" width="935.806" height="26.57"/>
	</g>
	<text transform="matrix(1 0 0 1 227.874 787.8027)" display="inline" font-family="'MicrosoftYaHei-Bold'" font-size="90.8706">污水处理装置</text>
</g>
<g id="图层_21_1_" display="none">
	<g id="图层_21_2_" display="inline">
		<g>
			<path fill="#1E1E1E" d="M500.592,224.331c-95.517,0-172.949,77.432-172.949,172.949c0,95.518,77.433,172.948,172.949,172.948
				c95.518,0,172.948-77.43,172.948-172.948C673.54,301.763,596.109,224.331,500.592,224.331z M500.591,554.192
				c-86.661,0-156.914-70.252-156.914-156.914c0-86.662,70.252-156.913,156.914-156.913s156.913,70.251,156.913,156.913
				C657.504,483.94,587.253,554.192,500.591,554.192z"/>
			
				<rect x="331.372" y="390.681" transform="matrix(-0.7194 -0.6945 0.6945 -0.7194 578.217 1037.8313)" fill="#1E1E1E" width="334.69" height="22.906"/>
			
				<rect x="327.446" y="385.829" transform="matrix(-0.6945 0.7194 -0.7194 -0.6945 1124.2705 317.2351)" fill="#1E1E1E" width="334.692" height="22.906"/>
		</g>
		<rect x="68.67" y="377.565" fill="#1E1E1E" width="265.487" height="30.735"/>
		<rect x="667.14" y="377.565" fill="#1E1E1E" width="265.486" height="30.735"/>
		<rect x="703.138" y="309.305" fill="#1E1E1E" width="229.488" height="30.734"/>
	</g>
	<text transform="matrix(1 0 0 1 182.5439 724.0732)" display="inline" font-family="'MicrosoftYaHei-Bold'" font-size="90.8706">污水管道及流向</text>
</g>
<g id="图层_22_1_" display="none">
	<g id="图层_22_2_" display="inline">
		<path fill="#1E1E1E" d="M500.485,30.706c-207.926,0-376.481,168.556-376.481,376.479c0,207.925,168.556,376.482,376.481,376.482
			c207.925,0,376.48-168.557,376.48-376.481C876.966,199.262,708.41,30.706,500.485,30.706z M500.485,732.671
			C324.039,732.671,181,590.304,181,414.687h638.969C819.969,590.304,676.931,732.671,500.485,732.671z"/>
	</g>
	<text transform="matrix(1 0 0 1 409.6143 927.2959)" display="inline" font-family="'MicrosoftYaHei-Bold'" font-size="90.8706">油库</text>
</g>
<g id="图层_23_1_" display="none">
	<g id="图层_23_2_" display="inline">
		<g>
			<path d="M546.599,0c32.139,16.71,40.596,43.352,40.351,78.73c-1.34,199.763-0.646,399.543-0.652,599.318
				c0,6.954-0.07,13.913-0.059,20.872c0.035,23.068-9.617,40.975-30.92,49.979c-21.378,9.033-40.956,3.239-57.334-12.935
				c-43.824-43.293-89.151-85.211-130.761-130.538c-24.252-26.427-49.71-36.952-85.561-35.956
				c-31.025,0.862-63.979-3.666-93.173-14.022c-57.556-20.405-95.219-62.859-112.966-121.994
				c-3.969-13.23-8.23-26.368-12.356-39.546c0-11.938,0-23.873,0-35.811c3.678-10.095,8.038-19.998,10.928-30.313
				c18.942-67.639,62.766-112.774,129.006-132.13c30.657-8.958,64.643-8.375,97.136-8.515c21.635-0.093,36.939-6.592,52.176-21.769
				C408.46,109.523,465.847,55.016,522.727,0.001C530.681,0,538.643,0,546.599,0z M523.198,81.231
				c-13.627,12.811-21.489,19.898-29.015,27.33c-39.574,39.062-78.117,79.254-119.19,116.673
				c-11.873,10.824-30.459,17.451-46.785,19.52c-29.381,3.724-59.671,0.233-89.07,3.888
				c-68.362,8.492-114.873,67.65-111.626,138.693c2.979,65.214,57.486,119.478,123.603,122.111
				c24.789,0.989,49.916-2.093,74.382,0.855c16.203,1.946,35.017,7.479,46.586,18.058c42.46,38.829,82.297,80.52,123.329,120.928
				c7.257,7.146,15.498,13.301,27.784,23.728C523.198,474.007,523.198,281.967,523.198,81.231z"/>
			<path d="M936.491,384.524C935.757,538.429,817.865,660.5,679.796,661.945c-20.702,0.216-40.006-2.319-41.229-27.329
				c-1.189-24.398,16.202-29.999,37.731-31.563c112.052-8.105,197.152-93.614,199.601-199.4
				c2.646-114.436-75.128-203.452-190.217-217.633c-5.916-0.723-11.89-1.014-17.841-1.317c-19.11-0.967-33.028-12.123-28.326-29.684
				c3.072-11.458,21.781-28.583,30.554-26.991c43.346,7.868,89.401,14.023,127.684,33.91
				C890.283,210.004,932.585,292.61,936.491,384.524z"/>
			<path d="M807.415,393.08c0.198,80.7-63.739,148.834-141.706,151.306c-19.799,0.629-37.302-3.509-38.729-26.612
				c-1.383-22.225,14.033-30.08,34.178-32.728c53.702-7.052,85.042-40.285,85.211-89.14c0.175-50.421-32.487-86.458-85.532-92.485
				c-20.784-2.354-35.454-10.725-33.799-32.639c1.714-22.737,19.257-26.898,39.148-26.374
				C742.417,246.42,807.216,314.396,807.415,393.08z"/>
		</g>
	</g>
	<text transform="matrix(1 0 0 1 389.1836 885.2969)" display="inline" font-family="'MicrosoftYaHei-Bold'" font-size="90.8706">噪声源</text>
</g>
<g id="图层_39" display="none">
	<g display="inline">
		<g>
			<path fill="#191919" d="M269.238,54.588V4.646h-48.394v49.942l-1.548,151.375h98.336V54.588H269.238z"/>
			<path fill="#191919" d="M520.499,4.646v51.49h-51.49v199.77h99.884V4.646H520.499z"/>
			<rect x="169.354" y="104.53" fill="#191919" width="501.284" height="49.943"/>
			<rect x="169.354" y="404.185" fill="#191919" width="199.77" height="199.974"/>
			<path fill="#191919" d="M297.607,204.423H241.92c-67.123,0-72.565-2.047-72.565,57.034v91.313h199.77v-91.313
				C369.125,202.376,364.68,204.423,297.607,204.423z"/>
			<path fill="#191919" d="M241.92,802.176h55.688c67.072,0,71.517,2.046,71.517-57.083v-91.005h-199.77v91.005
				C169.354,804.222,174.797,802.176,241.92,802.176z"/>
			<path fill="#191919" d="M546.769,206.962h-54.537c-65.674,0-73.165-2.048-73.165,57.035v90.48h199.77v-90.48
				C618.837,204.914,612.394,206.962,546.769,206.962z"/>
			<path fill="#191919" d="M492.232,804.073h54.537c65.625,0,72.068,2.046,72.068-57.084v-92.45h-199.77v92.45
				C419.067,806.119,426.508,804.073,492.232,804.073z"/>
			<rect x="419.067" y="404.185" fill="#191919" width="199.77" height="199.778"/>
			<path fill="#191919" d="M119.412,304.3v150.108h48.394V304.3H119.412z"/>
			<path fill="#191919" d="M618.837,304.3v150.33h48.394V304.3H618.837z"/>
			<path fill="#191919" d="M618.837,554.013v148.396h48.394V554.013H618.837z"/>
			<path fill="#191919" d="M119.412,554.013v151.212h48.394V554.013H119.412z"/>
			<path fill="#191919" d="M856.063,705.388c-25.271,0-47.694-9.738-66.722-28.966c-86.151-87.101-67.374-225.441-67.374-319.232
				c0-36.408-3.246-73.366-3.246-101.084c0-67.322-10.937-105.079-48.045-105.079l-0.35-41.802c0,0,98.338-29.666,98.338,146.531
				c0,28.067-0.149,61.429-0.599,98.187c-2.049,173.85-14.684,215.151,56.782,287.417c9.54,9.641,19.429,14.135,31.215,14.135
				V705.388L856.063,705.388z"/>
			<ellipse fill="#191919" cx="842.778" cy="677.319" rx="74.114" ry="73.365"/>
		</g>
	</g>
	<text transform="matrix(1 0 0 1 381.8462 921.2959)" display="inline" font-family="'MicrosoftYaHei-Bold'" font-size="90.8706">储罐区</text>
</g>
</svg>
