<?xml version="1.0" encoding="utf-8"?>
<!-- Generator: Adobe Illustrator 16.0.0, SVG Export Plug-In . SVG Version: 6.00 Build 0)  -->
<!DOCTYPE svg PUBLIC "-//W3C//DTD SVG 1.1//EN" "http://www.w3.org/Graphics/SVG/1.1/DTD/svg11.dtd">
<svg version="1.1" id="图层_1" xmlns="http://www.w3.org/2000/svg" xmlns:xlink="http://www.w3.org/1999/xlink" x="0px" y="0px"
	 width="1000px" height="1000px" viewBox="0 0 1000 1000" enable-background="new 0 0 1000 1000" xml:space="preserve">
<g id="图层_3_2_">
	<g>
		<path d="M247.556,645.645c0-96.465,0-192.93,0-291.962c165.924,0,324.81,0,490.733,0c0,99.042,0,195.507,0,291.962
			c-64.75,0-129.496,0-194.249,0c0-43.34,0-86.691,0-130.521c-36.796,0-69.213,0-102.235,0c0,46.326,0,88.428,0,130.521
			C377.054,645.645,312.308,645.645,247.556,645.645z"/>
		<path d="M820.078,322.861c-210.626,0-421.253,0-631.882,0c-2.092-3.635-4.184-7.259-6.275-10.893
			c102.956-90.784,205.905-181.568,310.688-273.971c39.622,34.015,76.632,65.795,119.919,102.945
			c3.1-26.348,5.489-46.655,8.146-69.239c23.916,0,46.806,0,78.962,0c-28.414,115.715,16.778,194.209,120.442,240.934
			C820.078,316.042,820.078,319.456,820.078,322.861z"/>
	</g>
</g>
<g>
	<path d="M396.362,683.031l-6.866,9.64c23.369,34.634,57.532,61.319,102.478,80.063c-7.357,10.712-14.878,22.049-22.554,34.01
		c-9.807-4.995-19.206-10.444-28.195-16.334c-0.327,15.172-0.898,29.102-1.716,41.772c-0.817,31.423-12.832,46.952-36.038,46.593
		c-9.483,0.894-21.41,1.161-35.792,0.807c-2.288-13.393-4.902-25.352-7.843-35.887c15.033,1.071,25.495,1.519,31.379,1.34
		c10.13-0.182,15.28-5.267,15.445-15.265c0.324-6.428,0.492-11.513,0.492-15.265h-85.56v72.835c0,11.781,6.62,17.672,19.858,17.672
		h79.676c10.787,0,17.655-5.354,20.594-16.065c2.124-8.923,4.168-19.902,6.129-32.937c9.806,4.824,20.919,9.639,33.34,14.46
		c-3.596,16.246-6.947,29.368-10.049,39.364c-6.214,19.993-20.272,29.988-42.17,29.988h-99.781
		c-27.457-0.182-41.183-14.28-41.183-42.31V797.367c-6.54,4.104-13.323,8.121-20.35,12.047
		c-7.519-12.669-14.874-23.92-22.066-33.738c51.157-23.919,87.195-54.804,108.114-92.649h42.659V683.031z M369.15,720.786
		c-15.037,21.957-34.324,41.951-57.858,59.982h115.959C404.533,763.812,385.166,743.815,369.15,720.786z"/>
	<path d="M606.948,687.85l40.21-4.821c2.286,6.249,5.021,14.192,8.212,23.831h83.231v31.062H550.32v64.535
		c0,65.337-9.805,113.804-29.415,145.406c-8.172-11.785-16.425-22.495-24.761-32.135c14.216-25.526,21.165-63.374,20.839-113.537
		v-95.327h98.062L606.948,687.85z M548.356,874.758h85.809v-18.743h-70.853v-30.526c6.049-10.711,12.018-21.868,17.9-33.473h-25.006
		v-31.063h40.085c3.432-7.316,6.82-14.815,10.174-22.493l34.077,5.623l-8.092,16.87h100.023v31.063H617.13l-17.285,33.473h34.322
		v-25.171h32.853v25.171h61.532v30.526H667.02v18.743h73.055v31.063H667.02v39.095h-32.853V905.82h-85.806v-31.063H548.356z"/>
</g>
</svg>
