<?xml version="1.0" encoding="utf-8"?>
<!-- Generator: Adobe Illustrator 16.0.0, SVG Export Plug-In . SVG Version: 6.00 Build 0)  -->
<!DOCTYPE svg PUBLIC "-//W3C//DTD SVG 1.1//EN" "http://www.w3.org/Graphics/SVG/1.1/DTD/svg11.dtd">
<svg version="1.1" id="图层_1" xmlns="http://www.w3.org/2000/svg" xmlns:xlink="http://www.w3.org/1999/xlink" x="0px" y="0px"
	 width="1000px" height="1000px" viewBox="0 0 1000 1000" enable-background="new 0 0 1000 1000" xml:space="preserve">
<g>
	<path d="M283.924,806.026v73.409c4.365,1.848,9.678,3.626,15.937,5.336c-2.43,15.849-5.831,25.393-10.198,28.634
		c-4.369,3.243-10.153,4.863-17.356,4.863H239.89c-14.678,0-22.016-6.665-22.016-19.99v-13.507H191.4v10.536h-19.45v-89.281h45.923
		v-16.613h19.586v16.613H283.924z M191.4,823.046v13.776h26.473v-13.776H191.4z M191.4,867.753h26.473v-13.914H191.4V867.753z
		 M264.473,823.046h-27.013v13.776h27.013V823.046z M264.473,867.753v-13.914h-27.013v13.914H264.473z M245.698,901.521h20.26
		c3.331,0,5.965-0.575,7.901-1.723c1.935-1.147,3.184-2.724,3.747-4.726c0.563-2.004,1.25-5.437,2.062-10.301h-42.208v9.589
		C237.459,899.133,240.205,901.521,245.698,901.521z"/>
	<path d="M305.399,801.029h46.059v9.726h20.125c-3.603-6.033-6.709-10.986-9.32-14.858l13.236-7.565
		c2.971,3.422,7.248,9.006,12.832,16.75l-10.4,5.674h18.774c5.852-8.194,10.715-15.668,14.587-22.422l16.747,9.456
		c-3.692,4.231-7.427,8.553-11.21,12.967h21.881v17.694h-20.124c-4.413,10.174-8.241,19.584-11.481,28.229
		c1.62-0.091,3.781-0.271,6.482-0.54c2.161-5.223,4.459-10.896,6.89-17.021l15.264,4.999c-6.035,12.335-12.022,24.628-17.966,36.872
		l11.616-2.834c2.252,7.474,5.132,20.528,8.645,39.167l-13.913,2.702c-0.54-2.971-1.081-5.809-1.62-8.509
		c-9.275,0.63-17.74,1.396-25.394,2.296l-5.268-14.183c4.052-3.33,9.41-13.415,16.074-30.256c-5.944,0.541-10.4,1.173-13.372,1.893
		l-4.863-12.021c3.962-4.501,8.33-14.767,13.103-30.795h-23.503c-4.684,10.355-9.41,19.405-14.182,27.149
		c2.34-0.091,4.592-0.225,6.753-0.406c2.341-5.403,4.817-11.256,7.429-17.559l15.533,5.403
		c-5.583,12.246-12.021,25.303-19.314,39.169l12.425-2.161c0.63,3.331,2.567,16.118,5.809,38.357l-14.046,1.487
		c-0.452-3.241-0.81-6.033-1.081-8.374c-10.896,1.352-19.226,2.567-24.987,3.646l-5.405-16.479
		c3.692-2.069,9.546-12.065,17.56-29.983c-5.492,0.539-10.085,1.036-13.777,1.486l-4.592-12.292v59.701h-13.779v-5.807h-8.912v7.563
		h-13.777v-46.734c-1.442,2.434-2.883,4.819-4.324,7.158c-1.44-13.055-2.43-21.564-2.97-25.525
		c4.591-9.095,9.049-20.936,13.37-35.522h-11.615V801.029z M333.626,896.657v-40.791h-8.912v40.791H333.626z M364.289,828.448
		h-13.914v-9.726h-16.882c-2.343,7.744-4.908,15.083-7.7,22.017h21.612v14.993C351.815,852.851,357.444,843.757,364.289,828.448z
		 M376.58,897.736c-0.722-5.042-1.396-9.544-2.026-13.506c-2.612,4.862-5.314,9.814-8.104,14.858
		C370.771,898.548,374.148,898.099,376.58,897.736z M416.83,883.285c-3.062,6.033-5.942,11.168-8.643,15.396
		c2.79-0.27,6.617-0.628,11.479-1.081C418.585,891.931,417.64,887.159,416.83,883.285z"/>
	<path d="M443.033,898.548l-0.406-16.883l23.771-0.945v-12.967h-23.097v-15.94c2.927-9.319,5.582-19.404,7.968-30.255h-8.509
		v-15.803h11.753c1.034-5.673,2.024-11.524,2.97-17.559l16.613,1.487l-3.375,16.072h23.502v15.804h-27.081
		c-2.611,10.896-5.293,21.025-8.037,30.392h7.293v-22.556h15.937v22.554h11.481v15.805h-11.481v12.223l12.292-0.606
		c-0.091,5.672-0.091,10.94,0,15.804l-12.292,0.675v26.203H466.4v-25.189L443.033,898.548z M496.25,794.816h77.124v14.046H496.25
		V794.816z M497.331,856.678h74.555v64.831h-16.748v-7.021h-41.06v7.021h-16.748V856.678z M502.463,815.482h64.292v34.578h-64.292
		V815.482z M514.079,879.504h12.562v-9.86h-12.562V879.504L514.079,879.504z M514.079,901.521h12.562v-9.86h-12.562V901.521
		L514.079,901.521z M549.737,828.584H519.48v8.374h30.257V828.584z M555.139,869.644h-12.56v9.86h12.56V869.644z M542.579,901.521
		h12.56v-9.86h-12.56V901.521z"/>
	<path d="M581.344,863.972h7.158v-60.915h14.654c2.07-4.862,3.94-9.814,5.606-14.859l18.369,1.622
		c-1.936,3.286-4.368,7.697-7.294,13.234h26.878v100.76c0,11.616-6.077,17.425-18.233,17.425l-13.101-0.271
		c-0.9-6.123-2.116-11.751-3.646-16.884c5.176,0.54,9.771,0.809,13.777,0.809c2.792,0,4.232-1.979,4.323-5.94v-15.668
		c-10.625,13.507-23.953,24.851-39.981,34.035c-2.882-5.491-6.124-11.074-9.726-16.747c13.102-6.121,24.246-13.238,33.43-21.34
		h-32.212v-15.261H581.344z M629.832,818.317h-24.447v7.024h24.447V818.317z M605.385,844.654h24.449v-7.021h-24.449V844.654z
		 M605.385,863.972h24.449v-7.024h-24.449V863.972z M651.039,815.346h33.901V789.55h18.233v25.796h12.02v17.29h-12.02v64.697
		c0,7.158-1.384,12.538-4.153,16.141c-2.768,3.601-6.393,5.682-10.874,6.246c-4.48,0.564-14.147,0.844-29.006,0.844
		c-1.08-6.481-2.477-12.965-4.187-19.447c5.988,0.45,12.719,0.673,20.193,0.673c6.798,0,10.062-3.511,9.793-10.535v-58.618h-33.901
		V815.346L651.039,815.346z M668.327,839.118c4.502,11.438,8.869,23.772,13.101,37.009l-17.559,5.133
		c-3.602-14.407-7.203-26.834-10.806-37.278L668.327,839.118z"/>
	<path d="M729.782,824.53c6.844,4.954,13.956,10.626,21.342,17.021l-12.155,14.588c-6.574-6.394-13.327-12.652-20.263-18.776
		L729.782,824.53z M733.834,863.16c6.753,3.064,12.291,5.226,16.613,6.484l-12.155,50.919c-5.944-2.25-11.887-4.095-17.829-5.536
		C725.056,901.25,729.512,883.96,733.834,863.16z M732.483,789.684c10.174,7.294,17.559,12.832,22.151,16.613l-12.562,13.642
		c-6.395-6.213-13.327-12.381-20.8-18.504L732.483,789.684z M787.861,880.989l13.234,8.105c-2.97,4.817-6.37,9.86-10.194,15.126
		c2.339,0.358,5.379,0.585,9.115,0.674c3.962-0.538,5.989-2.384,6.078-5.537v-21.34h-23.908v-57.133h14.521
		c1.621-3.737,3.039-7.609,4.254-11.618h-26.337v40.657c0,33.856-4.997,58.169-14.993,72.937
		c-5.765-5.763-10.853-10.085-15.263-12.967c8.734-12.968,13.057-33.768,12.966-62.403V794.14h94.684v15.126h-33.295
		c-1.08,2.657-2.882,6.527-5.402,11.617h32.889v57.132h-22.824v25.528c0,5.133-1.07,9.139-3.208,12.021
		c-2.138,2.881-5.403,4.638-9.792,5.268c-4.391,0.631-10.142,0.855-17.256,0.674c-0.766-4.906-1.87-10.175-3.309-15.802
		c-2.613,3.511-5.381,7.112-8.308,10.805l-12.562-10.129C775.524,899.448,781.828,890.985,787.861,880.989z M829.462,834.661
		h-30.795v8.51h30.795V834.661z M829.462,864.24v-8.643h-30.795v8.643H829.462z M837.297,880.449
		c5.674,7.385,11.301,15.804,16.884,25.259l-13.912,8.238c-4.323-8.285-9.544-16.973-15.668-26.068L837.297,880.449z"/>
</g>
<g>
	<path d="M499.984,60.643c-181.168,0-328.034,146.867-328.034,328.048c0,181.168,146.866,328.051,328.034,328.051
		c181.198,0,328.064-146.883,328.064-328.051C828.049,207.51,681.183,60.643,499.984,60.643z M499.984,674.678
		c-157.944,0-285.971-128.041-285.971-285.986c0-157.958,128.027-286.001,285.971-286.001
		c157.975,0,286.001,128.042,286.001,286.001C785.985,546.637,657.959,674.678,499.984,674.678z"/>
	<rect x="204.712" y="379.762" width="586.071" height="8.753"/>
	<polygon points="654.76,123.797 376.993,639.857 369.293,635.711 647.028,119.65 	"/>
	<polygon points="381.051,118.999 638.602,645.426 630.735,649.275 373.172,122.834 	"/>
	<path d="M683.653,388.692c0,95.235-77.225,172.444-172.459,172.444c-95.233,0-172.43-77.21-172.43-172.444
		c0-95.235,77.197-172.429,172.43-172.429C606.429,216.263,683.653,293.458,683.653,388.692z"/>
	<path fill="#FFFFFF" d="M666.217,388.693c0,85.605-69.417,155.006-155.021,155.006c-85.603,0-154.994-69.4-154.994-155.006
		c0-85.604,69.391-154.994,154.994-154.994C596.8,233.7,666.217,303.089,666.217,388.693z"/>
	
		<rect x="474.718" y="221.324" transform="matrix(-0.9412 -0.3378 0.3378 -0.9412 826.6042 753.9193)" width="8.365" height="167.426"/>
	
		<rect x="544.39" y="380.492" transform="matrix(-0.9412 -0.3378 0.3378 -0.9412 906.86 1096.5769)" width="8.901" height="177.784"/>
	<rect x="446.687" y="379.762" width="136.371" height="8.931"/>
</g>
</svg>
