<?xml version="1.0" encoding="utf-8"?>
<!-- Generator: Adobe Illustrator 16.0.0, SVG Export Plug-In . SVG Version: 6.00 Build 0)  -->
<!DOCTYPE svg PUBLIC "-//W3C//DTD SVG 1.1//EN" "http://www.w3.org/Graphics/SVG/1.1/DTD/svg11.dtd">
<svg version="1.1" id="图层_1" xmlns="http://www.w3.org/2000/svg" xmlns:xlink="http://www.w3.org/1999/xlink" x="0px" y="0px"
	 width="1000px" height="1000px" viewBox="0 0 1000 1000" enable-background="new 0 0 1000 1000" xml:space="preserve">
<g>
	<g>
		<path fill="#1E1E1E" d="M503.511,58.54c-97.314,0-176.203,78.889-176.203,176.204c0,97.314,78.89,176.203,176.203,176.203
			c97.315,0,176.202-78.889,176.202-176.203C679.713,137.429,600.825,58.54,503.511,58.54z M503.51,394.61
			c-88.292,0-159.867-71.575-159.867-159.868c0-88.293,71.574-159.866,159.867-159.866s159.865,71.573,159.865,159.866
			C663.375,323.035,591.803,394.61,503.51,394.61z"/>
		
			<rect x="331.124" y="228.064" transform="matrix(0.7194 0.6945 -0.6945 0.7194 307.2321 -281.1315)" fill="#1E1E1E" width="340.964" height="23.335"/>
		
			<rect x="327.16" y="223.069" transform="matrix(0.6945 -0.7194 0.7194 0.6945 -16.8746 429.7285)" fill="#1E1E1E" width="340.966" height="23.336"/>
	</g>
	<path fill="#1E1E1E" d="M689.1,230.517v16.801v67.916v78.353c0,98.011-83.944,177.465-187.497,177.465
		c-103.551,0-187.494-79.454-187.494-177.465V247.318h0.63v-16.801h-28.706v179.868c0,104.709,96.515,189.59,215.57,189.59
		c119.057,0,215.571-84.881,215.571-189.59V230.517H689.1z"/>
	<rect x="300.637" y="428.784" fill="#1E1E1E" width="404.505" height="27.067"/>
	<rect x="315.767" y="468.681" fill="#1E1E1E" width="367.283" height="27.067"/>
	<rect x="350.407" y="512.997" fill="#1E1E1E" width="298.003" height="27.068"/>
	<rect x="26.183" y="226.202" fill="#1E1E1E" width="953.415" height="27.07"/>
</g>
<g>
	<path d="M74.088,817.418c6.412,3.731,15.314,9.571,26.706,17.516l-11.63,15.65c-6.318-5.455-15.03-11.581-26.132-18.379
		L74.088,817.418z M82.702,857.333c5.647,2.776,11.918,5.265,18.809,7.466c-7.466,23.451-12.827,41.59-16.081,54.417
		c-6.796-2.585-13.305-4.835-19.527-6.749C72.125,895.812,77.725,877.433,82.702,857.333z M78.683,780.518
		c8.04,5.743,16.319,12.105,24.839,19.096l-12.205,14.07c-6.414-6.125-14.455-12.826-24.123-20.103L78.683,780.518z
		 M102.947,821.006h104.527v17.23H141.57l-3.589,15.219h60.304c-0.624,10.623-1.329,20.653-2.119,30.08
		c-0.789,9.43-1.721,15.783-2.798,19.06c-1.078,3.277-2.645,6.031-4.702,8.258c-2.059,2.225-5.11,3.912-9.153,5.061
		c-4.045,1.148-9.416,1.723-16.117,1.723c-7.179,0-16.033-0.24-26.562-0.718c-1.053-6.031-2.297-12.444-3.732-19.24
		c14.739,1.245,24.408,1.866,29.001,1.866c5.026,0,8.447-0.67,10.266-2.012c1.819-1.337,2.991-3.721,3.519-7.142
		c0.524-3.421,1.1-10.086,1.722-19.992h-63.175l7.394-32.162h-18.88v-17.23H102.947z M111.994,786.261h87.728v16.941h-87.728
		V786.261z"/>
	<path d="M266.627,810.382v17.371c-6.796,33.311-22.015,60.112-45.659,80.405c-3.541-8.232-6.891-14.98-10.051-20.245
		c17.422-14.835,29.673-34.363,36.757-58.58H215.8V810.38h50.827V810.382z M351.34,812.104
		c-10.815,10.819-23.189,21.778-37.114,32.881c10.91,16.368,24.289,29.817,40.13,40.346c-3.733,5.266-7.753,12.061-12.061,20.391
		c-19.671-14.215-35.704-34.842-48.101-61.883v51.543c0,6.651-1.447,11.895-4.342,15.725c-2.896,3.826-6.963,6.183-12.204,7.07
		c-5.241,0.885-14.562,1.327-27.962,1.327c-1.436-8.041-3.16-15.508-5.17-22.398c6.893,0.766,13.735,1.148,20.533,1.148
		c6.126,0,9.188-3.733,9.188-11.199V780.086h19.958v24.05c2.967,8.471,6.366,16.464,10.196,23.978
		c11.726-10.434,21.918-20.508,30.582-30.225L351.34,812.104z"/>
	<path d="M381.204,778.793l18.523,2.298c-1.533,7.897-3.182,15.461-4.955,22.687h35.105v17.227c0,5.361-1.436,14.107-4.309,26.242
		c-2.869,12.13-7.633,23.725-14.287,34.779c12.493,10.626,31.947,15.94,58.365,15.94c11.534,0,22.255-0.383,32.162-1.149
		c-2.489,5.647-4.881,12.73-7.178,21.25c-22.783-0.287-38.29-0.826-46.52-1.614c-8.233-0.79-16.681-2.836-25.342-6.139
		c-8.664-3.303-16.131-7.729-22.4-13.282c-8.09,9.429-17.828,17.685-29.218,24.768c-5.84-7.85-10.194-13.162-13.067-15.937
		c11.918-6.701,21.825-14.597,29.722-23.691c-4.5-7.131-8.425-15.816-11.774-26.06c-2.727,5.456-5.6,10.554-8.616,15.292
		c-2.967-7.563-6.27-14.791-9.905-21.682C367.948,832.493,375.845,808.851,381.204,778.793z M398.795,866.521
		c7.324-13.111,11.414-28.092,12.275-44.938h-21.321c-0.91,2.967-1.868,5.886-2.873,8.758
		C389.605,845.032,393.578,857.093,398.795,866.521z M441.51,780.229h19.526v112.999H441.51V780.229z M475.826,811.96
		c8.423,10.339,16.988,21.778,25.701,34.317l-16.799,11.631c-6.797-11.773-14.647-23.834-23.549-36.182L475.826,811.96z"/>
	<path d="M509.422,913.328l-4.02-20.391l17.087-3.876v-35.32h-13.784v-17.804h13.784v-30.153h-14.356v-18.092h47.092v18.092h-14.358
		v30.153h13.354v17.804h-13.354v30.654c5.12-1.389,10.097-2.8,14.934-4.235c-0.383,6.796-0.43,13.353-0.143,19.668h35.608v-12.49
		h-32.737v-16.369h32.737v-10.337h-32.019v-74.519h82.414v74.519h-32.019v10.337h32.737v16.369h-32.737v12.49h39.056v16.368h-98.497
		v-15.146C537.564,904.545,523.971,908.637,509.422,913.328z M577.191,815.838h14.072v-13.643h-14.072V815.838z M577.191,844.554
		h14.072V830.77h-14.072V844.554z M623.712,802.197h-14.07v13.642h14.07V802.197z M623.712,844.554V830.77h-14.07v13.784H623.712z"
		/>
	<path d="M658.603,843.403l-6.034-18.953c13.114-4.595,25.318-9.261,36.612-13.997v-31.085h18.521v63.463h-18.521V830.41
		C679.134,834.432,668.939,838.763,658.603,843.403z M785.239,880.735c-6.172,2.681-13.52,5.672-22.041,8.975
		c8.76,4.115,19.507,7.395,32.232,9.836c-5.553,7.465-9.951,13.784-13.206,18.95c-19.241-6.315-34.148-14.429-44.728-24.336
		c-0.765,6.846-1.172,12.323-1.22,16.44c-23.546,3.924-38.335,7.561-44.364,10.912l-9.048-15.938
		c3.735-2.682,5.695-5.647,5.888-8.902v-2.587c-8.09,4.407-17.087,8.664-26.993,12.78c-2.587-6.033-5.647-12.108-9.191-18.237
		c20.58-6.172,37.596-13.879,51.047-23.116h-50.042v-15.937h61.669c-0.717-2.106-1.412-4.068-2.082-5.887l19.959-2.587l2.656,8.473
		h58.65v15.936h-19.024L785.239,880.735z M669.081,782.671c4.407,3.828,10.577,9.572,18.524,17.228l-13.784,12.061
		c-7.087-7.943-12.922-14.166-17.517-18.665L669.081,782.671z M720.269,872.122c-3.83,3.59-8.159,7.107-12.994,10.552v14.431
		c5.265-0.958,14.309-2.968,27.134-6.031C729.003,885.522,724.288,879.204,720.269,872.122z M715.029,822.729h27.423v-12.061h-31.16
		v-15.938h31.16v-15.075h19.097v15.075h31.013v15.938h-31.013v12.061h27.71v15.937h-74.229V822.729z M747.404,879.516
		c11.01-5.121,19.912-9.787,26.706-13.998h-38.765C739.03,870.972,743.05,875.64,747.404,879.516z"/>
	<path d="M799.453,903.995h15.937v-62.169h43.075v-5.743h-55.993v-12.924h55.993v-6.316h-49.967v-32.45h125.348v32.45h-53.557v6.316
		h59.156v12.924h-59.156v5.743h46.377v62.169h16.082v13.211H799.453V903.995z M827.307,805.069h17.952v-8.901h-17.952V805.069z
		 M906.707,854.46h-71.358v5.456h71.358V854.46z M835.349,874.562h71.358v-5.456h-71.358V874.562z M835.349,889.207h71.358v-5.456
		h-71.358V889.207z M835.349,903.995h71.358v-5.599h-71.358V903.995z M862.197,805.069h17.949v-8.901h-17.949V805.069z
		 M915.034,805.069v-8.901h-17.946v8.901H915.034z"/>
</g>
</svg>
