<?xml version="1.0" encoding="utf-8"?>
<!-- Generator: Adobe Illustrator 16.0.0, SVG Export Plug-In . SVG Version: 6.00 Build 0)  -->
<!DOCTYPE svg PUBLIC "-//W3C//DTD SVG 1.1//EN" "http://www.w3.org/Graphics/SVG/1.1/DTD/svg11.dtd">
<svg version="1.1" id="图层_1" xmlns="http://www.w3.org/2000/svg" xmlns:xlink="http://www.w3.org/1999/xlink" x="0px" y="0px"
	 width="1000px" height="1000px" viewBox="0 0 1000 1000" enable-background="new 0 0 1000 1000" xml:space="preserve">
<g>
	<g>
		<path fill="#191919" d="M293.714,74.33V32.646h-40.392V74.33l-1.292,126.344h82.075V74.33H293.714z"/>
		<path fill="#191919" d="M503.427,32.646v42.976h-42.976v166.736h83.367V32.646H503.427z"/>
		<rect x="210.347" y="116.014" fill="#191919" width="418.391" height="41.684"/>
		<rect x="210.347" y="366.118" fill="#191919" width="166.736" height="166.906"/>
		<path fill="#191919" d="M317.392,199.388h-46.479c-56.023,0-60.565-1.708-60.565,47.603v76.214h166.736v-76.214
			C377.084,197.68,373.374,199.388,317.392,199.388z"/>
		<path fill="#191919" d="M270.914,698.297h46.479c55.981,0,59.691,1.707,59.691-47.644v-75.957H210.348v75.957
			C210.347,700.004,214.89,698.297,270.914,698.297z"/>
		<path fill="#191919" d="M525.353,201.507h-45.519c-54.814,0-61.066-1.709-61.066,47.604v75.518h166.735v-75.518
			C585.503,199.798,580.125,201.507,525.353,201.507z"/>
		<path fill="#191919" d="M479.834,699.88h45.519c54.772,0,60.15,1.708,60.15-47.645v-77.162H418.768v77.162
			C418.768,701.588,424.978,699.88,479.834,699.88z"/>
		<rect x="418.768" y="366.118" fill="#191919" width="166.735" height="166.743"/>
		<path fill="#191919" d="M168.664,282.749v125.287h40.392V282.749H168.664z"/>
		<path fill="#191919" d="M585.503,282.749v125.472h40.392V282.749H585.503z"/>
		<path fill="#191919" d="M585.503,491.17v123.857h40.392V491.17H585.503z"/>
		<path fill="#191919" d="M168.664,491.17v126.207h40.392V491.17H168.664z"/>
		<path fill="#191919" d="M783.501,617.514c-21.092,0-39.807-8.127-55.688-24.177c-71.904-72.697-56.233-188.161-56.233-266.443
			c0-30.388-2.709-61.234-2.709-84.369c0-56.189-9.128-87.703-40.1-87.703l-0.292-34.889c0,0,82.076-24.761,82.076,122.3
			c0,23.426-0.124,51.271-0.499,81.951c-1.711,145.102-12.257,179.573,47.392,239.89c7.963,8.047,16.217,11.798,26.054,11.798
			V617.514L783.501,617.514z"/>
		<ellipse fill="#191919" cx="772.414" cy="594.086" rx="61.858" ry="61.233"/>
	</g>
</g>
<g>
	<path d="M202.475,742.608l26.591,5.055c-3.734,16.264-8.058,31.834-12.968,46.7V958.86h-26.369V857.657
		c-4.324,8.278-8.866,16.301-13.628,24.063c-1.466-9.081-3.957-22.781-7.473-41.095
		C183.719,811.177,195.001,778.506,202.475,742.608z M364.882,760.631l22.417,12.963c-7.033,12.822-15.457,25.203-25.273,37.141
		h24.615v23.077H340.93c-5.712,5.64-11.795,11.207-18.24,16.701h52.524v109.004h-26.811v-10.548h-37.801v10.99h-26.811v-80.327
		c-4.47,2.931-9.011,5.823-13.626,8.68c-2.931-6.958-6.74-15.309-11.43-25.053v40.217c4.689-3.076,10.037-6.813,16.044-11.205
		c0.292,10.257,1.098,19.996,2.416,29.229c-14.063,10.255-25.931,20.068-35.603,29.45l-15.164-20.001
		c3.959-3.661,5.935-9.302,5.935-16.922v-74.281h-12.748v-25.493h39.119v47.361c15.969-8.059,30.621-17.324,43.954-27.801h-36.04
		v-23.077h32.306V790.74h-25.055v-23.077h25.055v-25.272h27.469v25.272h23.517v16.813
		C355.358,776.931,360.34,768.981,364.882,760.631z M251.042,750.521c6.595,14.208,12.308,27.984,17.142,41.314l-25.931,10.329
		c-4.542-13.476-9.746-27.613-15.606-42.415L251.042,750.521z M348.4,873.37H310.6v15.164H348.4V873.37z M310.6,926.114H348.4
		v-15.604H310.6V926.114z M345.322,790.738h-18.9v19.998h1.867C334.371,804.437,340.047,797.771,345.322,790.738z"/>
	<path d="M391.696,850.953V826.12H425.1v-35.382h-5.055c-3.227,10.109-6.668,19.855-10.33,29.232
		c-6.888-3.664-12.965-6.301-18.24-7.914c9.522-25.638,16.115-48.713,19.778-69.226l21.537,4.834
		c-1.611,6.155-3.296,12.163-5.055,18.022h42.196v25.051h-20.657v35.382h27.034v-35.382h58.455v46.374h-25.051l8.57,3.954
		c-1.468,2.786-2.858,5.495-4.176,8.131h23.072c-1.467-3.076-3.004-6.225-4.615-9.449l12.53-4.392v-44.613h59.338v46.372h-45.932
		c2.046,4.392,3.807,8.421,5.274,12.085h41.973v18.242h-42.633v10.768h40.438v17.142h-40.438v10.552h40.438v17.143h-40.438v11.204
		h48.348v18.461H509.488v9.233h-22.635v-69.006c-2.201,2.783-4.395,5.422-6.596,7.91c-2.198-5.567-4.104-10.401-5.715-14.503v67.908
		h-16.262v-9.449l-59.995,2.198v-82.632h17.8v58.897l9.011-0.44v-71.867h-33.402V850.953z M458.283,864.361h16.262v5.935
		c7.766-10.401,14.434-21.466,20.002-33.184h-18.24v13.844h-27.034v70.767l9.009-0.44v-56.921H458.283z M502.237,742.608h24.615
		v15.163h26.153v-15.163h24.394v15.163h32.966v20.219h-32.966v9.449h-24.394v-9.449h-26.153v9.449h-24.615v-9.449h-30.108v-20.219
		h30.108V742.608z M497.183,820.405h16.702V807.44h-16.702V820.405z M509.49,878.205h30.328v-10.768H509.49V878.205z
		 M509.49,905.896h30.328v-10.55H509.49V905.896z M509.49,934.245h30.328v-11.204H509.49V934.245z M565.969,820.405h17.365V807.44
		h-17.365V820.405z"/>
	<path d="M663.55,921.28h170.759v29.667H632.342V755.791h195.151v29.668H663.55V921.28L663.55,921.28z M671.898,810.296L693,788.76
		l48.679,42.307c12.527-13.991,24.206-28.751,35.051-44.285l27.251,18.022c-12.234,16.555-25.166,32.27-38.792,47.139l49.344,45.603
		l-25.938,22.854c-15.017-15.384-30.255-30.511-45.709-45.382c-16.558,16.188-33.994,31.244-52.307,45.162
		c-3.662-4.542-10.99-12.38-21.975-23.518c18.315-13.258,35.455-27.652,51.429-43.184
		C704.204,838.832,688.16,824.438,671.898,810.296z"/>
</g>
</svg>
