<?xml version="1.0" encoding="utf-8"?>
<!-- Generator: Adobe Illustrator 16.0.0, SVG Export Plug-In . SVG Version: 6.00 Build 0)  -->
<!DOCTYPE svg PUBLIC "-//W3C//DTD SVG 1.1//EN" "http://www.w3.org/Graphics/SVG/1.1/DTD/svg11.dtd">
<svg version="1.1" id="图层_1" xmlns="http://www.w3.org/2000/svg" xmlns:xlink="http://www.w3.org/1999/xlink" x="0px" y="0px"
	 width="1000px" height="1000px" viewBox="0 0 1000 1000" enable-background="new 0 0 1000 1000" xml:space="preserve">
<g id="图层_23_2_">
	<g>
		<path d="M523.161,58c24.689,12.837,31.187,33.304,30.998,60.481c-1.029,153.46-0.496,306.934-0.501,460.403
			c0,5.343-0.054,10.688-0.045,16.034c0.026,17.722-7.388,31.478-23.753,38.396c-16.423,6.938-31.463,2.487-44.045-9.938
			c-33.666-33.259-68.487-65.46-100.452-100.281c-18.631-20.301-38.188-28.387-65.729-27.622
			c-23.833,0.663-49.149-2.816-71.576-10.771c-44.216-15.675-73.148-48.289-86.782-93.717c-3.049-10.164-6.322-20.256-9.492-30.379
			c0-9.171,0-18.34,0-27.511c2.826-7.755,6.175-15.363,8.396-23.287c14.552-51.961,48.218-86.634,99.104-101.504
			c23.551-6.882,49.66-6.434,74.622-6.542c16.619-0.072,28.376-5.064,40.082-16.723c43.055-42.903,87.14-84.775,130.835-127.039
			C510.933,58,517.049,58,523.161,58z M505.185,120.403c-10.469,9.841-16.509,15.286-22.291,20.995
			c-30.4,30.008-60.009,60.884-91.563,89.629c-9.121,8.315-23.398,13.406-35.94,14.996c-22.571,2.861-45.84,0.179-68.425,2.987
			c-52.517,6.523-88.247,51.97-85.753,106.546c2.289,50.098,44.162,91.784,94.954,93.808c19.043,0.759,38.346-1.608,57.141,0.656
			c12.448,1.495,26.9,5.746,35.788,13.873c32.618,29.828,63.222,61.855,94.743,92.898c5.574,5.489,11.905,10.218,21.344,18.228
			C505.185,422.138,505.185,274.61,505.185,120.403z"/>
		<path d="M822.681,353.396c-0.563,118.232-91.13,212.008-197.196,213.119c-15.903,0.166-30.732-1.781-31.672-20.995
			c-0.914-18.742,12.446-23.045,28.984-24.247c86.08-6.226,151.455-71.915,153.337-153.181
			c2.032-87.912-57.714-156.295-146.128-167.189c-4.545-0.555-9.134-0.779-13.705-1.012c-14.681-0.743-25.372-9.313-21.761-22.804
			c2.36-8.802,16.732-21.958,23.473-20.734c33.299,6.044,68.679,10.772,98.088,26.05
			C787.184,219.328,819.681,282.787,822.681,353.396z"/>
		<path d="M723.523,359.969c0.152,61.995-48.966,114.336-108.86,116.235c-15.21,0.483-28.656-2.696-29.752-20.443
			c-1.063-17.074,10.779-23.108,26.256-25.143c41.255-5.417,65.33-30.947,65.46-68.478c0.135-38.734-24.957-66.418-65.707-71.048
			c-15.967-1.809-27.236-8.239-25.965-25.073c1.316-17.467,14.794-20.664,30.074-20.261
			C673.591,247.303,723.37,299.523,723.523,359.969z"/>
	</g>
</g>
<g>
	<path d="M175.625,735.37h52.59v152.596h-31.469v15.735h-21.121V735.37z M207.718,866.225V757.111h-10.974v109.113H207.718z
		 M230.905,849.662h55.076v-9.731h26.709v9.731h57.56v21.324h-45.032c12.285,11.181,28.538,19.741,48.76,25.674
		c-5.66,8.009-10.493,15.185-14.494,21.534c-19.326-8.902-34.925-20.567-46.793-34.991v40.58h-26.709v-40.685
		c-14.633,15.252-30.3,27.436-47.001,36.545c-4.693-5.387-10.561-11.871-17.599-19.463c19.6-7.73,36.198-17.46,49.794-29.196
		h-40.271V849.662L230.905,849.662z M235.048,787.131h59.629v49.901h-59.629V787.131z M245.399,726.883h109.322v50.934H245.399
		V726.883z M272.938,819.433v-14.7h-16.563v14.7H272.938z M328.426,758.146v-11.802h-56.523v11.802H328.426z M304.822,787.131
		h60.046v49.901h-60.046V787.131z M343.334,819.433v-14.7h-16.978v14.7H343.334z"/>
	<path d="M400.063,804.939h166.468v75.366h-27.743v-9.112h-113.15c-3.938,22.915-13.149,40.997-27.643,54.247l-19.463-22.773
		c14.352-12.284,21.531-31.886,21.531-58.804V804.939z M396.753,770.983h70.809v-12.006h-84.475v-24.433h84.475v-14.91h30.231v14.91
		h82.819v24.433h-82.819v12.006h69.155v22.777H396.755v-22.777H396.753z M427.812,827.716v19.46h41.409v-19.46H427.812z
		 M538.788,827.716h-41.409v19.46h41.409V827.716z"/>
	<path d="M608.15,775.123c10.487,7.594,21.393,16.289,32.712,26.089l-18.634,22.361c-10.075-9.798-20.431-19.393-31.058-28.78
		L608.15,775.123z M614.361,834.339c10.354,4.696,18.841,8.009,25.467,9.938l-18.632,78.058c-9.111-3.45-18.223-6.277-27.33-8.488
		C600.902,892.728,607.735,866.225,614.361,834.339z M612.29,721.706c15.599,11.178,26.916,19.67,33.956,25.464l-19.255,20.915
		c-9.798-9.524-20.432-18.982-31.886-28.365L612.29,721.706z M697.18,861.67l20.29,12.424c-4.555,7.385-9.766,15.116-15.63,23.188
		c3.586,0.55,8.246,0.896,13.974,1.032c6.074-0.824,9.181-3.654,9.319-8.487v-32.715h-36.649v-87.581h22.258
		c2.484-5.726,4.66-11.661,6.521-17.806H676.89v62.321c0,51.901-7.66,89.171-22.985,111.806
		c-8.836-8.831-16.633-15.46-23.394-19.875c13.387-19.878,20.013-51.764,19.876-95.658v-81.782h145.143v23.186h-51.038
		c-1.657,4.074-4.421,10.008-8.283,17.807h50.414v87.581h-34.99v39.133c0,7.868-1.641,14.009-4.915,18.424
		c-3.278,4.418-8.282,7.109-15.013,8.075s-15.547,1.313-26.451,1.034c-1.174-7.521-2.864-15.596-5.072-24.223
		c-4.003,5.382-8.248,10.903-12.734,16.563l-19.256-15.527C678.269,889.969,687.932,876.992,697.18,861.67z M760.95,790.653h-47.203
		v13.044h47.203V790.653z M760.95,835.995v-13.249h-47.203v13.249H760.95z M772.961,860.843
		c8.694,11.319,17.321,24.225,25.879,38.718l-21.324,12.63c-6.628-12.7-14.633-26.018-24.018-39.96L772.961,860.843z"/>
</g>
</svg>
