<?xml version="1.0" encoding="utf-8"?>
<!-- Generator: Adobe Illustrator 16.0.0, SVG Export Plug-In . SVG Version: 6.00 Build 0)  -->
<!DOCTYPE svg PUBLIC "-//W3C//DTD SVG 1.1//EN" "http://www.w3.org/Graphics/SVG/1.1/DTD/svg11.dtd">
<svg version="1.1" id="图层_1" xmlns="http://www.w3.org/2000/svg" xmlns:xlink="http://www.w3.org/1999/xlink" x="0px" y="0px"
	 width="1000px" height="1000px" viewBox="0 0 1000 1000" enable-background="new 0 0 1000 1000" xml:space="preserve">
<g id="图层_21_2_">
	<g>
		<path fill="#1E1E1E" d="M504.78,221.331c-95.517,0-172.949,77.432-172.949,172.949c0,95.518,77.434,172.948,172.949,172.948
			c95.519,0,172.948-77.431,172.948-172.948C677.729,298.763,600.298,221.331,504.78,221.331z M504.779,551.192
			c-86.661,0-156.914-70.252-156.914-156.915c0-86.662,70.252-156.913,156.914-156.913s156.913,70.251,156.913,156.913
			C661.692,480.94,591.441,551.192,504.779,551.192z"/>
		
			<rect x="335.579" y="387.724" transform="matrix(0.7194 0.6945 -0.6945 0.7194 418.3388 -237.3062)" fill="#1E1E1E" width="334.668" height="22.904"/>
		
			<rect x="331.686" y="382.822" transform="matrix(0.6945 -0.7194 0.7194 0.6945 -131.2322 479.4521)" fill="#1E1E1E" width="334.669" height="22.904"/>
	</g>
	<rect x="72.858" y="374.565" fill="#1E1E1E" width="265.487" height="30.735"/>
	<rect x="671.328" y="374.565" fill="#1E1E1E" width="265.486" height="30.735"/>
	<rect x="707.326" y="306.305" fill="#1E1E1E" width="229.488" height="30.734"/>
</g>
<g>
	<path d="M74.166,690.032c5.537,3.224,13.224,8.266,23.062,15.126l-10.043,13.515c-5.456-4.711-12.979-10-22.566-15.87
		L74.166,690.032z M81.604,724.502c4.876,2.397,10.292,4.546,16.242,6.445c-6.448,20.251-11.077,35.915-13.886,46.993
		c-5.87-2.234-11.491-4.176-16.863-5.829C72.471,757.73,77.305,741.858,81.604,724.502z M78.134,658.168
		c6.942,4.96,14.092,10.456,21.449,16.491l-10.539,12.15c-5.538-5.29-12.481-11.075-20.83-17.358L78.134,658.168z M99.087,693.132
		h90.264v14.878h-56.912l-3.099,13.143h52.075c-0.539,9.174-1.147,17.834-1.829,25.975c-0.682,8.143-1.487,13.629-2.417,16.461
		c-0.93,2.829-2.285,5.206-4.061,7.129c-1.777,1.921-4.412,3.38-7.903,4.371c-3.493,0.992-8.132,1.486-13.917,1.486
		c-6.199,0-13.846-0.206-22.938-0.618c-0.91-5.209-1.984-10.746-3.223-16.616c12.728,1.077,21.078,1.613,25.044,1.613
		c4.34,0,7.295-0.579,8.866-1.737c1.57-1.155,2.582-3.213,3.037-6.167c0.455-2.956,0.95-8.711,1.488-17.266h-54.554l6.386-27.773
		H99.088v-14.878H99.087z M106.899,663.128h75.755v14.631h-75.755V663.128z"/>
	<path d="M240.433,683.957v15.003c-5.87,28.765-19.012,51.909-39.429,69.434c-3.059-7.11-5.951-12.938-8.68-17.484
		c15.043-12.811,25.624-29.673,31.741-50.587h-27.524v-16.365H240.433z M313.584,685.444c-9.339,9.342-20.024,18.807-32.049,28.393
		c9.421,14.135,20.974,25.75,34.654,34.842c-3.224,4.547-6.695,10.414-10.415,17.606c-16.987-12.274-30.832-30.086-41.536-53.438
		v44.511c0,5.744-1.251,10.271-3.751,13.577c-2.501,3.307-6.013,5.341-10.539,6.106c-4.526,0.764-12.575,1.147-24.146,1.147
		c-1.24-6.945-2.729-13.392-4.463-19.343c5.95,0.662,11.86,0.992,17.729,0.992c5.29,0,7.934-3.226,7.934-9.672v-92.37h17.236v20.767
		c2.563,7.314,5.496,14.219,8.803,20.705c10.125-9.009,18.927-17.707,26.409-26.099L313.584,685.444z"/>
	<path d="M323.752,690.901h6.448c-1.902-2.479-5.208-6.241-9.921-11.283c9.009-6.611,15.54-14.134,19.59-22.564h17.112
		c-1.324,2.976-2.729,5.827-4.216,8.555h31.989v11.779h-23.807c2.479,2.728,4.917,5.455,7.315,8.183l-7.191,5.331h12.026
		c-0.742-2.149-1.487-4.339-2.231-6.57l14.01-2.357c0.907,2.894,1.819,5.868,2.729,8.928h28.516
		c-3.389-4.297-6.365-7.812-8.926-10.539l3.844-2.976h-5.581c-2.728,4.298-5.787,8.307-9.173,12.025
		c-2.397-1.817-6.78-4.835-13.144-9.051c5.952-6.53,10.828-14.299,14.631-23.311h17.234c-0.992,2.976-2.108,5.827-3.347,8.555
		h28.641v11.779h-18.599c2.232,2.397,4.422,4.796,6.571,7.19l-8.679,6.323h20.21v17.854h-16.862v-5.209h-82.329v5.209h-16.861
		V690.901L323.752,690.901z M330.448,690.901h25.045c-2.232-2.811-4.835-5.991-7.812-9.547l5.084-3.968h-8.183
		C340.449,682.43,335.737,686.934,330.448,690.901z M427.406,710.987v29.509h-75.135v5.455h79.102V779.8h-16.117v-3.968h-62.985
		v3.968h-16.863v-68.813H427.406z M411.287,729.089v-6.695h-59.016v6.695H411.287L411.287,729.089z M415.256,757.357h-62.985v7.192
		h62.985V757.357z"/>
	<path d="M570.239,761.077l-6.077,16.49c-15.25,0-29.427-0.083-42.526-0.248l-27.029-0.495c-4.921-0.124-9.775-1.157-14.57-3.101
		c-4.795-1.942-8.948-4.876-12.46-8.803l-13.515,15.498l-7.066-19.218l11.778-10.105v-34.033h-11.034v-16.366h26.533v50.773
		c5.042,6.984,14.177,10.477,27.402,10.477C529.902,761.944,552.757,761.657,570.239,761.077z M461.875,657.301
		c7.604,9.423,13.391,16.985,17.36,22.688c-5.87,3.72-10.789,6.944-14.757,9.672c-5.62-9.092-10.91-16.945-15.871-23.556
		L461.875,657.301z M485.928,690.156h25.54l1.55-6.943h-31.802V670.07h17.916l-7.005-10.166l15.994-3.72l7.688,13.886h13.702
		c2.521-4.752,4.732-9.341,6.634-13.764l17.356,3.349c-2.188,3.143-4.689,6.612-7.499,10.415h20.271v13.143h-36.265l-2.047,6.943
		h33.351v64.474h-75.382V690.156z M546.186,702.184h-45.133v6.819h45.133V702.184z M501.055,725.74h45.133v-6.819h-45.133V725.74z
		 M546.186,742.604v-6.944h-45.133v6.944H546.186z"/>
	<path d="M579.662,664.367h93.982v12.894l-12.027,20.83h24.427v12.149c-5.91,14.631-14.011,27.319-24.303,38.064
		c10,6.118,21.738,10.746,35.213,13.886c-3.557,5.786-6.944,11.571-10.167,17.358c-15.046-4.257-28.146-10.456-39.304-18.598
		c-10.624,7.935-22.898,14.421-36.824,19.466c-2.231-3.018-6.283-8.059-12.149-15.127c-3.06,5.498-6.489,10.789-10.291,15.87
		c-5.374-5.042-10.499-9.382-15.374-13.019c18.266-21.077,27.398-49.056,27.398-83.938v-3.471h-20.579v-16.365H579.662z
		 M633.225,748.368c-7.522-7.975-13.783-17.212-18.784-27.71c-3.017,16.035-8.244,30.768-15.684,44.201
		C612.063,760.147,623.554,754.651,633.225,748.368z M642.399,698.092l10.416-17.358h-35.214c0,3.308-0.021,6.116-0.061,8.431
		c8.762,20.871,18.741,36.885,29.943,48.046c7.48-6.984,13.226-14.733,17.234-23.247h-22.319V698.092L642.399,698.092z"/>
	<path d="M711.46,691.645c7.604,5.455,14.383,10.787,20.335,15.994l-11.655,12.894c-5.291-5.208-11.78-10.952-19.468-17.233
		L711.46,691.645z M715.056,724.873c5.373,2.48,10.789,4.63,16.242,6.447l-13.141,47.486c-5.953-2.232-11.573-4.174-16.862-5.828
		C706.087,759.26,710.675,743.224,715.056,724.873z M712.825,658.663c6.446,4.548,13.224,9.878,20.332,15.994l-11.156,12.647
		c-7.192-7.107-13.68-12.976-19.468-17.607L712.825,658.663z M758.452,721.526v13.142c0,20.5-6.614,35.585-19.838,45.258
		c-3.473-3.557-7.605-7.359-12.398-11.407c10.826-8.018,16.242-20.46,16.242-37.32v-9.672H758.452z M734.149,670.318h31.432
		c-1.364-3.182-2.874-6.528-4.526-10.043l18.477-3.348c2.189,4.462,4.255,8.928,6.198,13.391h32.981v14.631h-41.907
		c-5.249,6.159-10.787,12.194-16.615,18.103l32.548-1.426c-2.067-2.521-4.114-4.938-6.141-7.254l13.391-8.555
		c8.763,9.671,16.574,18.64,23.435,26.905l-14.383,10.044l-5.642-7.563c-33.6,1.198-55.155,2.439-64.659,3.72l-5.207-13.764
		c5.538-1.942,12.686-8.679,21.449-20.21h-20.83V670.318L734.149,670.318z M764.774,721.526h15.995v55.423h-15.995V721.526z
		 M811.89,738.016c4.049,1.653,8.1,3.182,12.149,4.588c-0.866,11.654-1.643,19.445-2.324,23.372
		c-0.681,3.925-2.295,6.983-4.835,9.174c-2.541,2.188-6.024,3.286-10.446,3.286h-4.465c-9.506,0-14.258-5.166-14.258-15.499v-41.783
		h15.995v39.677c0,2.478,0.825,3.718,2.479,3.718h0.867c1.695,0,2.778-1.218,3.253-3.656
		C810.782,758.453,811.312,750.829,811.89,738.016z"/>
	<path d="M833.837,674.286h36.762c1.777-6.115,3.244-11.942,4.402-17.482l19.094,2.852l-4.774,14.631h55.733v80.468
		c0,7.605-1.737,13.38-5.208,17.327c-3.472,3.946-8.866,6.033-16.181,6.26c-7.315,0.227-15.932,0.342-25.851,0.342
		c-1.157-5.704-2.687-11.737-4.588-18.103c6.116,0.415,11.51,0.62,16.18,0.62c5.456,0,9.237-0.311,11.346-0.93
		c2.107-0.619,3.771-1.838,4.991-3.658c1.217-1.817,1.828-4.172,1.828-7.067v-58.149h-76.129v86.667h-17.605V674.286
		L833.837,674.286z M917.403,701.564v48.105h-38.932v7.44h-16.86v-55.546H917.403z M878.472,717.434v16.367h22.071v-16.367H878.472z
		"/>
</g>
</svg>
