<?xml version="1.0" encoding="utf-8"?>
<!-- Generator: Adobe Illustrator 16.0.0, SVG Export Plug-In . SVG Version: 6.00 Build 0)  -->
<!DOCTYPE svg PUBLIC "-//W3C//DTD SVG 1.1//EN" "http://www.w3.org/Graphics/SVG/1.1/DTD/svg11.dtd">
<svg version="1.1" id="图层_1" xmlns="http://www.w3.org/2000/svg" xmlns:xlink="http://www.w3.org/1999/xlink" x="0px" y="0px"
	 width="1000px" height="1000px" viewBox="0 0 1000 1000" enable-background="new 0 0 1000 1000" xml:space="preserve">
<g>
	
		<rect x="138.473" y="323.336" transform="matrix(-0.7071 -0.7071 0.7071 -0.7071 617.1628 1007.3034)" width="757.456" height="104.994"/>
	
		<rect x="114.47" y="295.344" transform="matrix(-0.7071 0.7071 -0.7071 -0.7071 1087.9011 245.0574)" width="757.455" height="104.994"/>
</g>
<g>
	<path d="M296.65,836.794h87.55c0-0.708,0.178-9.867,0.535-27.479h-77.008v-27.266h46.118c-8.167-10.723-15.163-19.53-20.983-26.415
		l24.071-17.045c5.964,6.533,16.046,17.823,30.248,33.872l-13.845,9.586h36.854c11.077-15.128,20.663-29.61,28.759-43.46
		l30.673,15.976l-23.219,27.481h47.291v27.264h-77.219c0,5.823-0.073,14.984-0.213,27.479h88.085v27.269h-82.867
		c13.562,27.689,41.753,45.729,84.572,54.104c-10.086,13.064-17.33,22.937-21.732,29.613c-39.906-11.29-67.847-32.061-83.823-62.311
		c-13.704,26.345-41.219,47.893-82.545,64.654c-6.676-8.097-14.487-17.115-23.433-27.055c44.663-13.918,72.641-33.586,83.931-59.007
		h-81.8v-27.262H296.65z"/>
	<path d="M628.539,784.391h26.844v22.793h23.434v24.287h-23.434v74.343c0,5.186-0.818,9.623-2.451,13.315
		c5.543,0.356,11.965,0.532,19.279,0.532c9.371,0,14.059-4.258,14.059-12.779V774.806h-84.145v-26.202h113.756v160.618
		c0,11.573-2.115,20.327-6.338,26.258c-4.225,5.929-10.049,9.516-17.471,10.756c-7.418,1.242-19.791,1.972-37.117,2.185
		c-1.561-9.375-3.266-17.47-5.111-24.286c-3.055,3.552-7.066,5.894-12.037,7.032c-4.973,1.135-16.723,1.704-35.258,1.704
		c-1.421-9.658-3.549-19.03-6.389-28.121c10.078,0.713,18.037,1.064,23.857,1.064c5.678,0,8.52-3.123,8.52-9.372v-57.301
		c-14.629,30.534-36.071,54.817-64.334,72.854c-4.473-9.729-8.947-17.894-13.42-24.497v60.498h-29.607V766.5h29.607v118.975
		c23.93-12.854,43.209-30.853,57.837-54h-47.823v-24.286h67.74v-22.798H628.539z M546.525,748.177l27.906-9.799
		c6.25,9.799,13.064,21.302,20.451,34.51l-29.607,11.29C558.883,770.688,552.633,758.687,546.525,748.177z"/>
</g>
</svg>
