<?xml version="1.0" encoding="utf-8"?>
<!-- Generator: Adobe Illustrator 16.0.0, SVG Export Plug-In . SVG Version: 6.00 Build 0)  -->
<!DOCTYPE svg PUBLIC "-//W3C//DTD SVG 1.1//EN" "http://www.w3.org/Graphics/SVG/1.1/DTD/svg11.dtd">
<svg version="1.1" id="图层_1" xmlns="http://www.w3.org/2000/svg" xmlns:xlink="http://www.w3.org/1999/xlink" x="0px" y="0px"
	 width="1000px" height="1000px" viewBox="0 0 1000 1000" enable-background="new 0 0 1000 1000" xml:space="preserve">
<g>
	<path fill-rule="evenodd" clip-rule="evenodd" fill="#FFFFFF" d="M808.761,644.644c0,98.453,0,196.904,0,295.356
		c-200.028,0-400.06,0-600.088,0c0-98.452,0-196.903,0-295.356c14.955,6.574,29.912,13.15,46.559,20.47
		c22.722,125.941,99.642,201.629,229.233,224.636c2.585,18.148-3.797,43.589,22.941,44.487c30.406,1.024,21.295-28.153,26.779-45.01
		c130.404-23.359,205.964-100.484,227.916-223.56C780.348,657.449,794.554,651.045,808.761,644.644z"/>
	<path fill-rule="evenodd" clip-rule="evenodd" d="M808.761,644.644c-14.207,6.401-28.413,12.806-46.659,21.023
		c-21.952,123.075-97.512,200.2-227.916,223.56c-5.484,16.856,3.627,46.034-26.779,45.01c-26.739-0.898-20.356-26.339-22.941-44.487
		c-129.591-23.007-206.511-98.694-229.233-224.636c-16.647-7.319-31.604-13.896-46.559-20.47c0-6.249,0-12.501,0-18.752
		c14.19-6.41,28.38-12.818,47.193-21.315c8.165-58.401,33.577-115.636,84.215-157.897c25.094-20.941,54.707-36.466,84.882-51.186
		c-9.37,30.098-16.514,57.953-44.009,77.263c-45.897,32.237-74.189,87.172-76.814,137.204c15.728,4.993,41.791-3.101,41.269,25.602
		c-0.483,26.407-23.53,21.637-39.959,23.811c-3.287,82.466,81.453,168.67,177.485,180.858c5.533-16.221-2.12-43.893,27.195-42.354
		c25.141,1.323,20.334,25.006,23.173,41.394c89.86-4.447,171.438-85.615,179.936-178.752c-16.346-4.432-42.136,2.028-41.882-25.491
		c0.25-27.229,25.348-21.546,43.339-24.234c-7.351-54.521-29.744-99.763-71.449-131.9c-35.703-27.513-41.716-48.828-53.844-79.388
		c68.167,1.04,141.766,90.353,172.122,205.622c17.317,7.613,32.276,14.188,47.237,20.767
		C808.761,632.143,808.761,638.395,808.761,644.644z"/>
	<path fill-rule="evenodd" clip-rule="evenodd" d="M396.53,581.758c36.512-80.258,73.021-160.521,112.058-246.332
		c39.049,85.838,75.584,166.146,115.149,253.125c-36.368-18.354-66.992-32.932-96.692-49.193
		c-13.155-7.207-23.599-7.285-36.779-0.042c-29.302,16.103-59.545,30.493-89.406,45.577
		C399.418,583.851,397.974,582.806,396.53,581.758z"/>
</g>
<g>
	<path d="M396.792,273.411l-6.596-37.866c21.498-5.699,42.669-11.562,63.516-17.589v-66.447h-58.874v-32.247h58.874V59.899h36.644
		v235.498h-36.644v-41.042L396.792,273.411z M609.571,91.902l25.162,28.826c-24.186,17.509-50.162,34.812-77.93,51.912v72.188
		c0,9.283,4.966,13.925,14.902,13.925h6.107c4.152,0,7.592-1.14,10.321-3.42c2.727-2.279,4.742-5.741,6.046-10.383
		c1.302-4.642,2.688-19.828,4.153-45.561l34.445,10.505c-1.304,16.938-2.852,31.474-4.642,43.606
		c-1.793,12.133-6.312,21.253-13.559,27.361c-7.249,6.107-17.223,9.161-29.926,9.161h-21.742c-28.502,0-42.751-12.868-42.751-38.598
		V59.655h36.644v71.822C575.938,118.367,593.528,105.176,609.571,91.902z"/>
</g>
</svg>
