<?xml version="1.0" encoding="utf-8"?>
<!-- Generator: Adobe Illustrator 16.0.0, SVG Export Plug-In . SVG Version: 6.00 Build 0)  -->
<!DOCTYPE svg PUBLIC "-//W3C//DTD SVG 1.1//EN" "http://www.w3.org/Graphics/SVG/1.1/DTD/svg11.dtd">
<svg version="1.1" id="图层_1" xmlns="http://www.w3.org/2000/svg" xmlns:xlink="http://www.w3.org/1999/xlink" x="0px" y="0px"
	 width="1000px" height="1000px" viewBox="0 0 1000 1000" enable-background="new 0 0 1000 1000" xml:space="preserve">
<g id="图层_5_2_">
	<g>
		<path d="M499.731,31.998c1.827,0,3.651,0,5.479,0c60.791,49.468,121.435,99.107,182.418,148.346
			c55.256,44.618,110.886,88.805,167.682,134.247c-11.958,14.005-22.271,26.087-33.221,38.91
			c-11.779-7.542-21.919-14.038-36.238-23.208c0,128.2,0,252.015,0,377.18c-187.952,0-372.834,0-561.003,0
			c0-123.288,0-245.22,0-372.565c-18.153,13.365-31.581,23.255-45.822,33.739c-11.375-12.583-22.039-24.375-34.337-37.973
			c42.528-36.162,83.416-71.285,124.705-105.957C346.05,160.339,422.937,96.221,499.731,31.998z M529.216,390.807
			c17.967,27.208,28.213,47.953,43.271,64.566c52.882,58.332,90.724,119.04,45.401,198.886c37.934,0,74.079,0,111.011,0
			c1.064-4.446,2.55-7.75,2.553-11.059c0.184-114.596,0.387-229.186-0.108-343.777c-0.031-6.99-3.777-16.234-9.106-20.588
			c-72.627-59.337-145.842-117.997-219.972-177.677c-71.382,59.498-142.349,117.991-212.117,177.803
			c-7.215,6.182-10.18,20.219-10.255,30.645c-0.731,104.821-0.446,209.647-0.446,314.467c0,9.513,0,19.024,0,30.042
			c37.179,0,71.229,0,103.82,0c-7.183-23.137-17.188-45.198-20.471-68.173c-5.873-41.069,3.977-81.027,30.112-113.413
			c61.229-75.877,125.087-149.741,187.358-223.802c5.476,36.9-7.64,71.43-31.286,103.289c-21.342,28.76-46.137,55.805-62.696,86.982
			c-11.971,22.536-15.922,50.389-17.848,76.271c-1.406,18.869,11.465,34.861,34.143,33.39c20.784-1.353,29.606-16.343,29.886-35.16
			c0.207-14.119-2.783-28.254-3.098-42.412C528.818,446.122,529.216,421.134,529.216,390.807z"/>
	</g>
</g>
<g>
	<path d="M290.251,802.031h-33.023c-1.584,4.499-3.283,8.818-5.11,12.952h32.66v20.619h-16.786v18.61h19.522v20.615h-19.522v25.546
		c5.11-4.139,10.704-8.819,16.786-14.05c0.368,8.394,1.459,17.027,3.285,25.908c-8.393,5.473-17.03,11.92-25.909,19.341
		c-4.136,3.405-7.238,6.263-9.304,8.576l-12.407-18.064c3.283-3.406,4.925-9,4.925-16.786V874.83h-18.246v-20.617h18.246v-18.61
		h-3.648c-2.436,4.254-4.989,8.208-7.664,11.858c-1.946-9.607-4.441-19.4-7.479-29.375c8.999-16.055,15.812-35.883,20.434-59.48
		l21.896,3.647c-1.582,6.692-3.223,13.138-4.925,19.34h26.271V802.031z M299.558,765.903h96.702v62.948h-35.031
		c-0.125,4.622-0.305,9.122-0.55,13.499h42.878v69.518c0,16.298-6.813,24.934-20.436,25.907c-7.542,0.486-16.418,0.792-26.638,0.914
		c-1.337-6.084-3.283-13.26-5.837-21.532c6.688,0.367,13.015,0.548,18.976,0.548c7.54,0,11.313-3.16,11.313-9.487v-8.758
		l-11.313,12.772c-6.69-7.175-13.868-14.473-21.532-21.895c-5.959,10.096-14.109,19.037-24.448,26.821
		c-2.554-3.403-5.533-7.116-8.939-11.13v33.206h-22.624v-96.883h45.976c0.243-4.136,0.426-8.636,0.55-13.499h-39.047V765.903
		L299.558,765.903z M314.701,893.26c10.216-9.126,17.029-19.646,20.434-31.567h-20.434V893.26z M372.902,787.251h-49.991v20.07
		h49.991V787.251z M380.932,861.692h-22.444c-0.488,2.919-1.157,5.778-2.008,8.575c9.611,7.179,17.759,13.503,24.452,18.977V861.692
		z"/>
	<path d="M470.151,909.86c-4.379-7.298-8.515-13.924-12.407-19.888c-4.744,16.665-13.683,33.269-26.821,49.813
		c-6.567-8.027-12.286-14.6-17.151-19.705c18.852-21.408,27.975-49.994,27.369-85.754c0.365-21.407,0.606-46.403,0.729-74.991
		h23.173c-0.243,15.935-0.426,31.688-0.548,47.255c4.257-5.596,8.516-11.25,12.77-16.969l14.599,14.049v-21.345h34.481
		c-1.702-5.355-3.708-11.438-6.02-18.248l27.003-4.744c2.434,8.636,4.5,16.3,6.205,22.992h34.665v92.502h-23.353v-11.495h-48.897
		c-1.705,31.385-9.55,56.864-23.536,76.451c-3.285-3.773-9.73-10.584-19.342-20.437c6.325-8.999,10.885-18,13.686-27.004
		L470.151,909.86z M431.837,791.082c0.852,6.327,3.407,25.058,7.666,56.196l-16.97,3.647c-1.946-10.944-4.865-29.558-8.758-55.83
		L431.837,791.082z M486.937,891.25c3.405-16.906,5.048-36.794,4.927-59.661v-23.175c-9.125,8.272-18.428,16.848-27.915,25.727
		c-0.125,10.463-0.608,19.829-1.46,28.098C472.95,874.281,481.1,883.951,486.937,891.25z M516.313,804.948v35.762h48.532v-35.762
		H516.313z"/>
	<path d="M781.42,862.605h-85.663c-0.124,3.283-0.367,6.447-0.729,9.485h69.059c-0.243,10.096-0.868,21.072-1.87,32.935
		c-1.002,11.86-3.556,19.842-7.664,23.946c-4.105,4.104-8.362,6.598-12.771,7.481c-4.409,0.881-16.619,1.322-36.627,1.322
		c-1.217-7.176-3.285-15.631-6.204-25.36c6.993,0.608,14.079,0.913,21.257,0.913c5.353,0,8.953-0.382,10.811-1.143
		c1.853-0.759,3.238-2.355,4.152-4.79c0.909-2.432,1.55-7.508,1.915-15.232h-45.978c-6.205,21.224-18.306,37.463-36.307,48.713
		c-4.016-4.379-10.465-10.762-19.342-19.155c21.165-11.737,32.721-31.442,34.666-59.115h-27.004
		c-2.25,32.17-9.609,57.411-22.076,75.717l-20.434-20.798c11.678-16.177,17.517-41.846,17.517-76.997v-66.599h63.95
		c-2.068-4.68-3.924-8.756-5.566-12.222l30.472-3.287c1.761,4.199,3.708,9.369,5.837,15.509h59.48v54.373h-54.006
		c1.517,3.896,3.253,8.518,5.199,13.866h57.93v20.438H781.42z M746.572,808.051v-13.866H643.849v13.866H746.572z M687.274,831.77
		l21.438-3.468h-64.863v13.866h48.805C690.832,838.339,689.037,834.871,687.274,831.77z"/>
</g>
</svg>
