<?xml version="1.0" encoding="utf-8"?>
<!-- Generator: Adobe Illustrator 16.0.0, SVG Export Plug-In . SVG Version: 6.00 Build 0)  -->
<!DOCTYPE svg PUBLIC "-//W3C//DTD SVG 1.1//EN" "http://www.w3.org/Graphics/SVG/1.1/DTD/svg11.dtd">
<svg version="1.1" id="图层_1" xmlns="http://www.w3.org/2000/svg" xmlns:xlink="http://www.w3.org/1999/xlink" x="0px" y="0px"
	 width="1000px" height="1000px" viewBox="0 0 1000 1000" enable-background="new 0 0 1000 1000" xml:space="preserve">
<g id="图层_4_2_">
	<g>
		<path d="M802.036,366.689c0.049,166.819-135.38,302.204-302.27,302.165c-166.407-0.043-301.77-135.438-301.804-301.882
			C197.932,200.112,333.32,64.743,500.2,64.779C666.63,64.816,801.984,200.204,802.036,366.689z M267.664,366.851
			c0.008,127.815,103.986,232.165,231.474,232.301c128.758,0.135,233.124-103.702,233.196-232.023
			c0.077-128.223-103.918-232.584-231.833-232.649C371.852,134.413,267.658,238.399,267.664,366.851z"/>
		<circle cx="499.999" cy="366.815" r="130.689"/>
	</g>
</g>
<g>
	<path d="M230.915,819.702h72.69v-14.575h8.366c-4.8-8.694-10.467-17.992-17.003-27.887l15.025-7.919l-68.823,2.161
		c-1.681-7.438-3.659-15.295-5.936-23.571c64.653-0.84,116.172-2.64,154.558-5.399l7.918,23.032l-81.868,3.596
		c7.375,10.316,13.254,19.015,17.632,26.091l-18.803,9.895h14.306V819.7h73.591v22.853h-58.387
		c17.332,17.693,38.534,31.428,63.604,41.203c-5.276,5.877-10.674,13.013-16.19,21.41c-26.691-14.032-47.563-30.825-62.616-50.379
		v59.736h-25.375v-59.556c-15.415,19.61-35.865,36.706-61.354,51.279c-4.56-7.079-9.896-14.276-16.013-21.593
		c23.868-10.132,44.23-24.168,61.085-42.102h-56.408V819.702z M257.723,773.641c8.397,8.878,16.613,18.234,24.652,28.071
		l-19.252,14.034c-7.198-9.839-14.936-19.555-23.212-29.148L257.723,773.641z M371.08,769.142l19.612,12.957
		c-8.758,10.794-18.474,21.714-29.148,32.745l-17.272-14.394C354.104,790.134,363.042,779.699,371.08,769.142z"/>
	<path d="M413.722,770.223h20.691v-31.85h22.851v31.85h17.094v23.57h-17.094v13.136c9.775,6.358,17.751,12.116,23.929,17.274
		l-12.953,20.151c-3.601-3.84-7.26-7.497-10.978-10.976v81.867h-22.851v-73.953c-5.34,13.799-11.098,25.792-17.273,35.988
		c-1.439-7.798-3.719-18.833-6.838-33.109c8.998-14.213,16.373-31.006,22.132-50.379H413.72v-23.57H413.722z M472.2,855.508h45.702
		v-21.591h-34.906v-21.592h34.906v-20.872h-38.326v-21.589h24.832c-4.56-7.38-9.355-14.514-14.395-21.414l17.452-11.694
		c6.237,7.556,12.777,15.953,19.61,25.19l-11.603,7.916h21.859c7.255-11.635,13.615-22.61,19.07-32.929l21.414,9.538
		c-5.099,8.218-10.076,16.011-14.934,23.391h20.512v21.589H543.09v20.872h37.067v21.592H543.09v21.591h47.142v21.591H543.09v38.146
		h-25.188v-38.146H472.2V855.508z"/>
	<path d="M617.765,864.146l22.129,9.354c-5.758,12.597-13.195,27.17-22.312,43.724l-21.052-11.155
		C604.807,891.435,611.884,877.459,617.765,864.146z M616.863,790.374h53.262v-52.179h25.549v15.113h75.391v22.67h-75.391v14.397
		h60.815v68.373H616.865v-68.375H616.863z M730.218,812.325h-87.085v24.472h87.085V812.325z M669.042,867.204
		c5.638,14.874,10.195,27.769,13.677,38.685l-23.393,5.938c-4.919-15.955-9.176-28.79-12.773-38.507L669.042,867.204z
		 M711.509,865.404c5.276,11.635,10.554,24.232,15.832,37.785l-23.57,7.198c-4.439-13.076-9.237-25.729-14.394-37.966
		L711.509,865.404z M752.89,862.705c7.561,14.274,14.514,28.668,20.872,43.184l-22.491,8.817
		c-7.198-16.315-13.854-30.646-19.972-43.003L752.89,862.705z"/>
</g>
</svg>
