<?xml version="1.0" encoding="utf-8"?>
<!-- Generator: Adobe Illustrator 16.0.0, SVG Export Plug-In . SVG Version: 6.00 Build 0)  -->
<!DOCTYPE svg PUBLIC "-//W3C//DTD SVG 1.1//EN" "http://www.w3.org/Graphics/SVG/1.1/DTD/svg11.dtd">
<svg version="1.1" id="图层_1" xmlns="http://www.w3.org/2000/svg" xmlns:xlink="http://www.w3.org/1999/xlink" x="0px" y="0px"
	 width="1000px" height="1000px" viewBox="0 0 1000 1000" enable-background="new 0 0 1000 1000" xml:space="preserve">
<g>
	<path d="M509.109,71.803c-178.382,0-322.989,144.608-322.989,323.003c0,178.381,144.607,323.006,322.989,323.006
		c178.41,0,323.019-144.625,323.019-323.006C832.128,216.411,687.52,71.803,509.109,71.803z M509.109,676.395
		c-155.515,0-281.573-126.072-281.573-281.588c0-155.529,126.058-281.602,281.573-281.602
		c155.544,0,281.602,126.073,281.602,281.602C790.711,550.322,664.653,676.395,509.109,676.395z"/>
	<path d="M678.916,394.807c0,93.771-76.036,169.792-169.807,169.792c-93.77,0-169.779-76.022-169.779-169.792
		c0-93.77,76.01-169.777,169.779-169.777C602.879,225.03,678.916,301.037,678.916,394.807z"/>
	<rect x="218.378" y="386.014" width="577.058" height="8.619"/>
	<polygon points="661.504,133.986 388.009,642.109 380.428,638.027 653.891,129.903 	"/>
	<polygon points="392.005,129.262 645.594,647.592 637.849,651.383 384.248,133.038 	"/>
</g>
<g>
	<path d="M190.727,790.581l17.746,4.664c-1.468,5.567-3.022,10.838-4.663,15.803h37.565v17.229h-7.448
		c-2.073,22.626-7.665,41.537-16.775,56.736c6.78,6.822,15.069,12.177,24.871,16.063c-3.713,5.008-7.514,10.794-11.398,17.358
		c-9.37-5.398-17.381-11.789-24.028-19.172c-7.602,8.247-16.646,14.939-27.138,20.078c-3.283-6.305-6.606-11.961-9.975-16.969
		c9.844-4.62,18.566-10.601,26.167-17.941c-5.613-9.542-9.563-20.314-11.852-32.319c-1.383,1.9-2.786,3.671-4.21,5.312
		c-2.418-3.454-5.182-7.037-8.292-10.752l-1.36,35.365c-0.432,11.183-1.015,18.339-1.749,21.471
		c-0.734,3.13-2.116,5.763-4.145,7.901c-2.031,2.137-4.966,3.476-8.81,4.016c-3.843,0.537-9.584,0.81-17.228,0.81
		c-1.296-7.039-2.635-12.933-4.016-17.682c-2.937,7.729-6.737,14.617-11.399,20.661c-2.159-4.232-5.528-10.45-10.104-18.654
		c4.102-6.128,7.189-13.104,9.262-20.919c2.073-7.814,3.152-15.954,3.239-24.418l0.258-26.427H114.17v-16.969h24.871
		c-2.677-5.828-5.14-10.837-7.383-15.026l16.579-6.348c2.763,4.664,6,10.839,9.716,18.522l-7.125,2.85h24.613v16.969h-33.42
		l-0.26,13.86h28.369C179.458,829.7,186.322,812.344,190.727,790.581z M134.056,898.485c4.489,0.345,8.311,0.517,11.464,0.517
		c4.836,0,7.253-3.043,7.253-9.131l1.296-31.542h-12.695C140.855,873.571,138.416,886.955,134.056,898.485z M206.27,870.439
		c5.527-10.448,9.262-24.503,11.205-42.163h-20.208c-0.605,1.382-1.208,2.719-1.813,4.016
		C196.793,847.188,200.398,859.905,206.27,870.439z"/>
	<path d="M246.168,863.381h6.865V804.96h14.054c1.986-4.662,3.778-9.411,5.377-14.25l17.617,1.556
		c-1.856,3.151-4.19,7.383-6.995,12.692h25.779v96.633c0,11.141-5.831,16.711-17.488,16.711l-12.563-0.259
		c-0.864-5.873-2.03-11.271-3.497-16.192c4.963,0.518,9.369,0.775,13.211,0.775c2.677,0,4.057-1.898,4.146-5.697v-15.026
		c-10.191,12.952-22.972,23.833-38.343,32.641c-2.764-5.266-5.872-10.62-9.327-16.061c12.565-5.87,23.251-12.695,32.059-20.466
		h-30.895V863.381z M292.672,819.597h-23.447v6.736h23.447V819.597z M269.226,844.856h23.447v-6.734h-23.447V844.856z
		 M269.226,863.381h23.447v-6.737h-23.447V863.381z M313.008,816.747h32.514v-24.739h17.487v24.739h11.529v16.581h-11.529v62.048
		c0,6.865-1.329,12.024-3.983,15.479c-2.656,3.452-6.132,5.448-10.429,5.99c-4.297,0.54-13.569,0.81-27.817,0.81
		c-1.036-6.217-2.375-12.435-4.016-18.651c5.742,0.432,12.197,0.646,19.365,0.646c6.519,0,9.651-3.367,9.393-10.104v-56.218h-32.514
		V816.747L313.008,816.747z M329.59,839.545c4.318,10.971,8.506,22.8,12.564,35.493l-16.839,4.923
		c-3.454-13.819-6.908-25.736-10.363-35.752L329.59,839.545z"/>
	<path d="M381.792,816.487l11.011,1.296c-1.124,14.251-2.375,27.117-3.758,38.603c-3.713-1.468-7.253-2.418-10.62-2.851
		C380.065,840.15,381.187,827.802,381.792,816.487z M413.27,791.359v17.81c4.663,1.943,9.541,4.167,14.637,6.67l-6.605,14.121
		l-8.031-5.377v94.366h-17.358V791.357h17.358V791.359z M422.854,897.06h35.751v-24.094h-29.274v-16.84h29.274v-23.057h-15.803
		c-1.9,7.858-3.973,14.983-6.218,21.373c-5.181-3.021-10.276-5.87-15.284-8.548c5.353-13.819,9.24-29.448,11.658-46.894
		l15.933,1.168c-0.821,5.613-1.684,10.968-2.59,16.062h12.305v-24.87h17.618v24.87h26.943v16.84h-26.943v23.058h26.426v16.839
		h-26.426v24.094h30.83v16.84h-84.199V897.06z"/>
	<path d="M519.359,825.427c5.784,3.367,13.815,8.636,24.094,15.803l-10.492,14.12c-5.7-4.923-13.56-10.449-23.576-16.582
		L519.359,825.427z M527.131,861.438c5.094,2.505,10.75,4.75,16.969,6.735c-6.735,21.157-11.573,37.522-14.507,49.095
		c-6.131-2.332-12.004-4.362-17.618-6.089C517.589,896.153,522.641,879.571,527.131,861.438z M523.505,792.136
		c7.253,5.182,14.722,10.922,22.408,17.229l-11.011,12.694c-5.786-5.527-13.04-11.572-21.76-18.137L523.505,792.136z
		 M545.396,828.664h94.301v15.545h-59.454l-3.237,13.73h54.404c-0.563,9.584-1.2,18.633-1.913,27.138
		c-0.713,8.507-1.554,14.239-2.526,17.195c-0.969,2.956-2.386,5.441-4.242,7.449c-1.854,2.008-4.605,3.53-8.255,4.566
		s-8.496,1.554-14.54,1.554c-6.479,0-14.466-0.217-23.966-0.647c-0.949-5.442-2.072-11.227-3.368-17.358
		c13.299,1.124,22.021,1.684,26.166,1.684c4.533,0,7.622-0.604,9.262-1.814c1.643-1.206,2.7-3.356,3.176-6.443
		c0.474-3.086,0.992-9.099,1.554-18.036h-56.998l6.671-29.017h-17.033V828.664L545.396,828.664z M553.557,797.317h79.146v15.284
		h-79.146V797.317z"/>
	<path d="M650.188,809.104c7.515,3.625,15.33,7.687,23.446,12.177l-8.549,12.305c-7.338-4.403-15.067-8.721-23.185-12.953
		L650.188,809.104z M685.812,819.597V804.83h16.063c0.171-3.799,0.26-8.117,0.26-12.954h17.229c0,4.492-0.089,8.809-0.26,12.954
		h29.406v33.292c0,3.456,1.166,5.182,3.497,5.182h1.294c2.334,0,3.712-1.726,4.147-5.182c0.689-4.837,1.166-9.759,1.425-14.767
		c4.662,2.073,9.497,3.886,14.508,5.439c-0.775,6.306-1.64,11.832-2.589,16.582c-1.728,8.808-7.039,13.211-15.935,13.211h-7.512
		c-10.622,0-15.935-5.914-15.935-17.746v-21.244h-13.598c-2.073,15.026-8.379,26.858-18.913,35.494h17.616v10.363h53.757v14.767
		h-44.688c11.313,8.723,26.855,15.631,46.63,20.726c-3.107,5.354-5.826,10.968-8.16,16.838
		c-19.518-7.082-35.363-16.536-47.538-28.368v30.181h-17.616v-30.181c-11.658,10.709-27.463,20.164-47.411,28.368
		c-2.506-4.921-5.312-9.886-8.422-14.896c19.085-6.391,34.5-13.947,46.246-22.668h-43.653v-14.767h53.24v-10.234
		c-2.678,2.158-5.657,4.361-8.938,6.604c-3.886-4.575-8.074-8.938-12.564-13.083c13.901-8.031,21.634-17.744,23.188-29.146H685.812z
		 M675.448,829.054c2.159,4.145,4.708,8.463,7.644,12.953c-10.537,6.995-21.072,14.249-31.606,21.76l-8.162-14.765
		C653.256,843.39,663.962,836.739,675.448,829.054z M658.22,790.063c8.376,3.8,16.798,7.988,25.26,12.563l-8.677,12.047
		c-7.946-4.835-16.279-9.455-25.001-13.86L658.22,790.063z"/>
	<path d="M786.463,825.555c6.562,4.752,13.383,10.191,20.465,16.322l-11.658,13.99c-6.302-6.13-12.781-12.133-19.43-18.006
		L786.463,825.555z M790.349,862.603c6.477,2.938,11.786,5.012,15.932,6.218l-11.656,48.835c-5.699-2.158-11.399-3.928-17.098-5.311
		C781.927,899.132,786.203,882.551,790.349,862.603z M789.052,792.136c9.76,6.995,16.841,12.307,21.245,15.933l-12.048,13.083
		c-6.133-5.958-12.781-11.875-19.948-17.745L789.052,792.136z M842.163,879.701l12.692,7.773c-2.849,4.62-6.109,9.457-9.779,14.507
		c2.244,0.344,5.16,0.561,8.744,0.646c3.798-0.517,5.742-2.287,5.83-5.311v-20.467H836.72v-54.792h13.928
		c1.554-3.584,2.914-7.297,4.08-11.142h-25.26v38.991c0,32.47-4.793,55.787-14.38,69.949c-5.527-5.526-10.405-9.672-14.635-12.436
		c8.374-12.437,12.521-32.385,12.433-59.847v-51.166h90.807v14.506h-31.931c-1.038,2.549-2.766,6.261-5.183,11.142h31.541v54.792
		h-21.893v24.483c0,4.922-1.024,8.764-3.074,11.526c-2.05,2.764-5.181,4.449-9.393,5.052c-4.211,0.604-9.724,0.821-16.548,0.647
		c-0.735-4.706-1.793-9.758-3.173-15.154c-2.506,3.366-5.16,6.82-7.969,10.361l-12.045-9.713
		C830.331,897.406,836.375,889.288,842.163,879.701z M882.06,835.271h-29.532v8.161h29.532V835.271z M882.06,863.639v-8.289h-29.532
		v8.289H882.06z M889.572,879.184c5.439,7.082,10.836,15.156,16.19,24.224l-13.34,7.901c-4.146-7.945-9.154-16.277-15.027-25
		L889.572,879.184z"/>
</g>
</svg>
